<svg xmlns="http://www.w3.org/2000/svg" width="152.319" height="40.385" viewBox="0 0 152.319 40.385"><rect width="7.975" height="7.975" transform="translate(0 15.712)" fill="#eabf7b"/><rect width="7.975" height="7.975" transform="translate(15.764)" fill="#eabf7b"/><rect width="7.975" height="7.975" transform="translate(15.764 31.411)" fill="#eabf7b"/><rect width="7.975" height="7.975" transform="translate(31.529 15.712)" fill="#eabf7b"/><path d="M812.81,12.753l7.291,7.185h5.639V14.38L818.449,7.2Zm33.835,0L841.006,7.2l-7.291,7.185v5.558h5.639ZM839.354,27.8h-5.639v5.558l7.291,7.185,5.64-5.558Zm-26.545,7.186,5.639,5.558,7.291-7.185V27.8H820.1Z" transform="translate(-809.941 -4.174)" fill="#eabf7b"/><path d="M902.972,28.211l-.765,1.153a2.226,2.226,0,0,0-1.348-.473,1.747,1.747,0,0,0-1.432.728,3.874,3.874,0,0,0-.474,2.173,4.714,4.714,0,0,0,.352,2.258,1.754,1.754,0,0,0,1.627.946,2.182,2.182,0,0,0,1.274-.413c.048-.036.109-.085.169-.134l.777,1.068a3.854,3.854,0,0,1-5.1-.376,4.4,4.4,0,0,1-1.02-3.022,5.4,5.4,0,0,1,.571-2.622,3.624,3.624,0,0,1,3.228-1.954,3.454,3.454,0,0,1,2.136.667m-.583-2.524-1.966,1.469-2.015-1.469.5-.8,1.517.837,1.469-.837Z" transform="translate(-849.633 -12.588)" fill="#eabf7b"/><path d="M913.962,38.944l.631.971a3.566,3.566,0,0,1-2.342.862,2.891,2.891,0,0,1-2.937-3.216,3.4,3.4,0,0,1,.776-2.464,2.443,2.443,0,0,1,1.954-.838,2.542,2.542,0,0,1,1.8.656,3.648,3.648,0,0,1,.825,2.719v.376h-3.592v.048c0,.959.473,1.505,1.311,1.505a2.429,2.429,0,0,0,1.578-.619M911.1,36.82h1.881v-.073a1.6,1.6,0,0,0-.194-.935.788.788,0,0,0-.716-.364c-.619,0-.971.485-.971,1.347Z" transform="translate(-855.44 -17.021)" fill="#eabf7b"/><path d="M925.331,34.75l-.534,1.092a3.285,3.285,0,0,0-1.529-.449c-.474,0-.789.242-.789.607,0,.316.207.485.777.631l.753.194a1.938,1.938,0,0,1,1.238.7,1.646,1.646,0,0,1,.339,1.056c0,1.286-1.068,2.16-2.657,2.16a5.523,5.523,0,0,1-2.512-.716L921,38.84a4.539,4.539,0,0,0,2.063.7.76.76,0,0,0,.825-.7c0-.425-.3-.643-.959-.764l-.728-.134a2.194,2.194,0,0,1-1.141-.631,1.885,1.885,0,0,1-.352-1.117c0-1.213.958-2.027,2.4-2.027a4.665,4.665,0,0,1,2.221.583" transform="translate(-860.692 -16.977)" fill="#eabf7b"/><path d="M932.047,29.57l1.638-.4a14.786,14.786,0,0,1,.1,2.015v7h-1.626v-7a9.609,9.609,0,0,0-.109-1.614m3.362,2.379h1.954l-1.978,2.622,2.439,3.617h-1.918l-2.088-3.52Z" transform="translate(-866.194 -14.614)" fill="#eabf7b"/><path d="M943.282,32.539a5.21,5.21,0,0,1,1.008-.51,4.413,4.413,0,0,1,1.7-.364,1.908,1.908,0,0,1,2,1.08,2.88,2.88,0,0,1,.109,1.117l-.036,2.088v.109a1.269,1.269,0,0,0,.582,1.274l-.861,1a1.74,1.74,0,0,1-.874-.752,2.687,2.687,0,0,1-.376.328,2.149,2.149,0,0,1-1.25.34c-1.383,0-2.136-.7-2.136-1.942,0-1.457,1.007-2.136,2.985-2.136.122,0,.194,0,.364.012v-.255c0-.692-.133-.923-.728-.923a3.425,3.425,0,0,0-1.8.7Zm3.544-3.738.668,1.189-2.585,1.153-.473-.849Zm-.352,6.493H946.4c-1.129,0-1.517.206-1.517.946a.737.737,0,0,0,.716.813,1.177,1.177,0,0,0,.85-.425Z" transform="translate(-871.446 -14.439)" fill="#eabf7b"/><path d="M963,34.515l1.444-.255a2.754,2.754,0,0,1,.11.582,2.08,2.08,0,0,1,1.529-.582,2.249,2.249,0,0,1,1.226.376,2.958,2.958,0,0,1,1.152,2.682,3.381,3.381,0,0,1-.862,2.706,2.212,2.212,0,0,1-1.663.7,2.608,2.608,0,0,1-1.3-.328,4.672,4.672,0,0,1,.025.51v1.942l-1.566.413V36.08a7.9,7.9,0,0,0-.1-1.566m1.675,4.564a1.527,1.527,0,0,0,.9.364c.8,0,1.117-.546,1.117-1.966a4.413,4.413,0,0,0-.158-1.372.75.75,0,0,0-.777-.522,1.5,1.5,0,0,0-1.08.473Z" transform="translate(-880.837 -17.022)" fill="#eabf7b"/><path d="M975.371,34.6l1.457-.388a1.994,1.994,0,0,1,.255.886A2.817,2.817,0,0,1,978,34.31a1.446,1.446,0,0,1,.534-.1,1.256,1.256,0,0,1,.607.133l-.449,1.432a.92.92,0,0,0-.473-.121,1.3,1.3,0,0,0-1,.522v4.393H975.6v-4.15a5.624,5.624,0,0,0-.231-1.821" transform="translate(-886.687 -17)" fill="#eabf7b"/><path d="M983.778,31.878l1.6-.3v3.993a2.263,2.263,0,0,0,.133,1.02.653.653,0,0,0,.571.291,1.2,1.2,0,0,0,1.008-.594V31.915l1.554-.328v4.745a1.808,1.808,0,0,0,.376,1.129l-1.153.656a1.425,1.425,0,0,1-.486-.607,2.319,2.319,0,0,1-1.638.595,1.872,1.872,0,0,1-1.832-1.008,3.7,3.7,0,0,1-.134-1.238Zm2.537-3.216a1.42,1.42,0,1,1-1.408,1.42,1.436,1.436,0,0,1,1.408-1.42m-.692,1.42a.673.673,0,1,0,1.347,0,.666.666,0,0,0-.655-.68.681.681,0,0,0-.692.68" transform="translate(-890.665 -14.373)" fill="#eabf7b"/><path d="M995.732,34.682l1.469-.4a1.577,1.577,0,0,1,.218.631,2.14,2.14,0,0,1,1.517-.631,1.682,1.682,0,0,1,1.262.51,2,2,0,0,1,.243.3,2.282,2.282,0,0,1,1.759-.813,1.922,1.922,0,0,1,1.226.388c.352.3.461.668.461,1.517v4.418h-1.578V36.5c0-.74-.084-.886-.51-.886a1.851,1.851,0,0,0-1.08.522v4.466h-1.541V36.564c0-.777-.109-.959-.559-.959a1.721,1.721,0,0,0-1.068.474v4.527h-1.59V36.272a3.212,3.212,0,0,0-.231-1.59" transform="translate(-896.319 -17.032)" fill="#eabf7b"/><path d="M1012.73,34.522l1.663-.194,1.08,3.617c.11.376.328,1.286.328,1.286s.121-.691.194-.995c.1-.388.109-.45.243-.862l.935-2.949h1.711l-2.257,6.3a3.949,3.949,0,0,1-1.189,2.051,3.275,3.275,0,0,1-1.505.571l-.558-1.068a3.636,3.636,0,0,0,1.007-.413,1.865,1.865,0,0,0,.462-.51,3.714,3.714,0,0,0,.352-.728h-.413c-.1-.291-.146-.413-.255-.728-.122-.376-.316-1-.328-1.02Z" transform="translate(-904.36 -17.054)" fill="#eabf7b"/><path d="M1029.369,34.75l-.533,1.092a3.286,3.286,0,0,0-1.53-.449c-.473,0-.788.242-.788.607,0,.316.206.485.777.631l.752.194a1.938,1.938,0,0,1,1.238.7,1.648,1.648,0,0,1,.341,1.056c0,1.286-1.068,2.16-2.659,2.16a5.526,5.526,0,0,1-2.512-.716l.582-1.189a4.542,4.542,0,0,0,2.063.7.761.761,0,0,0,.826-.7c0-.425-.3-.643-.959-.764l-.728-.134a2.2,2.2,0,0,1-1.141-.631,1.887,1.887,0,0,1-.352-1.117c0-1.213.96-2.027,2.4-2.027a4.664,4.664,0,0,1,2.221.583" transform="translate(-909.906 -16.977)" fill="#eabf7b"/><path d="M1037.84,29.239a9.232,9.232,0,0,1,.085,1.614V35.7c0,1.068.012,1.214.109,1.383a.373.373,0,0,0,.328.17.525.525,0,0,0,.182-.025l.28.971a2.72,2.72,0,0,1-.971.17,1.458,1.458,0,0,1-1.444-.849,3.365,3.365,0,0,1-.145-1.4V31.484a16.042,16.042,0,0,0-.085-1.869Z" transform="translate(-915.451 -14.646)" fill="#eabf7b"/><path d="M1044.543,34.259a2.6,2.6,0,0,1,2.111.934,3.229,3.229,0,0,1,.716,2.27,3.376,3.376,0,0,1-.777,2.4,2.539,2.539,0,0,1-2.051.862c-1.687,0-2.792-1.263-2.792-3.217s1.117-3.252,2.792-3.252m.024,1.2a.878.878,0,0,0-.838.631,4.425,4.425,0,0,0-.17,1.383,4.4,4.4,0,0,0,.206,1.566.9.9,0,0,0,.825.51c.7,0,1.007-.631,1.007-2.1a2.9,2.9,0,0,0-.327-1.663.872.872,0,0,0-.7-.328" transform="translate(-918.087 -17.021)" fill="#eabf7b"/><path d="M1052.991,34.489l1.662-.206.9,2.8c.134.413.316,1.092.4,1.492a10.521,10.521,0,0,1,.376-1.577l.837-2.61h1.7l-2.27,6.214h-1.347Z" transform="translate(-923.405 -17.033)" fill="#eabf7b"/><path d="M1064.964,32.539a5.231,5.231,0,0,1,1.007-.51,4.413,4.413,0,0,1,1.7-.364,1.909,1.909,0,0,1,2,1.08,2.882,2.882,0,0,1,.109,1.117l-.037,2.088v.109a1.269,1.269,0,0,0,.582,1.274l-.86,1a1.739,1.739,0,0,1-.875-.752,2.7,2.7,0,0,1-.376.328,2.146,2.146,0,0,1-1.249.34c-1.383,0-2.136-.7-2.136-1.942,0-1.457,1.007-2.136,2.985-2.136.122,0,.2,0,.365.012v-.255c0-.692-.134-.923-.729-.923a3.424,3.424,0,0,0-1.8.7Zm3.544-3.738.668,1.189-2.585,1.153-.474-.849Zm-.352,6.493h-.073c-1.129,0-1.517.206-1.517.946a.737.737,0,0,0,.716.813,1.176,1.176,0,0,0,.849-.425Z" transform="translate(-929.005 -14.439)" fill="#eabf7b"/><path d="M896.773,61.395h4.612v1.117l-2.743,3.932h2.852l-.388,1.129H896.53V66.565l2.925-4.029h-2.682Z" transform="translate(-849.394 -29.858)" fill="#eabf7b"/><path d="M912.477,56.329v6.457a6.056,6.056,0,0,0,.231,2.27h-1.456a1.089,1.089,0,0,1-.1-.364,2.088,2.088,0,0,1-1.432.522c-1.578,0-2.573-1.226-2.573-3.155s1.08-3.277,2.658-3.277a1.677,1.677,0,0,1,1.1.351,7.568,7.568,0,0,1-.048-.922V56.074Zm-1.59,4.151a1.356,1.356,0,0,0-.886-.4c-.728,0-1.043.607-1.043,1.99,0,1.335.279,1.772,1.129,1.772a1.164,1.164,0,0,0,.8-.4Z" transform="translate(-854.416 -27.34)" fill="#eabf7b"/><path d="M920.093,61.437l1.456-.388a1.99,1.99,0,0,1,.255.886,2.817,2.817,0,0,1,.923-.789,1.446,1.446,0,0,1,.534-.1,1.257,1.257,0,0,1,.607.133l-.449,1.432a.918.918,0,0,0-.473-.121,1.3,1.3,0,0,0-1,.522v4.393h-1.626v-4.15a5.628,5.628,0,0,0-.231-1.821" transform="translate(-860.539 -29.694)" fill="#eabf7b"/><path d="M927.6,61.946a5.244,5.244,0,0,1,1.008-.51,4.414,4.414,0,0,1,1.7-.364,1.908,1.908,0,0,1,2,1.08,2.885,2.885,0,0,1,.11,1.116l-.037,2.088v.109a1.27,1.27,0,0,0,.582,1.275l-.861.995a1.739,1.739,0,0,1-.874-.752,2.661,2.661,0,0,1-.376.328,2.147,2.147,0,0,1-1.25.34c-1.383,0-2.136-.7-2.136-1.942,0-1.457,1.007-2.136,2.985-2.136.122,0,.195,0,.364.012v-.255c0-.691-.133-.922-.728-.922a3.424,3.424,0,0,0-1.8.7Zm3.192,2.755h-.073c-1.129,0-1.517.207-1.517.947a.737.737,0,0,0,.716.813,1.179,1.179,0,0,0,.849-.425Z" transform="translate(-864.026 -29.705)" fill="#eabf7b"/><path d="M938.174,61.325l1.663-.207.9,2.8c.133.412.315,1.092.4,1.492a10.462,10.462,0,0,1,.377-1.578l.837-2.609h1.7l-2.27,6.213h-1.347Z" transform="translate(-869.093 -29.726)" fill="#eabf7b"/><path d="M952.711,61.1a2.6,2.6,0,0,1,2.112.934,3.23,3.23,0,0,1,.716,2.27,3.373,3.373,0,0,1-.777,2.4,2.539,2.539,0,0,1-2.051.862c-1.687,0-2.791-1.263-2.791-3.217s1.117-3.252,2.791-3.252m.024,1.2a.877.877,0,0,0-.837.631,5.889,5.889,0,0,0,.036,2.949.9.9,0,0,0,.825.51c.7,0,1.007-.631,1.007-2.1a2.891,2.891,0,0,0-.327-1.663.87.87,0,0,0-.7-.328" transform="translate(-874.648 -29.716)" fill="#eabf7b"/><path d="M965.287,59.624l-.413,1.08h-1.044v3.168c0,.789.145.995.7.995a2.129,2.129,0,0,0,.582-.121l.206.971A3.413,3.413,0,0,1,964,66a1.668,1.668,0,0,1-1.675-.91,2.28,2.28,0,0,1-.109-.959V60.7H961.6V59.648h.619a10.944,10.944,0,0,1,.061-1.48l1.651-.413a18.173,18.173,0,0,0-.1,1.869Z" transform="translate(-880.172 -28.135)" fill="#eabf7b"/><path d="M969.889,61.439l1.444-.413a1.594,1.594,0,0,1,.23.777,5.548,5.548,0,0,1,.716-.461,2.558,2.558,0,0,1,1.117-.267,1.546,1.546,0,0,1,1.493.9,2.506,2.506,0,0,1,.121.886V67.4h-1.6V63.356c0-.7-.121-.91-.547-.91a1.9,1.9,0,0,0-1.128.558V67.4h-1.627V62.9a4.488,4.488,0,0,0-.218-1.457" transform="translate(-884.094 -29.682)" fill="#eabf7b"/><path d="M984.1,55.637l.668,1.189-2.585,1.153-.473-.849Zm-2.027,3.107,1.626-.255v6.359h-1.626Z" transform="translate(-889.683 -27.134)" fill="#eabf7b"/><path d="M995.916,61.351l1.444-.255a2.743,2.743,0,0,1,.11.582A2.08,2.08,0,0,1,999,61.1a2.253,2.253,0,0,1,1.226.376,2.96,2.96,0,0,1,1.152,2.682,3.383,3.383,0,0,1-.861,2.707,2.213,2.213,0,0,1-1.663.7,2.607,2.607,0,0,1-1.3-.328,4.718,4.718,0,0,1,.025.51v1.942l-1.566.413V62.916a7.894,7.894,0,0,0-.1-1.565m1.675,4.563a1.531,1.531,0,0,0,.9.364c.8,0,1.117-.546,1.117-1.966a4.405,4.405,0,0,0-.158-1.371.748.748,0,0,0-.777-.522,1.5,1.5,0,0,0-1.08.473Z" transform="translate(-896.406 -29.717)" fill="#eabf7b"/><path d="M1010.684,61.1a2.605,2.605,0,0,1,2.112.934,3.23,3.23,0,0,1,.716,2.27,3.375,3.375,0,0,1-.777,2.4,2.539,2.539,0,0,1-2.052.862c-1.686,0-2.791-1.263-2.791-3.217s1.117-3.252,2.791-3.252m.025,1.2a.877.877,0,0,0-.837.631,5.882,5.882,0,0,0,.036,2.949.9.9,0,0,0,.826.51c.7,0,1.007-.631,1.007-2.1a2.891,2.891,0,0,0-.327-1.663.87.87,0,0,0-.7-.328" transform="translate(-902.072 -29.716)" fill="#eabf7b"/><path d="M1019.853,59.02l1.614-.388v6.178a2.911,2.911,0,0,1-.461,1.93,2.982,2.982,0,0,1-1.262.91l-.68-.9a2.406,2.406,0,0,0,.594-.7,2.6,2.6,0,0,0,.195-1.189Zm.825-3.107a1.01,1.01,0,0,1,1.007,1,1.026,1.026,0,0,1-1.02,1.02.992.992,0,0,1-1-1,1.016,1.016,0,0,1,1.008-1.02" transform="translate(-907.356 -27.264)" fill="#eabf7b"/><path d="M1027.177,55.936a.993.993,0,0,1,.983,1.008,1,1,0,1,1-2,0,1.016,1.016,0,0,1,1.019-1.008m-.837,2.949,1.626-.255V64.99h-1.626Z" transform="translate(-910.712 -27.275)" fill="#eabf7b"/><path d="M1036.094,59.112l-.534,1.092a3.285,3.285,0,0,0-1.53-.449c-.473,0-.789.243-.789.607,0,.316.207.486.777.631l.752.194a1.931,1.931,0,0,1,1.238.7,1.641,1.641,0,0,1,.34,1.056c0,1.287-1.068,2.161-2.658,2.161a5.525,5.525,0,0,1-2.512-.716l.583-1.189a4.541,4.541,0,0,0,2.063.7.761.761,0,0,0,.825-.7c0-.425-.3-.643-.959-.765l-.728-.134a2.189,2.189,0,0,1-1.141-.631,1.884,1.884,0,0,1-.352-1.117c0-1.214.958-2.027,2.4-2.027a4.673,4.673,0,0,1,2.221.582m-.376-2.536-1.966,1.469-2.015-1.469.5-.8,1.517.837,1.469-.837Z" transform="translate(-913.086 -27.199)" fill="#eabf7b"/><path d="M1045.717,58.4l-.412,1.08h-1.044v3.168c0,.789.145,1,.7,1a2.112,2.112,0,0,0,.582-.122l.207.971a3.414,3.414,0,0,1-1.323.279,1.669,1.669,0,0,1-1.675-.91,2.283,2.283,0,0,1-.109-.959V59.484h-.619V58.429h.619a11.037,11.037,0,0,1,.06-1.481l1.651-.413a18.405,18.405,0,0,0-.1,1.869Zm-.643-.279-.509-.546c.412-.11.692-.328.692-.559,0-.134-.048-.207-.243-.316a.723.723,0,0,1-.388-.692.842.842,0,0,1,.849-.837,1.058,1.058,0,0,1,.984,1.177,1.8,1.8,0,0,1-1.384,1.772" transform="translate(-918.219 -26.916)" fill="#eabf7b"/><path d="M1053.133,61.1a2.6,2.6,0,0,1,2.112.934,3.231,3.231,0,0,1,.716,2.27,3.375,3.375,0,0,1-.777,2.4,2.539,2.539,0,0,1-2.051.862c-1.687,0-2.792-1.263-2.792-3.217s1.117-3.252,2.792-3.252m.024,1.2a.877.877,0,0,0-.837.631,5.887,5.887,0,0,0,.036,2.949.9.9,0,0,0,.826.51c.7,0,1.007-.631,1.007-2.1a2.9,2.9,0,0,0-.327-1.663.872.872,0,0,0-.7-.328" transform="translate(-922.151 -29.716)" fill="#eabf7b"/><path d="M1061.582,61.325l1.662-.207.9,2.8c.133.412.315,1.092.4,1.492a10.435,10.435,0,0,1,.377-1.578l.837-2.609h1.7l-2.27,6.213h-1.347Z" transform="translate(-927.468 -29.726)" fill="#eabf7b"/><path d="M1073.789,61.439l1.444-.413a1.594,1.594,0,0,1,.23.777,5.539,5.539,0,0,1,.716-.461,2.557,2.557,0,0,1,1.117-.267,1.546,1.546,0,0,1,1.493.9,2.513,2.513,0,0,1,.121.886V67.4h-1.6V63.356c0-.7-.121-.91-.546-.91a1.9,1.9,0,0,0-1.128.558V67.4h-1.627V62.9a4.49,4.49,0,0,0-.218-1.457" transform="translate(-933.242 -29.682)" fill="#eabf7b"/><path d="M1085.83,61.946a5.245,5.245,0,0,1,1.008-.51,4.413,4.413,0,0,1,1.7-.364,1.908,1.908,0,0,1,2,1.08,2.877,2.877,0,0,1,.109,1.116l-.036,2.088v.109a1.27,1.27,0,0,0,.582,1.275l-.861.995a1.736,1.736,0,0,1-.874-.752,2.681,2.681,0,0,1-.376.328,2.149,2.149,0,0,1-1.25.34c-1.383,0-2.136-.7-2.136-1.942,0-1.457,1.007-2.136,2.985-2.136.122,0,.194,0,.364.012v-.255c0-.691-.133-.922-.728-.922a3.425,3.425,0,0,0-1.8.7Zm3.192,2.755h-.073c-1.129,0-1.517.207-1.517.947a.737.737,0,0,0,.716.813,1.179,1.179,0,0,0,.849-.425Z" transform="translate(-938.876 -29.705)" fill="#eabf7b"/></svg>