<svg xmlns="http://www.w3.org/2000/svg" width="157.118" height="40.375" viewBox="0 0 157.118 40.375"><path d="M1874.833,47.885q3.836-1.143,3.835-5.533a5.234,5.234,0,0,0-1.752-4.389q-1.754-1.37-5.812-1.37h-6.6V54.329h2.995V39.308h3.8a6.25,6.25,0,0,1,3.352.647,2.7,2.7,0,0,1,.936,2.386,3.16,3.16,0,0,1-.91,2.523,5.074,5.074,0,0,1-3.2.782v2.72l4.187,5.962h3.8Z" transform="translate(-1862.292 -18.104)" fill="#eabf7b"/><path d="M1909.635,51.043a4.981,4.981,0,0,1-2.524.52h-4.7v-12.2h3.833a4.245,4.245,0,0,1,2.437.559,2.089,2.089,0,0,1,.783,1.825c0,1.441-.988,2.175-3.063,2.2v2.772h.328q3.779,0,3.78,2.362a2.084,2.084,0,0,1-.878,1.963m2.97-4.439a4.644,4.644,0,0,0-2.627-1.485c.306-.133.517-.235.634-.291a5.381,5.381,0,0,0,.661-.443,3.667,3.667,0,0,0,1.318-3.1,4.556,4.556,0,0,0-1.215-3.1,4.3,4.3,0,0,0-1.942-1.165,9.95,9.95,0,0,0-3.109-.431h-6.9V54.332h7.765q3.63,0,5.126-1.65a4.769,4.769,0,0,0,1.271-3.274,4.139,4.139,0,0,0-.979-2.8" transform="translate(-1879.038 -18.104)" fill="#eabf7b"/><path d="M1945.241,38.14q-1.85-1.551-5.887-1.549h-6.09V54.33h3V39.307h3.044a6.571,6.571,0,0,1,3.578.762,2.889,2.889,0,0,1,1.14,2.6,3.91,3.91,0,0,1-.9,2.789,4.07,4.07,0,0,1-2.875.942v2.7a8.356,8.356,0,0,0,4.953-1.476,5.649,5.649,0,0,0,1.895-4.72,5.848,5.848,0,0,0-1.855-4.77" transform="translate(-1895.271 -18.103)" fill="#eabf7b"/><path d="M1869.731,13.478a19.885,19.885,0,0,0,2.932-3.591,5.849,5.849,0,0,0,.794-2.93,5.35,5.35,0,0,0-1.874-4.315,6.594,6.594,0,0,0-4.373-1.579,7.493,7.493,0,0,0-4.068,1,9.927,9.927,0,0,0-2.892,2.962l2.708,1.564a4.745,4.745,0,0,1,4.068-2.506,3.279,3.279,0,0,1,2.306.842,2.669,2.669,0,0,1,.91,2.036,3.956,3.956,0,0,1-.855,2.361,32.386,32.386,0,0,1-2.87,3.217l-4.011,4.025h4.2Z" transform="translate(-1860.251 -1.063)" fill="#eabf7b"/><path d="M1898.883,1.994h-7.231V4.982h4.044V17.007h3.187Z" transform="translate(-1875.312 -1.509)" fill="#eabf7b"/><path d="M1928.528,15.63a5.527,5.527,0,0,0-1.54-3.916,5.849,5.849,0,0,0-4.271-1.72l4.812-5.384V1.994h-11.646V4.983h7.206l-4.615,5.35V12.9a7.291,7.291,0,0,1,2.136-.315,5.8,5.8,0,0,1,3.474.913,2.863,2.863,0,0,1,1.253,2.433,3.168,3.168,0,0,1-.19,1.079h3.255a7.574,7.574,0,0,0,.125-1.376" transform="translate(-1886.934 -1.509)" fill="#eabf7b"/><path d="M1981.963,19.85v1.2h-8.679v-.953L1980,11.6h-6.591V10.38h8.437v.953l-6.714,8.517Z" transform="translate(-1914.465 -5.532)" fill="#eabf7b"/><path d="M1999.756,15.315a3.684,3.684,0,0,0,1.419-1.471,4.475,4.475,0,0,0,.516-2.17,4.471,4.471,0,0,0-.516-2.169,3.693,3.693,0,0,0-1.419-1.472,4.239,4.239,0,0,0-4.057,0A3.675,3.675,0,0,0,1994.28,9.5a4.464,4.464,0,0,0-.517,2.169,4.467,4.467,0,0,0,.517,2.17,3.665,3.665,0,0,0,1.419,1.471,4.235,4.235,0,0,0,4.057,0m3.356-13.355V17.009h-1.38V14.9a4.381,4.381,0,0,1-1.714,1.644,5.032,5.032,0,0,1-2.4.568,5.414,5.414,0,0,1-2.718-.689,4.932,4.932,0,0,1-1.9-1.927,5.681,5.681,0,0,1-.689-2.819,5.681,5.681,0,0,1,.689-2.819,4.865,4.865,0,0,1,1.9-1.918,5.5,5.5,0,0,1,2.718-.678,5.053,5.053,0,0,1,2.343.537,4.448,4.448,0,0,1,1.714,1.572V1.96Z" transform="translate(-1923.587 -1.493)" fill="#eabf7b"/><path d="M2022.978,10.77a5.123,5.123,0,0,1,2.485-.548v1.4l-.344-.02a3.4,3.4,0,0,0-2.637,1.036,4.114,4.114,0,0,0-.954,2.9v5.437h-1.44V10.3h1.38v2.088a3.494,3.494,0,0,1,1.511-1.621" transform="translate(-1936.913 -5.455)" fill="#eabf7b"/><path d="M2039.157,19.379a3.347,3.347,0,0,0,1.3-1.613V16.022h-3.347q-2.738,0-2.737,1.907a1.743,1.743,0,0,0,.709,1.471,3.224,3.224,0,0,0,1.988.538,3.8,3.8,0,0,0,2.089-.558m1.622-8.113a4.035,4.035,0,0,1,1.116,3.092V20.97h-1.379V19.307a3.3,3.3,0,0,1-1.431,1.3,5.01,5.01,0,0,1-2.241.467,4.386,4.386,0,0,1-2.84-.853,2.93,2.93,0,0,1-.07-4.44,4.808,4.808,0,0,1,3.133-.831h3.387V14.3a2.735,2.735,0,0,0-.771-2.1,3.184,3.184,0,0,0-2.252-.721,5.739,5.739,0,0,0-1.947.334,4.911,4.911,0,0,0-1.6.923l-.649-1.075a5.784,5.784,0,0,1,1.947-1.065,7.588,7.588,0,0,1,2.393-.375,4.518,4.518,0,0,1,3.2,1.045" transform="translate(-1943.083 -5.455)" fill="#eabf7b"/><path d="M2063.7,10.378l-4.746,10.668h-1.48l-4.726-10.668h1.5l4,9.086,4.037-9.086Z" transform="translate(-1952.579 -5.531)" fill="#eabf7b"/><path d="M2081.813,19.277a3.606,3.606,0,0,0,1.409-1.471,4.545,4.545,0,0,0,.508-2.17,4.541,4.541,0,0,0-.508-2.169A3.616,3.616,0,0,0,2081.813,12a4.278,4.278,0,0,0-4.076,0,3.675,3.675,0,0,0-1.42,1.472,4.81,4.81,0,0,0,0,4.339,3.666,3.666,0,0,0,1.42,1.471,4.274,4.274,0,0,0,4.076,0M2077,20.372a5.1,5.1,0,0,1-1.947-1.936,5.519,5.519,0,0,1-.709-2.8,5.515,5.515,0,0,1,.709-2.8A5.038,5.038,0,0,1,2077,10.911a5.949,5.949,0,0,1,5.558,0,4.972,4.972,0,0,1,1.935,1.927,5.568,5.568,0,0,1,.7,2.8,5.573,5.573,0,0,1-.7,2.8,5.036,5.036,0,0,1-1.935,1.936,5.863,5.863,0,0,1-5.558,0" transform="translate(-1962.934 -5.455)" fill="#eabf7b"/><path d="M2104.225,18.247a2.736,2.736,0,0,1-1,.558,4.065,4.065,0,0,1-1.248.193,3.132,3.132,0,0,1-2.312-.811,3.108,3.108,0,0,1-.809-2.293V9.445h-1.906V8.229h1.906V5.9h1.44V8.229h3.244V9.445h-3.244v6.368a2.017,2.017,0,0,0,.477,1.451,1.809,1.809,0,0,0,1.368.5,2.682,2.682,0,0,0,.864-.143,2.139,2.139,0,0,0,.72-.406Z" transform="translate(-1973.777 -3.38)" fill="#eabf7b"/><path d="M2123.89,11.389a4.561,4.561,0,0,1,1.186,3.4v6.186h-1.44V14.93a3.538,3.538,0,0,0-.83-2.536,3.123,3.123,0,0,0-2.373-.873,3.64,3.64,0,0,0-2.727,1.026,3.858,3.858,0,0,0-1,2.828v5.6h-1.44V10.3h1.38v1.968a4,4,0,0,1,1.632-1.511,5.238,5.238,0,0,1,2.424-.537,4.362,4.362,0,0,1,3.194,1.165" transform="translate(-1982.562 -5.456)" fill="#eabf7b"/><path d="M2140.4,6.527h1.439V17.194H2140.4Zm2.19-4.178h1.926l-3.285,2.516h-1.419Z" transform="translate(-1994.337 -1.68)" fill="#eabf7b"/><path d="M1982.927,59.3a3.658,3.658,0,0,0,1.429-1.471,4.462,4.462,0,0,0,.518-2.17,4.41,4.41,0,0,0-.518-2.16,3.732,3.732,0,0,0-1.429-1.47,4.185,4.185,0,0,0-4.067,0,3.766,3.766,0,0,0-1.419,1.47,4.429,4.429,0,0,0-.517,2.16,4.48,4.48,0,0,0,.517,2.17,3.69,3.69,0,0,0,1.419,1.471,4.263,4.263,0,0,0,4.067,0m.791-8.376a4.859,4.859,0,0,1,1.906,1.916,6.141,6.141,0,0,1,0,5.658,4.864,4.864,0,0,1-1.9,1.916,5.452,5.452,0,0,1-2.727.68,5.035,5.035,0,0,1-2.342-.537,4.44,4.44,0,0,1-1.713-1.573v5.943h-1.44v-14.6h1.379V52.43a4.458,4.458,0,0,1,1.714-1.622,5.019,5.019,0,0,1,2.4-.568,5.48,5.48,0,0,1,2.718.68" transform="translate(-1915.529 -24.65)" fill="#eabf7b"/><path d="M2006.633,59.295a3.6,3.6,0,0,0,1.41-1.47,4.892,4.892,0,0,0,0-4.341,3.625,3.625,0,0,0-1.41-1.471,4.286,4.286,0,0,0-4.076,0,3.688,3.688,0,0,0-1.418,1.471,4.8,4.8,0,0,0,0,4.341,3.666,3.666,0,0,0,1.418,1.47,4.274,4.274,0,0,0,4.076,0m-4.816,1.1a5.108,5.108,0,0,1-1.947-1.936,5.87,5.87,0,0,1,0-5.6,5.042,5.042,0,0,1,1.947-1.927,5.942,5.942,0,0,1,5.557,0,4.975,4.975,0,0,1,1.937,1.927,5.941,5.941,0,0,1,0,5.6,5.039,5.039,0,0,1-1.937,1.936,5.864,5.864,0,0,1-5.557,0" transform="translate(-1926.876 -24.65)" fill="#eabf7b"/><path d="M2021.51,43.683a1,1,0,0,1-.3-.731.98.98,0,0,1,.3-.709,1.019,1.019,0,0,1,.751-.3,1.042,1.042,0,0,1,.75.295.941.941,0,0,1,.3.7,1.061,1.061,0,0,1-1.8.751m-2.931,17.188a2.461,2.461,0,0,1-.984-.517l.507-1.1a2.437,2.437,0,0,0,1.663.548,1.673,1.673,0,0,0,1.309-.506,2.184,2.184,0,0,0,.457-1.5V46.34h1.44V57.8a3.352,3.352,0,0,1-.811,2.373,3,3,0,0,1-2.313.872,4.574,4.574,0,0,1-1.267-.172" transform="translate(-1935.718 -20.668)" fill="#eabf7b"/><path d="M2034.64,46.357h1.439V57.024h-1.439Zm-.02-2.635a.994.994,0,0,1-.3-.73.977.977,0,0,1,.3-.711,1.017,1.017,0,0,1,.75-.3,1.036,1.036,0,0,1,.75.295.935.935,0,0,1,.305.7,1.061,1.061,0,0,1-1.8.75" transform="translate(-1943.738 -20.687)" fill="#eabf7b"/><path d="M2049.623,42.369l-2.616,2.514h-1.46l-2.617-2.514h1.339l2.009,1.662,2.007-1.662Zm-5.891,14.571a5.3,5.3,0,0,1-1.855-.944l.649-1.134a5.487,5.487,0,0,0,1.683.861,6.646,6.646,0,0,0,2.109.335,4.045,4.045,0,0,0,2.16-.456,1.453,1.453,0,0,0,.7-1.287,1.159,1.159,0,0,0-.385-.924,2.572,2.572,0,0,0-.974-.506,14.085,14.085,0,0,0-1.562-.336,17.736,17.736,0,0,1-2.088-.5,3.051,3.051,0,0,1-1.348-.863,2.4,2.4,0,0,1-.559-1.683,2.638,2.638,0,0,1,1.116-2.19,5.009,5.009,0,0,1,3.1-.852,8.083,8.083,0,0,1,2.068.273,5.723,5.723,0,0,1,1.7.721l-.629,1.155a5.389,5.389,0,0,0-3.144-.912,3.638,3.638,0,0,0-2.078.487,1.491,1.491,0,0,0-.7,1.278,1.262,1.262,0,0,0,.394.973,2.445,2.445,0,0,0,.984.539,16.158,16.158,0,0,0,1.623.353,18.983,18.983,0,0,1,2.048.488,3.013,3.013,0,0,1,1.319.832,2.29,2.29,0,0,1,.547,1.623,2.577,2.577,0,0,1-1.167,2.22,5.543,5.543,0,0,1-3.234.822,8.172,8.172,0,0,1-2.484-.375" transform="translate(-1947.363 -20.874)" fill="#eabf7b"/><path d="M2065.073,41.122h1.156l-.183,3.365h-.973Zm2.088,14.845a2.756,2.756,0,0,1-1,.558,4.083,4.083,0,0,1-1.248.192,2.824,2.824,0,0,1-3.122-3.1V47.165h-1.906V45.947h1.906V43.616h1.439v2.332h3.245v1.218h-3.245v6.367a2.02,2.02,0,0,0,.477,1.451,1.811,1.811,0,0,0,1.369.5,2.615,2.615,0,0,0,.862-.143,2.09,2.09,0,0,0,.721-.4Z" transform="translate(-1956 -20.276)" fill="#eabf7b"/><path d="M2082.864,59.295a3.613,3.613,0,0,0,1.41-1.47,4.9,4.9,0,0,0,0-4.341,3.636,3.636,0,0,0-1.41-1.471,4.283,4.283,0,0,0-4.075,0,3.7,3.7,0,0,0-1.421,1.471,4.823,4.823,0,0,0,0,4.341,3.681,3.681,0,0,0,1.421,1.47,4.271,4.271,0,0,0,4.075,0m-4.816,1.1a5.112,5.112,0,0,1-1.947-1.936,5.872,5.872,0,0,1,0-5.6,5.046,5.046,0,0,1,1.947-1.927,5.943,5.943,0,0,1,5.557,0,4.976,4.976,0,0,1,1.937,1.927,5.954,5.954,0,0,1,0,5.6,5.04,5.04,0,0,1-1.937,1.936,5.865,5.865,0,0,1-5.557,0" transform="translate(-1963.439 -24.65)" fill="#eabf7b"/><path d="M2107.74,50.4l-4.747,10.667h-1.48L2096.787,50.4h1.5l4,9.085,4.037-9.085Z" transform="translate(-1973.702 -24.724)" fill="#eabf7b"/><path d="M2129.657,51.407a4.552,4.552,0,0,1,1.187,3.4v6.185h-1.44V54.946a3.538,3.538,0,0,0-.831-2.535,3.126,3.126,0,0,0-2.374-.872,3.646,3.646,0,0,0-2.728,1.024,3.868,3.868,0,0,0-1,2.829v5.6h-1.439V50.322h1.378v1.968a4.012,4.012,0,0,1,1.633-1.511,5.236,5.236,0,0,1,2.424-.538,4.36,4.36,0,0,1,3.193,1.167" transform="translate(-1985.327 -24.65)" fill="#eabf7b"/><path d="M2151.2,59.4a3.35,3.35,0,0,0,1.3-1.613V56.04h-3.347q-2.738,0-2.738,1.907a1.746,1.746,0,0,0,.709,1.471,3.231,3.231,0,0,0,1.988.537,3.8,3.8,0,0,0,2.091-.557m1.621-8.113a4.04,4.04,0,0,1,1.116,3.094V60.99h-1.38V59.325a3.286,3.286,0,0,1-1.429,1.3,5.011,5.011,0,0,1-2.241.467,4.4,4.4,0,0,1-2.84-.852A2.754,2.754,0,0,1,2145,57.987a2.723,2.723,0,0,1,.983-2.19,4.812,4.812,0,0,1,3.133-.832h3.388v-.649a2.738,2.738,0,0,0-.77-2.1,3.189,3.189,0,0,0-2.252-.72,5.683,5.683,0,0,0-1.948.336,4.863,4.863,0,0,0-1.6.923l-.65-1.076a5.809,5.809,0,0,1,1.947-1.066,7.622,7.622,0,0,1,2.393-.374,4.522,4.522,0,0,1,3.205,1.044" transform="translate(-1996.824 -24.65)" fill="#eabf7b"/></svg>