<svg xmlns="http://www.w3.org/2000/svg" width="191.179" height="32.4" viewBox="0 0 191.179 32.4"><path d="M423.211,18.377a11.443,11.443,0,0,0-2.84-.3c-3.555-.046-7.111-.023-10.667-.033-.309,0-.423.124-.408.421.013.249,0,.5,0,.749v16.53c0,.64,0,.651-.658.638-.822-.016-1.643-.074-2.464-.076q-5.642-.013-11.285,0c-.118,0-.235,0-.353,0-.208,0-.276-.087-.147-.271a2.3,2.3,0,0,1,.194-.239q2.515-2.744,5.033-5.487,3.533-3.844,7.071-7.683a.979.979,0,0,0,.275-.714c-.007-1.1-.015-2.2.009-3.305.009-.417-.121-.562-.55-.561q-22.194.013-44.389,0a.614.614,0,0,0-.681.465q-1.944,5.458-3.913,10.907l-1.631,4.536c-.121-.213-.194-.321-.248-.439q-1.854-4.07-3.7-8.142-1.575-3.471-3.138-6.947a.507.507,0,0,0-.485-.373q-2.446.005-4.893,0c-.249,0-.32.116-.225.334.129.3.268.588.4.881q3.316,7.132,6.633,14.265c1.089,2.345,2.2,4.68,3.246,7.043a1,1,0,0,0,1.092.7c1.16-.031,2.322-.017,3.482-.008a.572.572,0,0,0,.622-.429c.677-1.833,1.374-3.657,2.062-5.485q2.362-6.267,4.718-12.536a.617.617,0,0,1,.658-.5q16.64.016,33.28.011c.139,0,.326-.066.4.09s-.093.26-.185.363q-1.1,1.232-2.21,2.457-4.747,5.243-9.5,10.482a.946.946,0,0,0-.227.464,5.919,5.919,0,0,0,.007,1.274c0,1.043,0,2.086,0,3.13,0,.637.023.656.678.665.161,0,.323,0,.484,0q11.616,0,23.231,0c.66,0,1.32-.013,1.981-.042.442-.02.579-.159.576-.6-.016-2.454-.007-4.908,0-7.362,0-.718.022-.723.751-.723a42.85,42.85,0,0,0,6.684-.242,6.572,6.572,0,0,0,5.547-4.372,8.756,8.756,0,0,0,.308-4.308,6.312,6.312,0,0,0-4.629-5.232M420.7,28.2a18.313,18.313,0,0,1-3.378.21c-.793,0-1.586-.015-2.379.007-.381.011-.4-.212-.4-.48q0-2.138,0-4.276c0-.4.006-.793,0-1.189,0-.208.075-.353.3-.344a36.443,36.443,0,0,1,5.715.185A3.018,3.018,0,0,1,420.7,28.2" transform="translate(-343.076 -13.002)" fill="#eabf7b"/><path d="M405.21,32.4a9.7,9.7,0,0,0-10.265-2.148,8.884,8.884,0,0,0-6.183,8.362,8.257,8.257,0,0,0,2.747,6.27,9.643,9.643,0,0,0,9.226,2.392,9,9,0,0,0,7.124-9.184A8.244,8.244,0,0,0,405.21,32.4M398.4,43.2a4.54,4.54,0,0,1-4.586-4.569,4.473,4.473,0,1,1,8.945-.073A4.321,4.321,0,0,1,398.4,43.2" transform="translate(-365.388 -18.663)" fill="#eabf7b"/><path d="M545.369,13.445c-.588,0-1.176-.006-1.763,0s-.636.07-.633.631c0,.925.012,1.852.012,2.777q0,12.85,0,25.7c0,.55.043.6.606.6.47.005.94,0,1.41,0,.766,0,.767,0,.767-.746V14.945c0-.367-.008-.735,0-1.1.007-.281-.123-.4-.4-.4" transform="translate(-440.704 -10.756)" fill="#eabf7b"/><path d="M621.4,40.538c.819,0,.833-.007,1.054.761a.475.475,0,0,0,.531.4c.484-.009.97-.015,1.454,0,.367.011.485-.115.35-.473-.273-.729-.532-1.462-.8-2.194q-.74-2.051-1.478-4.1c-.1-.283-.231-.5-.579-.5-.558.007-1.116,0-1.674,0a.424.424,0,0,0-.447.341c-.131.4-.283.8-.427,1.2q-.891,2.464-1.784,4.928c-.033.091-.028.231-.15.249-.144.02-.188-.12-.241-.219-.152-.285-.291-.577-.444-.862a3.4,3.4,0,0,0-.868-1.308c-.361-.256-.251-.346.06-.514a2.086,2.086,0,0,0,.167-3.477,2.469,2.469,0,0,0-1.393-.336c-1.175-.013-2.35-.01-3.525-.01-.553,0-.6.048-.607.6-.021,1.351.114,2.7.042,4.14,0,.646.019,1.381-.008,2.114-.013.36.14.479.46.478.44,0,.881-.011,1.322,0,.351.008.507-.134.5-.5-.016-.631-.013-1.263,0-1.894,0-.2-.107-.486.2-.558.262-.062.437.127.577.326a3.774,3.774,0,0,1,.229.376c.317.6.641,1.189.939,1.795a.628.628,0,0,0,.622.39c1.174.016,2.348.035,3.521.079a.7.7,0,0,0,.838-.622c.152-.662.046-.744.856-.634a5.215,5.215,0,0,0,.7.012m-7.138-3.362a5.357,5.357,0,0,1-.639.149c-.679.085-.718.043-.711-.652.007-.721.077-.781.789-.671a4.545,4.545,0,0,1,.559.107.541.541,0,0,1,.394.566.455.455,0,0,1-.392.5m6.362,1.017c.1-.351.2-.7.3-1.053.035-.123.042-.3.207-.291s.15.195.185.315c.117.407.2.827.346,1.221.138.361.055.492-.322.457-.072-.007-.146,0-.219,0-.682,0-.682,0-.5-.648" transform="translate(-473.732 -21.006)" fill="#eabf7b"/><path d="M641.094,19.318c.455-.007.911-.007,1.366.008.307.01.416-.126.414-.421-.008-.91-.005-1.821,0-2.731,0-.153-.053-.32.06-.461.149.016.188.14.249.232.565.858,1.142,1.709,1.684,2.582a1.218,1.218,0,0,0,1.176.752c.276-.02.556.03.834.032.56.005.576-.011.577-.558q0-2.709,0-5.418c0-.338-.008-.676,0-1.013.009-.275-.074-.4-.382-.372a12.222,12.222,0,0,1-1.321.021c-.337-.009-.473.117-.467.464.015.924.007,1.85,0,2.775,0,.119.06.261-.075.367a.49.49,0,0,1-.1-.087,21.671,21.671,0,0,1-1.443-2.263,2,2,0,0,0-2.418-1.251.542.542,0,0,1-.132,0c-.3-.02-.414.124-.413.422q.009,3.26,0,6.519c0,.277.1.405.387.4" transform="translate(-488.436 -10.011)" fill="#eabf7b"/><path d="M687.769,41.7q.683-.008,1.366,0c.26,0,.369-.12.368-.377q0-3.238,0-6.476c0-.282-.124-.4-.395-.4-.455,0-.911.009-1.366,0-.306-.006-.409.139-.406.432.009.911.006,1.821,0,2.731,0,.138.051.29-.053.419-.143-.027-.181-.15-.241-.244-.62-.963-1.244-1.923-1.846-2.9a.8.8,0,0,0-.782-.451c-.4.023-.793.017-1.189.005-.329-.01-.476.1-.474.457q.015,3.194,0,6.388c0,.35.156.476.473.477.411,0,.823-.005,1.234.011.34.013.47-.127.464-.469-.014-.9-.008-1.792,0-2.687,0-.147-.069-.319.08-.447.153.07.211.212.29.332.6.906,1.191,1.816,1.788,2.724.165.25.342.481.688.477" transform="translate(-508.971 -21.006)" fill="#eabf7b"/><path d="M693.667,56.772c-1.348-.071-1.347-.045-1.242,1.3.061.766.011,1.54.011,2.321-.2-.032-.249-.192-.323-.3-.612-.933-1.223-1.867-1.814-2.813a.876.876,0,0,0-.855-.491,11.652,11.652,0,0,1-1.232-.013c-.273-.015-.379.111-.384.358-.007.307-.022.616-.006.923.1,1.862.039,3.725,0,5.586-.006.313.106.468.422.482.442.021.879-.033,1.318-.044.373-.009.482-.164.476-.51-.015-.866-.011-1.733-.007-2.6,0-.147-.053-.316.085-.44.043.026.077.034.091.056.515.786,1.019,1.579,1.543,2.359.886,1.318.473,1.185,2.2,1.183.561,0,.582-.031.582-.611,0-1.938-.006-3.877.005-5.815.005-.882.021-.882-.871-.929" transform="translate(-511.443 -31.908)" fill="#eabf7b"/><path d="M670.585,18.905c-.009.269.1.4.378.424a9.261,9.261,0,0,0,1.186-.041c.732-.025.772-.025.719-.772a1.92,1.92,0,0,1,.7-1.787c.327-.265.382-.288.564.087.334.687.675,1.37,1,2.062a.667.667,0,0,0,.6.433,10.006,10.006,0,0,0,1.8-.006c.151-.013.344.125.442-.062.086-.166-.079-.3-.157-.432-.706-1.2-1.408-2.409-2.133-3.6a.586.586,0,0,1,.1-.847,23.842,23.842,0,0,0,1.868-1.931c.079-.1.232-.178.149-.332-.066-.123-.21-.077-.322-.078-.646,0-1.293.007-1.939-.01a1,1,0,0,0-.9.437c-.522.68-1.092,1.325-1.667,2.014-.052-.1-.086-.14-.086-.177,0-.617-.021-1.235.016-1.849.021-.348-.1-.443-.419-.433-.411.014-.823.011-1.233,0-.668-.021-.693-.013-.678.658.048,2.082.076,4.163.008,6.245" transform="translate(-503.022 -10.05)" fill="#eabf7b"/><path d="M596.17,35.567c.031,1.9,0,3.808-.007,5.713,0,.315.1.477.414.483a16.931,16.931,0,0,0,3.9-.239,2.619,2.619,0,0,0,2.018-2,5.415,5.415,0,0,0-.03-2.956,2.7,2.7,0,0,0-2.766-2.13c-.469-.006-.938,0-1.408,0v-.007c-.352,0-.7,0-1.056,0-1.262.006-1.084-.148-1.062,1.137m2.311,2.56c0-.5-.006-1,0-1.5,0-.309.165-.432.483-.416a1.214,1.214,0,0,1,1.317,1.1,3.718,3.718,0,0,1,.068,1.613,1.283,1.283,0,0,1-1.7.956c-.2-.07-.205-.227-.206-.39,0-.455,0-.911,0-1.367h.035" transform="translate(-466.674 -21.004)" fill="#eabf7b"/><path d="M661.4,56.565a3.347,3.347,0,0,0-3.709,2.429,5.221,5.221,0,0,0-.07,2.352,3.3,3.3,0,0,0,3.581,2.712,3.222,3.222,0,0,0,3.428-2.712,5.428,5.428,0,0,0,.088-.653,3.9,3.9,0,0,0-1.095-3.3,3.435,3.435,0,0,0-2.223-.826m.954,4.683a1.073,1.073,0,0,1-1.019.936,1.165,1.165,0,0,1-1.35-.744,2.647,2.647,0,0,1,.135-2.416,1.136,1.136,0,0,1,2.015,0,2.271,2.271,0,0,1,.3,1.356,3.7,3.7,0,0,1-.077.873" transform="translate(-496.646 -31.812)" fill="#eabf7b"/><path d="M598.748,18.662a4.125,4.125,0,0,0,4.24.113,3.16,3.16,0,0,0,1.558-2.755c.181-2.192-.728-4.178-3.533-4.232a3.257,3.257,0,0,0-3.446,2.262,4.72,4.72,0,0,0,.176,3.357,2.569,2.569,0,0,0,1.005,1.255m1.1-4.237a1.125,1.125,0,0,1,1.1-.792,1.3,1.3,0,0,1,1.14.828,2.663,2.663,0,0,1,.17,1.122,3.088,3.088,0,0,1-.108.913,1.214,1.214,0,0,1-2.343.076,2.927,2.927,0,0,1,.039-2.148" transform="translate(-467.255 -9.948)" fill="#eabf7b"/><path d="M659.516,40.862a3.444,3.444,0,0,0,1.125-2.935c0-.176.006-.352,0-.528a3.136,3.136,0,0,0-2.259-3.035,4.247,4.247,0,0,0-1.173-.172,3.3,3.3,0,0,0-3.313,1.729,4.315,4.315,0,0,0-.414,2.444,3.161,3.161,0,0,0,1.878,2.961,3.885,3.885,0,0,0,4.159-.464M655.744,38.6a2.94,2.94,0,0,1,.274-1.927,1.064,1.064,0,0,1,1.037-.616,1.193,1.193,0,0,1,1.121.724,6.327,6.327,0,0,1,.231,1.413c-.016.148-.024.28-.046.41-.152.9-.421,1.19-1.121,1.2a1.387,1.387,0,0,1-1.5-1.206" transform="translate(-494.663 -20.888)" fill="#eabf7b"/><path d="M601.8,57.337c-1.633-1.386-5.57-1.179-5.986,2.213-.255,2.075.449,4.188,2.978,4.46a3.557,3.557,0,0,0,3.451-1.205,3.664,3.664,0,0,0,.694-2.495,3.464,3.464,0,0,0-1.136-2.973m-1.185,3.975a1.087,1.087,0,0,1-1.012.893,1.261,1.261,0,0,1-1.229-.528,2.7,2.7,0,0,1,.033-2.753,1.148,1.148,0,0,1,1.951.041,2.523,2.523,0,0,1,.338,1.4,3.96,3.96,0,0,1-.08.952" transform="translate(-466.487 -31.802)" fill="#eabf7b"/><path d="M627.082,19.264c1.614.1,3.23.072,4.844.014.768-.028.767-.073.771-.869a3.621,3.621,0,0,1,0-.4c.05-.432-.113-.609-.569-.59-.762.031-1.527.009-2.291.009-.88,0-.865,0-.857-.863,0-.342.145-.424.453-.417.7.014,1.41,0,2.116,0,.8,0,.8,0,.79-.774a2.223,2.223,0,0,1,0-.265c.039-.381-.125-.523-.509-.514-.793.018-1.587-.011-2.38.008-.386.009-.463-.17-.471-.509-.009-.371.166-.448.483-.441q.947.021,1.895.011c1.342-.013,1.139.183,1.155-1.176.007-.581-.016-.621-.586-.585-1.556.1-3.113.046-4.669.047-.424,0-.524.165-.518.549.018,1.043.006,2.086.006,3.128h-.016c0,1.072.009,2.145-.006,3.217,0,.275.056.393.356.411" transform="translate(-481.608 -10.004)" fill="#eabf7b"/><path d="M658.154,19.132a4.405,4.405,0,0,0,1.033.106,3.972,3.972,0,0,0,1.7-.285,2.328,2.328,0,0,0,1.489-2.28A2.008,2.008,0,0,0,660.84,14.7c-.672-.255-1.361-.462-2.041-.7-.16-.054-.3-.146-.3-.339a.373.373,0,0,1,.32-.371c.443-.106.867-.1,1.046.367a.658.658,0,0,0,.839.443,4.562,4.562,0,0,1,1.141-.063c.265.012.333-.1.294-.348a1.97,1.97,0,0,0-1.269-1.67,4.389,4.389,0,0,0-3.311.046,1.944,1.944,0,0,0-.482,3.347,3.112,3.112,0,0,0,.965.519c.568.2,1.141.382,1.7.606a.506.506,0,0,1,.367.585.627.627,0,0,1-.6.5,1,1,0,0,1-1.2-.782c-.067-.2-.15-.379-.384-.341-.509.082-1.026.017-1.534.129-.291.064-.346.214-.291.475a2.427,2.427,0,0,0,2.052,2.033" transform="translate(-495.946 -9.914)" fill="#eabf7b"/><path d="M635.363,59.5c-.15-.058-.3-.105-.458-.156-.544-.178-1.089-.35-1.631-.534a.36.36,0,0,1-.28-.4c.02-.194.174-.263.328-.316a.8.8,0,0,1,1.066.417.693.693,0,0,0,.821.408,9.864,9.864,0,0,1,1.052-.075c.3-.014.428-.129.361-.447a1.987,1.987,0,0,0-1.351-1.6,4.728,4.728,0,0,0-2.986-.017,2.013,2.013,0,0,0-1.446,2.161,2.105,2.105,0,0,0,1.548,1.745c.6.24,1.221.42,1.827.642a.514.514,0,0,1,.394.606.622.622,0,0,1-.593.5,1.027,1.027,0,0,1-1.208-.776c-.058-.172-.105-.366-.327-.355-.526.026-1.052.064-1.576.119-.273.029-.356.206-.3.476a2.473,2.473,0,0,0,2,2.038,4.3,4.3,0,0,0,1.063.117,3.855,3.855,0,0,0,1.87-.36,2.279,2.279,0,0,0,1.336-2.328,2.072,2.072,0,0,0-1.5-1.869" transform="translate(-483.493 -31.809)" fill="#eabf7b"/><path d="M587.725,39.912c-.926-.031-1.85.027-2.772.07-.1,0-.227.038-.284-.065-.078-.14.067-.208.139-.288.92-1.007,1.815-2.043,2.781-3a1.87,1.87,0,0,0,.619-1.593c-.045-.577-.031-.6-.6-.6-1.44,0-2.88-.007-4.319,0-1.287.01-1.111-.191-1.141,1.157-.008.409.16.555.548.538q1.077-.045,2.157-.063c.136,0,.328-.074.4.086s-.092.263-.188.367c-.868.937-1.711,1.9-2.62,2.8a2.236,2.236,0,0,0-.774,1.994c.039.3.128.393.418.418,1.042.093,2.085,0,2.866.04h2.331c1.268,0,1.164.148,1.15-1.15-.008-.643-.058-.682-.714-.7" transform="translate(-459.594 -21.003)" fill="#eabf7b"/><path d="M685.661,19.306a16.1,16.1,0,0,0,1.625.052.524.524,0,0,0,.512-.4c.3-.908.3-.906,1.255-.9.177,0,.353,0,.529,0,.747.009.761.006.916.738a.555.555,0,0,0,.589.511c.529.04,1.054-.011,1.58,0,.308.008.353-.079.251-.356-.719-1.955-1.426-3.915-2.138-5.873-.446-1.228-.113-1.043-1.516-1.054-1.566.016-1.185-.165-1.683,1.208l-.062.165q-1.013,2.769-2.026,5.538c-.069.187-.12.362.17.365m2.924-3.14a7.836,7.836,0,0,1,.558-1.732l.13-.006a10.473,10.473,0,0,1,.468,1.752c.047.47-.429.216-.666.243-.181.021-.58.142-.491-.256" transform="translate(-510.282 -10.064)" fill="#eabf7b"/><path d="M709.5,63.617q-1.027-2.861-2.064-5.718c-.39-1.075-.394-1.073-1.556-1.074a6.177,6.177,0,0,1-.66,0,.661.661,0,0,0-.793.559c-.249.814-.557,1.61-.847,2.41q-.7,1.946-1.42,3.889c-.118.32-.064.462.32.438.5-.032,1-.025,1.493-.008.269.009.419-.08.465-.346.027-.159.076-.314.1-.473a.44.44,0,0,1,.507-.425c.381.011.763,0,1.145,0,.94,0,.761-.033.94.735a.586.586,0,0,0,.581.531,13.545,13.545,0,0,0,1.45-.03c.5,0,.511,0,.338-.485m-3.074-2.478a1.505,1.505,0,0,1-1.014.065c-.274-.033-.2-.279-.13-.458a10.623,10.623,0,0,1,.553-1.6,11.193,11.193,0,0,1,.6,1.865c.011.039.016.112,0,.123" transform="translate(-518.42 -31.938)" fill="#eabf7b"/><path d="M586.635,56.837c-1.115-.018-2.23.008-3.344-.01-.4-.007-.5.159-.495.526.017,1.041.006,2.083.006,3.124,0,1.086.008,2.171,0,3.257,0,.323.121.45.439.442.455-.011.911-.017,1.364.006.382.019.479-.156.465-.5-.024-.6-.007-1.2-.022-1.8-.008-.3.115-.428.416-.417a7.174,7.174,0,0,0,1.446-.092,2.181,2.181,0,0,0,1.84-2.574,1.96,1.96,0,0,0-2.111-1.953m-1.053,2.93c-.546.034-.5-.289-.464-.643.03-.3-.132-.709.445-.682s.95.267.938.685-.317.6-.919.64" transform="translate(-460.153 -31.945)" fill="#eabf7b"/><path d="M584.126,18.916a.559.559,0,0,0,.508.407c.488.068.966-.083,1.449-.037.411.039.609-.165.735-.534.339-1,.7-1.995,1.056-2.988.39-1.075.8-2.144,1.187-3.221.168-.466.127-.516-.348-.525-.455-.008-.911.008-1.365-.01a.488.488,0,0,0-.559.425c-.262.962-.544,1.919-.824,2.876-.143.489-.3.975-.481,1.581a2.226,2.226,0,0,1-.146-.271c-.4-1.351-.815-2.7-1.181-4.056-.114-.423-.3-.58-.731-.554A11.928,11.928,0,0,1,582.149,12c-.45-.019-.5.027-.348.455.772,2.154,1.555,4.305,2.325,6.461" transform="translate(-459.629 -10.05)" fill="#eabf7b"/><path d="M679.371,56.827c-.47-.008-.941.012-1.411-.006a.513.513,0,0,0-.589.449c-.279,1.02-.588,2.031-.885,3.046-.119.4-.235.808-.364,1.25a.483.483,0,0,1-.259-.377c-.379-1.3-.831-2.572-1.134-3.891a.52.52,0,0,0-.608-.48c-.439.023-.881.009-1.321.006-.581,0-.589,0-.384.562.686,1.891,1.383,3.779,2.066,5.672.413,1.144.425,1.16,1.662,1.068a.349.349,0,0,1,.087-.01c.822.151,1.1-.28,1.342-1.015.641-1.953,1.308-3.9,2.105-5.8.165-.392.109-.472-.31-.478" transform="translate(-503.863 -31.94)" fill="#eabf7b"/><path d="M642.8,41.7a.581.581,0,0,0,.67-.474c.275-.852.584-1.693.893-2.535.461-1.254.937-2.5,1.4-3.757.164-.449.118-.5-.368-.51-.441-.005-.883.013-1.323,0a.543.543,0,0,0-.617.478c-.36,1.3-.744,2.6-1.123,3.894-.039.135-.039.292-.177.383-.151-.068-.152-.217-.187-.335-.387-1.31-.782-2.617-1.141-3.935a.548.548,0,0,0-.645-.488c-.469.025-.94.014-1.41.008-.327,0-.422.127-.309.437q1.183,3.226,2.357,6.456a.5.5,0,0,0,.528.374c.484,0,.97-.018,1.454.006" transform="translate(-487.314 -21)" fill="#eabf7b"/><path d="M649.83,56.809c-.939.017-1.878.006-2.817.006v.008c-.968,0-1.936.006-2.9,0-.314,0-.464.126-.46.441,0,.382,0,.763,0,1.144,0,.18.05.323.266.327.366.007.733.039,1.1.014.709-.049.828.03.828.76,0,1.392-.02,2.783-.042,4.175,0,.282.077.429.388.458.444.042.878-.046,1.317-.044.593,0,.592,0,.593-.577,0-1.423.015-2.847,0-4.269,0-.408.151-.555.546-.532s.792,0,1.187.019c.278.01.406-.088.394-.382a10.145,10.145,0,0,1,0-1.144c.023-.315-.088-.408-.4-.4" transform="translate(-489.872 -31.935)" fill="#eabf7b"/><path d="M670.665,36.822c-.024,1.5-.015,2.995-.035,4.492,0,.306.118.44.4.444.426.006.851.008,1.278,0,.542-.011.6-.069.6-.622,0-1.424.015-2.848-.007-4.272-.007-.432.147-.576.562-.546.38.027.763-.006,1.145.007.305.011.425-.123.415-.42-.01-.322-.017-.647.005-.968.027-.385-.135-.521-.513-.514-.925.016-1.85.005-2.774.005s-1.88.007-2.819,0c-.336,0-.484.13-.468.472s.009.7.005,1.056c0,.259.117.373.375.369.44-.005.882.018,1.321,0,.379-.02.518.116.512.5" transform="translate(-501.986 -21.002)" fill="#eabf7b"/><path d="M613.3,18.273a2.826,2.826,0,0,0,2.969,1.064,2.4,2.4,0,0,0,2.167-2.473c.063-.865.069-1.729.088-2.594,0-.616-.016-1.233.006-1.848.012-.334-.1-.442-.432-.422a8.356,8.356,0,0,1-1.275,0c-.434-.041-.573.12-.565.541.019,1.042.01,2.084.006,3.125a5.962,5.962,0,0,1-.154,1.352.525.525,0,0,1-.5.471c-.3.016-.4-.2-.473-.433-.046-.139-.083-.281-.122-.422a.25.25,0,0,0-.327-.2c-.5.093-1.01.178-1.516.262-.255.042-.348.175-.287.433a3.59,3.59,0,0,0,.419,1.151" transform="translate(-474.837 -10.048)" fill="#eabf7b"/><path d="M616.046,56.818q-.771.021-1.542.008c-.3,0-.421.121-.416.421.011.675,0,1.351,0,2.026h-.008c0,.719.019,1.439-.006,2.157-.017.5-.289.865-.6.856-.469-.014-.492-.391-.538-.724-.039-.284-.172-.369-.451-.309-.43.093-.863.178-1.3.229-.4.047-.484.239-.406.6a2.3,2.3,0,0,0,2.194,2.06c1.707.247,3.18-.445,3.328-2.408.115-1.522-.032-3.052.091-4.576.018-.225-.095-.348-.347-.341" transform="translate(-473.808 -31.94)" fill="#eabf7b"/><path d="M626.068,56.815c-.468.023-.939.026-1.407,0-.385-.017-.513.136-.506.515.019,1.041.006,2.082.006,3.123,0,1.071.013,2.141-.007,3.211-.007.391.141.521.515.5.439-.02.88-.014,1.32,0,.378.014.492-.174.468-.516s-.053-.7-.049-1.052c.019-1.788-.064-3.577.056-5.364.018-.279-.067-.443-.4-.427" transform="translate(-480.352 -31.939)" fill="#eabf7b"/><path d="M700.7,41.3q-.007-3.235,0-6.47c0-.314-.156-.411-.436-.408-.425.005-.852.015-1.276,0-.4-.014-.545.151-.539.549.018,1.042.006,2.083.006,3.125h0c0,1.056.008,2.113,0,3.169,0,.339.136.483.463.492.47.012.938-.012,1.406-.045.282-.019.383-.142.383-.413" transform="translate(-516.634 -21.002)" fill="#eabf7b"/><path d="M648.795,53.572c-.14.21-.331.2-.455-.01a.71.71,0,0,0-.768-.36c-.116,0-.175-.006-.233,0-.139.017-.323-.063-.4.092-.088.173.082.291.172.417.187.262.371.527.571.778a1.576,1.576,0,0,0,1.7.162,10.293,10.293,0,0,0,.828-1.131c.106-.154.067-.3-.141-.3-.457-.011-.948-.136-1.275.355" transform="translate(-491.467 -30.17)" fill="#eabf7b"/><path d="M635.432,53.557c-.193.28-.372.2-.518-.007a.8.8,0,0,0-.818-.376c-.114,0-.173-.006-.231,0-.126.013-.284-.051-.363.087s.05.247.121.351c.165.242.34.477.511.716a1.121,1.121,0,0,0,1.073.468,2.717,2.717,0,0,0,1.653-1.411.142.142,0,0,0-.1-.2,1.34,1.34,0,0,0-1.325.369" transform="translate(-484.906 -30.142)" fill="#eabf7b"/><path d="M699.136,32.306c1.131.1,1.64-.775,2.28-1.436.109-.112.1-.259-.117-.258-.453,0-.906.01-1.359.019a.392.392,0,0,0-.361.214c-.2.422-.392.849-.579,1.277-.058.134-.033.236.137.184" transform="translate(-516.891 -19.142)" fill="#eabf7b"/><path d="M691.4,9.871a1.192,1.192,0,0,0,1.094-.316c.181-.192.384-.364.561-.559s.562-.388.465-.638c-.117-.3-.525-.082-.8-.159-.329.07-.741-.152-.973.231a11.325,11.325,0,0,0-.537,1.106c-.087.189-.034.31.189.335" transform="translate(-513.081 -8.193)" fill="#eabf7b"/></svg>