<svg xmlns="http://www.w3.org/2000/svg" width="150.334" height="31.059" viewBox="0 0 150.334 31.059"><path d="M212.892,57.6c-.11.266-.22.559-.34.862-.127-.394-.182-.55-.32-.89l-.559-1.356H207.95l-1.41,2.951,1.6,3.438h2.162l-2-3.465,1.536-2.676,1.839,3.474V62.6h1.676V59.9l2.045-3.686h-1.953Z" transform="translate(-92.5 -31.653)" fill="#eabf7b"/><path d="M160.37,56.212h-2.079V62.6h1.639V60.327h.515c2.091,0,2.5-1.18,2.5-2.125,0-1.458-.953-1.989-2.576-1.989m.037,2.815h-.478V57.559h.57c.394,0,.659.1.659.633,0,.7-.237.835-.751.835" transform="translate(-70.891 -31.653)" fill="#eabf7b"/><path d="M89.668,61.275a1.041,1.041,0,0,1-.815-.4c-.267-.313-.314-.817-.314-1.871a1.724,1.724,0,0,1,.414-1.4.969.969,0,0,1,.714-.249,1.542,1.542,0,0,1,.954.34l.7-1.21a2.62,2.62,0,0,0-1.632-.467A2.753,2.753,0,0,0,87.1,57.462a3.966,3.966,0,0,0-.44,1.98,3.425,3.425,0,0,0,.732,2.3,2.693,2.693,0,0,0,2.09.88,2.846,2.846,0,0,0,1.989-.65l-.705-1.119a1.509,1.509,0,0,1-1.1.421" transform="translate(-38.812 -31.563)" fill="#eabf7b"/><path d="M90.509,52.9l-1.274-.642-.513.851L90.454,54.2l1.751-1.092-.458-.851Z" transform="translate(-39.734 -29.883)" fill="#eabf7b"/><path d="M151.246,59.933h1.6v-1.3h-1.6V57.56H153.2l.12-1.347h-3.712V62.6h3.831V61.236h-2.192Z" transform="translate(-67.002 -31.653)" fill="#eabf7b"/><path d="M130.053,52.528l-2,1.108.5.806,2.117-.88Z" transform="translate(-57.35 -30.003)" fill="#eabf7b"/><path d="M142.485,59.823a1.607,1.607,0,0,0,1.329-1.787c0-1.063-.606-1.824-2.485-1.824h-2.2V62.6h1.64v-2.53c.357,0,.5.082.751.743l.671,1.787h1.9c-.211-.477-.751-1.659-.962-2.091a1.32,1.32,0,0,0-.641-.687m-1.248-.962h-.468v-1.3h.458c.514,0,.762.146.762.6,0,.432-.192.7-.753.7" transform="translate(-62.31 -31.653)" fill="#eabf7b"/><path d="M128.35,59.933h1.6v-1.3h-1.6V57.56H130.3l.119-1.347h-3.712V62.6h3.831V61.236H128.35Z" transform="translate(-56.748 -31.653)" fill="#eabf7b"/><path d="M107.954,58.516l-.65-.166c-.477-.118-.624-.33-.624-.541,0-.257.229-.459.651-.459a2.819,2.819,0,0,1,1.438.45l.788-1.163a4.072,4.072,0,0,0-2.282-.623A2.212,2.212,0,0,0,104.8,58.12a1.783,1.783,0,0,0,1.558,1.853l.753.192c.44.11.641.239.641.524,0,.348-.256.586-.9.586a3.819,3.819,0,0,1-1.8-.514l-.576,1.284a4.9,4.9,0,0,0,2.355.577c1.659,0,2.8-.807,2.8-2.337,0-1.283-.989-1.6-1.677-1.77" transform="translate(-46.792 -31.563)" fill="#eabf7b"/><rect width="1.677" height="6.389" transform="translate(109.374 24.56)" fill="#eabf7b"/><path d="M182.811,59.192a1.375,1.375,0,0,0,.943-1.413c0-1.172-.75-1.566-1.676-1.566h-2.831V62.6h2.593a1.874,1.874,0,0,0,2.144-1.97,1.488,1.488,0,0,0-1.173-1.439m-1.926-1.632h.633c.385,0,.551.174.551.5s-.137.607-.532.607h-.652Zm.624,3.676h-.624V59.97h.6c.506,0,.607.285.607.606,0,.394-.175.66-.588.66" transform="translate(-80.275 -31.653)" fill="#eabf7b"/><rect width="1.64" height="6.389" transform="translate(63.895 24.56)" fill="#eabf7b"/><path d="M98.182,59.933h1.6v-1.3h-1.6V57.56h1.953l.118-1.347H96.543V62.6h3.831V61.236H98.182Z" transform="translate(-43.237 -31.653)" fill="#eabf7b"/><rect width="1.64" height="6.389" transform="translate(112.381 24.56)" fill="#eabf7b"/><path d="M122.169,56.212h-2.034l-1.412,2.951,1.6,3.438h2.163l-2-3.465Z" transform="translate(-53.17 -31.653)" fill="#eabf7b"/><path d="M171.383,60.411c0,.623-.166.953-.753.953s-.762-.393-.762-.98V56.212H168.22v4.345c0,.853.064,1.017.312,1.357a2.4,2.4,0,0,0,2.089.8,2.354,2.354,0,0,0,2.245-1.026,2.182,2.182,0,0,0,.156-1.053v-4.42h-1.64Z" transform="translate(-75.338 -31.653)" fill="#eabf7b"/><path d="M191.4,56.212h-1.658V62.6h3.519l.311-1.355H191.4Z" transform="translate(-84.976 -31.653)" fill="#eabf7b"/><path d="M265.719,36.081h-1.7l-2.054,6.388h1.723l.348-1.229h1.513l.331,1.229h1.777Zm-1.33,3.9.257-1.046a7.7,7.7,0,0,0,.176-.98,4.975,4.975,0,0,0,.119.862l.275,1.163Z" transform="translate(-117.319 -22.638)" fill="#eabf7b"/><path d="M86.495,41.351v1.118H90.86l.129-1.364H89.154a3.664,3.664,0,0,0-.7.055,1.723,1.723,0,0,0,.294-.339l2.2-3.6V36.08H86.807l-.12,1.347h1.661a3.15,3.15,0,0,0,.631-.046,3.309,3.309,0,0,0-.367.541Z" transform="translate(-38.737 -22.637)" fill="#eabf7b"/><path d="M212.749,41.143a3.821,3.821,0,0,1-1.8-.513l-.576,1.283a4.884,4.884,0,0,0,2.355.578c1.659,0,2.8-.807,2.8-2.336,0-1.285-.99-1.6-1.678-1.771l-.65-.166c-.478-.118-.624-.33-.624-.541,0-.257.229-.459.652-.459a2.8,2.8,0,0,1,1.437.451l.788-1.163a4.072,4.072,0,0,0-2.282-.623A2.212,2.212,0,0,0,210.7,37.99a1.781,1.781,0,0,0,1.558,1.852l.753.193c.439.11.642.239.642.522,0,.35-.257.587-.9.587" transform="translate(-94.217 -22.548)" fill="#eabf7b"/><path d="M215.3,32.715l-.5-.851-1.237.641-1.275-.641-.466.851,1.768,1.238Z" transform="translate(-94.864 -20.749)" fill="#eabf7b"/><path d="M225.38,32.98l-.458-.851-1.239.641-1.273-.641-.514.851,1.733,1.092Z" transform="translate(-99.376 -20.867)" fill="#eabf7b"/><rect width="1.677" height="6.389" transform="translate(113.426 13.444)" fill="#eabf7b"/><path d="M108.742,39.939c.358,0,.5.082.754.742l.669,1.788h1.9c-.211-.477-.753-1.659-.962-2.09a1.326,1.326,0,0,0-.641-.687,1.605,1.605,0,0,0,1.327-1.787c0-1.063-.6-1.824-2.482-1.824h-2.2v6.389h1.639Zm0-2.512h.459c.513,0,.761.146.761.606,0,.432-.193.7-.752.7h-.469Z" transform="translate(-47.966 -22.637)" fill="#eabf7b"/><path d="M243.589,38.665a8.334,8.334,0,0,0-.339,1.247h-.009a8.318,8.318,0,0,0-.3-1.2l-.807-2.632h-1.807l2.174,6.389h1.476l2.255-6.389H244.5Z" transform="translate(-107.63 -22.637)" fill="#eabf7b"/><path d="M255.317,38.06a13.884,13.884,0,0,0,.056,1.431,9.476,9.476,0,0,0-.532-1.219l-1.167-2.192H252.1v6.388h1.558v-1.8a12.247,12.247,0,0,0-.092-1.623,9.7,9.7,0,0,0,.5,1.2l1.128,2.217h1.686V36.08h-1.559Z" transform="translate(-112.903 -22.637)" fill="#eabf7b"/><rect width="1.677" height="6.389" transform="translate(93.284 13.444)" fill="#eabf7b"/><path d="M170.151,32.4l-2,1.108.5.806,2.117-.88Z" transform="translate(-75.308 -20.987)" fill="#eabf7b"/><path d="M159.366,40.673a12.053,12.053,0,0,0-.092-1.623,9.8,9.8,0,0,0,.5,1.2l1.128,2.218h1.687V36.08h-1.559v1.98a13.869,13.869,0,0,0,.056,1.431,9.707,9.707,0,0,0-.532-1.219l-1.167-2.192h-1.576v6.389h1.558Z" transform="translate(-70.674 -22.637)" fill="#eabf7b"/><path d="M148,37.436h1.485v5.033h1.658V37.436h1.486l.193-1.356H148Z" transform="translate(-66.281 -22.636)" fill="#eabf7b"/><path d="M179.772,40.2h.513c2.089,0,2.5-1.182,2.5-2.127,0-1.457-.953-1.988-2.576-1.988h-2.08v6.389h1.64Zm0-2.768h.568c.4,0,.663.1.663.633,0,.7-.239.835-.755.835h-.475Z" transform="translate(-79.776 -22.637)" fill="#eabf7b"/><path d="M190.577,35.882c-1.686,0-2.933,1.19-2.933,3.465,0,1.917,1.026,3.144,2.879,3.144,2.283,0,2.86-1.713,2.86-3.548,0-1.4-.633-3.061-2.805-3.061m-.026,5.317c-.68,0-1.074-.4-1.074-2.035,0-1.22.313-2,1.055-2,.706,0,1.019.385,1.019,1.981,0,1.641-.3,2.053-1,2.053" transform="translate(-84.037 -22.548)" fill="#eabf7b"/><path d="M199.3,41.341c0,1.155-.054,1.522-.843,2.062l.753.808a2.418,2.418,0,0,0,1.768-2.173V36.08H199.3Z" transform="translate(-88.878 -22.637)" fill="#eabf7b"/><path d="M220.785,37.436h1.486v5.033h1.658V37.436h1.485l.193-1.356h-4.821Z" transform="translate(-98.879 -22.636)" fill="#eabf7b"/><path d="M100.236,36.474a2.564,2.564,0,0,0-1.523-.394H96.46v6.388h2.318a2.1,2.1,0,0,0,1.779-.769,3.754,3.754,0,0,0,.724-2.54,3.01,3.01,0,0,0-1.045-2.685M98.65,41.1H98.1V37.427h.5c.5,0,.872.192.872,1.678,0,1.77-.366,2-.825,2" transform="translate(-43.2 -22.637)" fill="#eabf7b"/><path d="M142.593,38.943c0-1.4-.633-3.06-2.8-3.06-1.687,0-2.933,1.189-2.933,3.465,0,1.917,1.027,3.143,2.879,3.143,2.281,0,2.858-1.713,2.858-3.548m-3.906.221c0-1.22.312-2,1.057-2,.7,0,1.015.385,1.015,1.981,0,1.642-.3,2.053-1,2.053-.679,0-1.074-.4-1.074-2.035" transform="translate(-61.291 -22.548)" fill="#eabf7b"/><path d="M118.436,36.081l-2.055,6.388h1.724l.349-1.229h1.512l.33,1.229h1.778l-1.934-6.388Zm.376,3.9.256-1.046a7.557,7.557,0,0,0,.175-.98,4.936,4.936,0,0,0,.12.862l.274,1.163Z" transform="translate(-52.121 -22.638)" fill="#eabf7b"/><path d="M129.176,38.665a8.391,8.391,0,0,0-.339,1.247h-.009a8.321,8.321,0,0,0-.3-1.2l-.806-2.632h-1.807l2.173,6.389h1.475l2.257-6.389h-1.734Z" transform="translate(-56.391 -22.637)" fill="#eabf7b"/><path d="M232.618,35.882c-1.687,0-2.933,1.19-2.933,3.465,0,1.917,1.025,3.144,2.878,3.144,2.283,0,2.86-1.713,2.86-3.548,0-1.4-.633-3.061-2.8-3.061m-.027,5.317c-.68,0-1.074-.4-1.074-2.035,0-1.22.313-2,1.055-2,.706,0,1.019.385,1.019,1.981,0,1.641-.3,2.053-1,2.053" transform="translate(-102.865 -22.548)" fill="#eabf7b"/><path d="M149.507,22.359a2.856,2.856,0,0,0,1.991-.65l-.706-1.12a1.5,1.5,0,0,1-1.1.422,1.043,1.043,0,0,1-.817-.4c-.265-.312-.311-.816-.311-1.871a1.726,1.726,0,0,1,.412-1.4.974.974,0,0,1,.716-.249,1.526,1.526,0,0,1,.952.34l.7-1.21a2.612,2.612,0,0,0-1.631-.466,2.75,2.75,0,0,0-2.585,1.447,3.943,3.943,0,0,0-.439,1.98,3.42,3.42,0,0,0,.732,2.3,2.683,2.683,0,0,0,2.089.88" transform="translate(-65.693 -13.532)" fill="#eabf7b"/><path d="M89.013,18.533a8.2,8.2,0,0,0-.339,1.247h-.009a8.448,8.448,0,0,0-.3-1.2l-.806-2.632H85.749l2.173,6.389H89.4l2.255-6.389H89.921Z" transform="translate(-38.403 -13.62)" fill="#eabf7b"/><path d="M101.952,12.583l-.5-.851-1.238.641-1.274-.641-.468.851,1.77,1.237Z" transform="translate(-44.099 -11.732)" fill="#eabf7b"/><path d="M172.2,13.3l-.624-1.035-2,1.11.5.805Z" transform="translate(-75.948 -11.969)" fill="#eabf7b"/><path d="M168.81,15.948l-2.053,6.388h1.723l.349-1.229h1.513l.33,1.229h1.778l-1.934-6.388Zm.376,3.9.258-1.045a9.407,9.407,0,0,0,.173-.963,4.585,4.585,0,0,0,.12.845l.273,1.163Z" transform="translate(-74.682 -13.62)" fill="#eabf7b"/><path d="M118.913,22.359c2.282,0,2.86-1.713,2.86-3.548,0-1.4-.633-3.061-2.8-3.061-1.687,0-2.934,1.19-2.934,3.465,0,1.916,1.025,3.144,2.878,3.144m.009-5.328c.706,0,1.018.385,1.018,1.982,0,1.641-.3,2.053-1,2.053-.68,0-1.074-.4-1.074-2.035,0-1.22.314-2,1.056-2" transform="translate(-51.967 -13.531)" fill="#eabf7b"/><path d="M112.013,20.973h-2.191v-1.3h1.6v-1.3h-1.6V17.294h1.952l.12-1.346h-3.712v6.388h3.831Z" transform="translate(-48.45 -13.621)" fill="#eabf7b"/><path d="M99.4,21.011a3.834,3.834,0,0,1-1.8-.513l-.576,1.283a4.885,4.885,0,0,0,2.355.578c1.66,0,2.8-.807,2.8-2.337,0-1.284-.99-1.6-1.677-1.77l-.651-.166c-.478-.119-.624-.33-.624-.541,0-.257.23-.459.652-.459a2.806,2.806,0,0,1,1.438.451l.787-1.163a4.071,4.071,0,0,0-2.281-.623,2.213,2.213,0,0,0-2.476,2.108A1.783,1.783,0,0,0,98.9,19.709l.751.193c.439.109.642.239.642.522,0,.348-.257.587-.9.587" transform="translate(-43.452 -13.531)" fill="#eabf7b"/><path d="M142.662,20.973H140.47v-1.3h1.6v-1.3h-1.6V17.294h1.953l.119-1.346H138.83v6.388h3.832Z" transform="translate(-62.176 -13.621)" fill="#eabf7b"/><path d="M158.37,20.541a12.024,12.024,0,0,0-.092-1.623,10.064,10.064,0,0,0,.5,1.2l1.129,2.218h1.685V15.948h-1.556v1.98a13.847,13.847,0,0,0,.056,1.43,9.536,9.536,0,0,0-.534-1.219l-1.164-2.191h-1.576v6.389h1.557Z" transform="translate(-70.229 -13.62)" fill="#eabf7b"/><path d="M133.078,20.366a1.489,1.489,0,0,0-1.174-1.439,1.377,1.377,0,0,0,.944-1.413c0-1.173-.751-1.566-1.676-1.566h-2.833v6.388h2.594a1.874,1.874,0,0,0,2.145-1.97m-3.1-3.073h.634c.385,0,.551.176.551.5s-.139.606-.533.606h-.652Zm0,3.679V19.705h.606c.5,0,.607.285.607.606,0,.394-.176.661-.589.661Z" transform="translate(-57.477 -13.62)" fill="#eabf7b"/><path d="M35.195,50.782h-5.42l-2.666,4.707,2.565,4.79h5.436l-2.548-4.74Z" transform="translate(-12.141 -29.221)" fill="#eabf7b"/><path d="M30.238,38.849l-2.175,3.739h8.886l-11.2-18.451L11.6,48.346h4.45l9.735-16.751Z" transform="translate(-5.195 -17.287)" fill="#eabf7b"/><path d="M25.177,17.308a5,5,0,0,0-4.62-2.617,5.178,5.178,0,0,0-4.842,2.922C15.307,18.226,0,44.1,0,44.1l4.366.017S18.195,20.7,19.061,19.362a1.635,1.635,0,0,1,2.771-.186c.424.713,10.617,17.294,11.5,18.722a1.684,1.684,0,0,1-.052,1.631,1.527,1.527,0,0,1-1.392.816H22.834l2.209,3.771h7.237a5.815,5.815,0,0,0,4.367-2.327c1.936-2.481.169-5.505-.17-6.015-.357-.526-11.009-18.076-11.3-18.467" transform="translate(0 -13.057)" fill="#eabf7b"/></svg>