<svg xmlns="http://www.w3.org/2000/svg" width="108.724" height="42.006" viewBox="0 0 108.724 42.006"><path d="M1661.37,11.031a.969.969,0,0,0-.1.457c0,.536.378.8,1.13.8h3.233q1.139,0,1.14-.746t-1.14-.741h-2.276L1666.162,7a4.608,4.608,0,0,0,.363-.544.9.9,0,0,0,.108-.435.632.632,0,0,0-.342-.6,2.247,2.247,0,0,0-1.041-.187h-2.731c-.765,0-1.145.243-1.145.731a.607.607,0,0,0,.278.552,1.687,1.687,0,0,0,.867.174h2.076l-2.882,3.822a4.19,4.19,0,0,0-.342.518" transform="translate(-1617.661 -2.476)" fill="#eabf7b" fill-rule="evenodd"/><path d="M1673.028,12.2a1.844,1.844,0,0,0,.662.094h1.469a3.9,3.9,0,0,0,1.443-.25,3.009,3.009,0,0,0,1.085-.727,3.15,3.15,0,0,0,.685-1.14,4.45,4.45,0,0,0,.233-1.486,3.994,3.994,0,0,0-.106-.932,3.63,3.63,0,0,0-.3-.814,3.319,3.319,0,0,0-.467-.685,2.907,2.907,0,0,0-.625-.531,3.915,3.915,0,0,0-2.1-.495h-1.294a1.6,1.6,0,0,0-.682.119.643.643,0,0,0-.336.36,1.887,1.887,0,0,0-.093.65v4.916a1.532,1.532,0,0,0,.1.61.592.592,0,0,0,.331.308m1.181-5.466h.7a1.722,1.722,0,0,1,1.947,1.949q0,2.125-1.919,2.124h-.731Z" transform="translate(-1623.021 -2.476)" fill="#eabf7b" fill-rule="evenodd"/><path d="M1690.777,7.439a2.007,2.007,0,0,0-.7-1.6,2.96,2.96,0,0,0-1.987-.6h-1.251a1.6,1.6,0,0,0-.682.119.644.644,0,0,0-.335.36,1.884,1.884,0,0,0-.093.65v4.875a1.519,1.519,0,0,0,.2.862.694.694,0,0,0,.609.278q.8,0,.8-1.14V9.5l1.874,2.351a2.329,2.329,0,0,0,.445.438.708.708,0,0,0,.419.139.741.741,0,0,0,.547-.218.731.731,0,0,0,.219-.538,1.5,1.5,0,0,0-.48-.922l-1.27-1.409a2.077,2.077,0,0,0,1.243-.646,1.833,1.833,0,0,0,.444-1.26m-1.942.759a1.116,1.116,0,0,1-.758.23h-.741V6.712h.761a1.328,1.328,0,0,1,.549.1.733.733,0,0,1,.34.291.859.859,0,0,1,.114.45.808.808,0,0,1-.265.643" transform="translate(-1629.232 -2.476)" fill="#eabf7b" fill-rule="evenodd"/><path d="M1696.162,12.2a.809.809,0,0,0,.392.094q.538,0,.77-.711l.242-.71h2.609l.2.652a1.337,1.337,0,0,0,.329.588.724.724,0,0,0,.515.195.805.805,0,0,0,.564-.21.7.7,0,0,0,.23-.546,1.639,1.639,0,0,0-.106-.51l-1.79-5.069a1.482,1.482,0,0,0-.465-.7,1.123,1.123,0,0,0-.716-.24,1.1,1.1,0,0,0-.74.257,1.867,1.867,0,0,0-.493.786l-1.836,4.988a1.253,1.253,0,0,0-.078.465.783.783,0,0,0,.1.4.668.668,0,0,0,.275.27m2.733-5.431.814,2.617h-1.686Z" transform="translate(-1633.991 -2.386)" fill="#eabf7b" fill-rule="evenodd"/><path d="M1709.752,12.116a.633.633,0,0,0,.24.192.793.793,0,0,0,.331.063.732.732,0,0,0,.485-.155,1.223,1.223,0,0,0,.33-.513l2.085-5.3a1.505,1.505,0,0,0,.106-.558.711.711,0,0,0-.21-.542.8.8,0,0,0-.571-.2.643.643,0,0,0-.477.17,1.519,1.519,0,0,0-.318.581l-1.381,3.951L1708.883,5.8a1.372,1.372,0,0,0-.3-.531.612.612,0,0,0-.436-.162.822.822,0,0,0-.6.228.758.758,0,0,0-.238.571,1.207,1.207,0,0,0,.093.462l2.152,5.4a1.484,1.484,0,0,0,.194.351" transform="translate(-1639.443 -2.414)" fill="#eabf7b" fill-rule="evenodd"/><path d="M1720.988,12.052a3.592,3.592,0,0,0,1.415.269,3.657,3.657,0,0,0,1.414-.266,3.141,3.141,0,0,0,1.1-.765,3.422,3.422,0,0,0,.709-1.184,4.469,4.469,0,0,0,.247-1.517,4.451,4.451,0,0,0-.25-1.527,3.33,3.33,0,0,0-.716-1.185,3.188,3.188,0,0,0-1.1-.756,3.847,3.847,0,0,0-2.8,0,3.089,3.089,0,0,0-1.1.761,3.415,3.415,0,0,0-.711,1.184,4.391,4.391,0,0,0-.25,1.522,4.486,4.486,0,0,0,.246,1.516,3.423,3.423,0,0,0,.7,1.184,3.137,3.137,0,0,0,1.1.763m.172-5.073a1.5,1.5,0,0,1,1.247-.6,1.554,1.554,0,0,1,.9.266,1.71,1.71,0,0,1,.6.771,3.054,3.054,0,0,1,.214,1.189,2.859,2.859,0,0,1-.215,1.148,1.737,1.737,0,0,1-.606.763,1.629,1.629,0,0,1-1.785,0,1.742,1.742,0,0,1-.606-.763,2.846,2.846,0,0,1-.214-1.148,2.577,2.577,0,0,1,.466-1.629" transform="translate(-1644.943 -2.297)" fill="#eabf7b" fill-rule="evenodd"/><path d="M1734.194,12.1a.69.69,0,0,0,.6.283q.8,0,.8-1.14V6.731h.6q1.144,0,1.143-.741,0-.756-1.143-.756h-2.8q-1.144,0-1.143.756t1.143.741h.592v4.508a1.489,1.489,0,0,0,.2.857" transform="translate(-1651.242 -2.475)" fill="#eabf7b" fill-rule="evenodd"/><path d="M1743.52,12.3q.8,0,.8-1.14V7.91l2.908,3.844a1.2,1.2,0,0,0,.921.586.641.641,0,0,0,.559-.247,1.309,1.309,0,0,0,.177-.756V6.2q0-1.144-.8-1.143T1747.28,6.2V9.51l-2.966-3.921a1.585,1.585,0,0,0-.4-.392.836.836,0,0,0-.457-.125q-.747,0-.746,1.076v5.012a1.51,1.51,0,0,0,.2.86.693.693,0,0,0,.609.278" transform="translate(-1656.188 -2.394)" fill="#eabf7b" fill-rule="evenodd"/><path d="M1756.876,11.159a1.51,1.51,0,0,0,.2.86.692.692,0,0,0,.609.278q.8,0,.8-1.138V6.2q0-1.144-.8-1.143t-.806,1.143Z" transform="translate(-1662.889 -2.394)" fill="#eabf7b" fill-rule="evenodd"/><path d="M1757.948,1.984l.756-.834a.857.857,0,0,0,.256-.557.561.561,0,0,0-.182-.421.62.62,0,0,0-.443-.172.661.661,0,0,0-.563.316l-.726.993a.721.721,0,0,0-.17.437.545.545,0,0,0,.146.392.508.508,0,0,0,.392.155.769.769,0,0,0,.534-.309" transform="translate(-1662.889)" fill="#eabf7b" fill-rule="evenodd"/><path d="M1663.381,32.61q.8,0,.8-1.14V30.258h1.08a2.843,2.843,0,0,0,1.326-.288,1.933,1.933,0,0,0,.84-.827,2.681,2.681,0,0,0,.287-1.279,2.526,2.526,0,0,0-.308-1.266,2.079,2.079,0,0,0-.89-.837,3.028,3.028,0,0,0-1.385-.3h-1.449a1.6,1.6,0,0,0-.682.119.648.648,0,0,0-.336.361,1.886,1.886,0,0,0-.093.65V31.47a1.512,1.512,0,0,0,.2.862.692.692,0,0,0,.609.278m.8-5.668h.69a1.276,1.276,0,0,1,.829.223.858.858,0,0,1,.268.7.872.872,0,0,1-.275.7,1.239,1.239,0,0,1-.822.235h-.69Z" transform="translate(-1618.281 -12.047)" fill="#eabf7b" fill-rule="evenodd"/><path d="M1675.378,32.283a3.585,3.585,0,0,0,1.414.27,3.657,3.657,0,0,0,1.414-.267,3.151,3.151,0,0,0,1.1-.764,3.426,3.426,0,0,0,.71-1.185,4.8,4.8,0,0,0,0-3.044,3.314,3.314,0,0,0-.717-1.185,3.179,3.179,0,0,0-1.1-.756,3.847,3.847,0,0,0-2.8,0,3.093,3.093,0,0,0-1.1.761,3.432,3.432,0,0,0-.712,1.184,4.42,4.42,0,0,0-.25,1.522,4.5,4.5,0,0,0,.247,1.516,3.417,3.417,0,0,0,.7,1.184,3.129,3.129,0,0,0,1.1.763m.171-5.073a1.5,1.5,0,0,1,1.248-.6,1.558,1.558,0,0,1,.9.266,1.722,1.722,0,0,1,.6.771,3.045,3.045,0,0,1,.213,1.189,2.837,2.837,0,0,1-.215,1.148,1.737,1.737,0,0,1-.606.763,1.63,1.63,0,0,1-1.785,0,1.738,1.738,0,0,1-.605-.763,2.845,2.845,0,0,1-.215-1.148,2.58,2.58,0,0,1,.466-1.629" transform="translate(-1623.367 -11.868)" fill="#eabf7b" fill-rule="evenodd"/><path d="M1687.771,32.47a2.69,2.69,0,0,0,.96.159,2.269,2.269,0,0,0,1.127-.26,1.626,1.626,0,0,0,.7-.787,3.13,3.13,0,0,0,.238-1.294V26.435q0-1.144-.8-1.143t-.806,1.145v3.337a3.235,3.235,0,0,1-.111,1,.416.416,0,0,1-.417.312,1.168,1.168,0,0,1-.479-.177,1.213,1.213,0,0,0-.544-.177.706.706,0,0,0-.742.739.863.863,0,0,0,.23.573,1.6,1.6,0,0,0,.647.428" transform="translate(-1629.784 -11.964)" fill="#eabf7b" fill-rule="evenodd"/><path d="M1697.529,32.528q.8,0,.8-1.138V26.435q0-1.144-.8-1.143t-.806,1.143V31.39a1.51,1.51,0,0,0,.2.86.691.691,0,0,0,.609.278" transform="translate(-1634.433 -11.964)" fill="#eabf7b" fill-rule="evenodd"/><path d="M1704.017,31.044a3.314,3.314,0,0,1-.95-.179,3.214,3.214,0,0,0-.766-.18.942.942,0,0,0-.417.089.649.649,0,0,0-.282.258.7.7,0,0,0,.2.925,2.226,2.226,0,0,0,.827.422,3.955,3.955,0,0,0,1.159.162,3.264,3.264,0,0,0,1.448-.306,2.213,2.213,0,0,0,1.292-2.07,1.956,1.956,0,0,0-.21-.93,1.976,1.976,0,0,0-.649-.7,4.406,4.406,0,0,0-1.085-.516l-.546-.179a2.9,2.9,0,0,1-.411-.165.666.666,0,0,1-.241-.195.492.492,0,0,1-.083-.295.537.537,0,0,1,.208-.435.887.887,0,0,1,.578-.17,2.681,2.681,0,0,1,.655.124,2.639,2.639,0,0,0,.606.123.732.732,0,0,0,.531-.184.659.659,0,0,0,.193-.5.871.871,0,0,0-.53-.74,2.8,2.8,0,0,0-1.4-.3,2.967,2.967,0,0,0-1.341.291,2.171,2.171,0,0,0-.9.8,2.123,2.123,0,0,0-.318,1.141,1.624,1.624,0,0,0,.468,1.239,3.777,3.777,0,0,0,1.524.761,6.484,6.484,0,0,1,.695.248,1.056,1.056,0,0,1,.394.282.671.671,0,0,1,.144.444.679.679,0,0,1-.224.517.8.8,0,0,1-.571.21" transform="translate(-1636.696 -11.876)" fill="#eabf7b" fill-rule="evenodd"/><path d="M1703.332,21.616l1.082.846a.646.646,0,0,0,.406.146.663.663,0,0,0,.408-.146l1.082-.846a.822.822,0,0,0,.227-.244.578.578,0,0,0,.068-.29.531.531,0,0,0-.132-.373.423.423,0,0,0-.333-.146,1,1,0,0,0-.455.161l-.865.518-.863-.518a1,1,0,0,0-.46-.161.442.442,0,0,0-.332.142.53.53,0,0,0-.135.376.542.542,0,0,0,.07.289,1.007,1.007,0,0,0,.231.245" transform="translate(-1637.417 -9.728)" fill="#eabf7b" fill-rule="evenodd"/><path d="M1711.037,26.22q0,.741,1.143.741h.593V31.47a1.488,1.488,0,0,0,.2.857.69.69,0,0,0,.6.283q.8,0,.8-1.14V26.961h.6q1.144,0,1.144-.741,0-.757-1.144-.756h-2.8q-1.143,0-1.143.756" transform="translate(-1641.204 -12.046)" fill="#eabf7b" fill-rule="evenodd"/><path d="M1713.048,21.615l1.08.848a.68.68,0,0,0,.407.146.666.666,0,0,0,.407-.146l1.08-.848a.669.669,0,0,0,.3-.533.524.524,0,0,0-.134-.372.43.43,0,0,0-.336-.145.989.989,0,0,0-.455.16l-.864.517-.861-.517a.993.993,0,0,0-.457-.16.44.44,0,0,0-.336.142.529.529,0,0,0-.134.376.547.547,0,0,0,.068.288.927.927,0,0,0,.233.245" transform="translate(-1642.013 -9.729)" fill="#eabf7b" fill-rule="evenodd"/><path d="M1722.882,32.283a3.586,3.586,0,0,0,1.414.27,3.656,3.656,0,0,0,1.414-.267,3.151,3.151,0,0,0,1.1-.764,3.434,3.434,0,0,0,.71-1.185,4.792,4.792,0,0,0,0-3.044,3.325,3.325,0,0,0-.717-1.185,3.174,3.174,0,0,0-1.105-.756,3.847,3.847,0,0,0-2.8,0,3.093,3.093,0,0,0-1.1.761,3.435,3.435,0,0,0-.711,1.184,4.42,4.42,0,0,0-.25,1.522,4.511,4.511,0,0,0,.246,1.516,3.442,3.442,0,0,0,.705,1.184,3.133,3.133,0,0,0,1.1.763m.172-5.073a1.5,1.5,0,0,1,1.248-.6,1.554,1.554,0,0,1,.9.266,1.708,1.708,0,0,1,.6.771,3.029,3.029,0,0,1,.214,1.189,2.828,2.828,0,0,1-.215,1.148,1.734,1.734,0,0,1-.606.763,1.629,1.629,0,0,1-1.784,0,1.737,1.737,0,0,1-.606-.763,2.828,2.828,0,0,1-.215-1.148,2.579,2.579,0,0,1,.467-1.629" transform="translate(-1645.838 -11.868)" fill="#eabf7b" fill-rule="evenodd"/><path d="M1736.717,32.347a.636.636,0,0,0,.24.192.8.8,0,0,0,.332.063.733.733,0,0,0,.484-.156,1.22,1.22,0,0,0,.33-.513l2.085-5.3a1.519,1.519,0,0,0,.105-.557.712.712,0,0,0-.209-.543.8.8,0,0,0-.571-.2.647.647,0,0,0-.478.17,1.533,1.533,0,0,0-.318.581l-1.381,3.951-1.489-4.009a1.369,1.369,0,0,0-.3-.531.607.607,0,0,0-.436-.162.823.823,0,0,0-.6.228.759.759,0,0,0-.238.571,1.217,1.217,0,0,0,.093.462l2.153,5.4a1.456,1.456,0,0,0,.193.351" transform="translate(-1652.198 -11.985)" fill="#eabf7b" fill-rule="evenodd"/><path d="M1747.373,32.528q.8,0,.8-1.14V28.141l2.909,3.845a1.2,1.2,0,0,0,.921.586.643.643,0,0,0,.559-.247,1.309,1.309,0,0,0,.177-.756V26.435q0-1.144-.8-1.143t-.806,1.143v3.306l-2.967-3.921a1.563,1.563,0,0,0-.4-.392.83.83,0,0,0-.456-.125q-.747,0-.746,1.075V31.39a1.505,1.505,0,0,0,.2.86.69.69,0,0,0,.608.278" transform="translate(-1658.011 -11.964)" fill="#eabf7b" fill-rule="evenodd"/><path d="M1759.844,32.435a.808.808,0,0,0,.392.094c.359,0,.615-.237.771-.711l.241-.71h2.609l.2.652a1.337,1.337,0,0,0,.329.588.724.724,0,0,0,.515.195.807.807,0,0,0,.564-.21.707.707,0,0,0,.23-.546,1.646,1.646,0,0,0-.106-.51l-1.79-5.069a1.484,1.484,0,0,0-.465-.7,1.123,1.123,0,0,0-.716-.24,1.1,1.1,0,0,0-.74.257,1.875,1.875,0,0,0-.492.786l-1.837,4.988a1.267,1.267,0,0,0-.077.465.8.8,0,0,0,.1.4.679.679,0,0,0,.276.269M1762.577,27l.814,2.617h-1.686Z" transform="translate(-1664.115 -11.955)" fill="#eabf7b" fill-rule="evenodd"/><path d="M1663.026,52.508a1.572,1.572,0,0,0,.277-.783l.552-4.115,1.042,4.349a1.192,1.192,0,0,0,.334.63.941.941,0,0,0,.612.179,1.16,1.16,0,0,0,.408-.063.539.539,0,0,0,.265-.223,3.946,3.946,0,0,0,.286-.757q.173-.57.435-1.631t.588-2.484l.508,4.218q.116.941.8.94a.8.8,0,0,0,.589-.225.837.837,0,0,0,.225-.619,2.332,2.332,0,0,0-.038-.383l-.786-4.857a2.323,2.323,0,0,0-.2-.653.862.862,0,0,0-.359-.386,1.2,1.2,0,0,0-.577-.124,1.066,1.066,0,0,0-1.1.945l-1,4.227-1.072-4.217a1.088,1.088,0,0,0-1.123-.954,1.13,1.13,0,0,0-.552.121.854.854,0,0,0-.343.357,2.237,2.237,0,0,0-.195.627l-.864,4.813a2.734,2.734,0,0,0-.058.485.841.841,0,0,0,.219.609.755.755,0,0,0,.568.224.687.687,0,0,0,.565-.25" transform="translate(-1617.854 -21.534)" fill="#eabf7b" fill-rule="evenodd"/><path d="M1679.705,52.759q.8,0,.8-1.138V46.666q0-1.144-.8-1.143t-.805,1.143v4.955a1.511,1.511,0,0,0,.2.86.692.692,0,0,0,.609.278" transform="translate(-1626.002 -21.535)" fill="#eabf7b" fill-rule="evenodd"/><path d="M1685.206,52.759q.8,0,.8-1.14V48.372l2.908,3.845a1.2,1.2,0,0,0,.921.586.644.644,0,0,0,.56-.247,1.312,1.312,0,0,0,.177-.756V46.666q0-1.144-.8-1.143t-.806,1.143v3.306L1686,46.05a1.58,1.58,0,0,0-.4-.392.83.83,0,0,0-.456-.125q-.747,0-.747,1.075v5.013a1.5,1.5,0,0,0,.2.86.691.691,0,0,0,.609.278" transform="translate(-1628.604 -21.535)" fill="#eabf7b" fill-rule="evenodd"/><path d="M1699.369,52.759q.8,0,.8-1.138V46.666q0-1.144-.8-1.143t-.806,1.143v4.955a1.511,1.511,0,0,0,.2.86.692.692,0,0,0,.609.278" transform="translate(-1635.304 -21.535)" fill="#eabf7b" fill-rule="evenodd"/><path d="M1705.855,51.275a3.315,3.315,0,0,1-.95-.179,3.225,3.225,0,0,0-.766-.181.941.941,0,0,0-.417.09.654.654,0,0,0-.281.258.695.695,0,0,0,.2.925,2.227,2.227,0,0,0,.827.422,3.966,3.966,0,0,0,1.16.162,3.261,3.261,0,0,0,1.448-.306,2.213,2.213,0,0,0,1.292-2.07,1.951,1.951,0,0,0-.21-.93,1.97,1.97,0,0,0-.649-.7,4.4,4.4,0,0,0-1.085-.516l-.546-.179a2.96,2.96,0,0,1-.411-.165.66.66,0,0,1-.241-.2.49.49,0,0,1-.083-.294.538.538,0,0,1,.209-.435.885.885,0,0,1,.577-.17,2.676,2.676,0,0,1,.655.124,2.64,2.64,0,0,0,.606.123.735.735,0,0,0,.531-.184.66.66,0,0,0,.192-.5.87.87,0,0,0-.53-.74,2.8,2.8,0,0,0-1.4-.3,2.967,2.967,0,0,0-1.342.291,2.167,2.167,0,0,0-.9.8,2.12,2.12,0,0,0-.318,1.141,1.624,1.624,0,0,0,.469,1.239,3.768,3.768,0,0,0,1.523.761,6.567,6.567,0,0,1,.7.249,1.056,1.056,0,0,1,.394.282.728.728,0,0,1-.082.961.8.8,0,0,1-.571.21" transform="translate(-1637.565 -21.446)" fill="#eabf7b" fill-rule="evenodd"/><path d="M1714.813,52.557a.69.69,0,0,0,.6.283q.8,0,.8-1.14V47.192h.6q1.144,0,1.143-.741,0-.757-1.143-.757h-2.8q-1.144,0-1.143.757,0,.741,1.143.741h.592V51.7a1.489,1.489,0,0,0,.2.857" transform="translate(-1642.074 -21.615)" fill="#eabf7b" fill-rule="evenodd"/><path d="M1726.252,47.192q1.141,0,1.143-.741,0-.757-1.145-.756h-1.807a1.588,1.588,0,0,0-.682.119.644.644,0,0,0-.336.36,1.878,1.878,0,0,0-.093.65V51.74a1.53,1.53,0,0,0,.1.61.59.59,0,0,0,.331.308,1.845,1.845,0,0,0,.662.094h1.876q1.144,0,1.143-.746t-1.143-.742h-1.356V49.942h1.128q1.144,0,1.143-.741t-1.143-.746h-1.128V47.192Z" transform="translate(-1647.021 -21.616)" fill="#eabf7b" fill-rule="evenodd"/><path d="M1737.894,47.9a2.006,2.006,0,0,0-.7-1.6,2.957,2.957,0,0,0-1.987-.6h-1.25a1.585,1.585,0,0,0-.682.119.642.642,0,0,0-.336.36,1.876,1.876,0,0,0-.092.65V51.7a1.514,1.514,0,0,0,.2.862.692.692,0,0,0,.609.278q.8,0,.8-1.14V49.965l1.875,2.351a2.349,2.349,0,0,0,.444.438.71.71,0,0,0,.419.139.741.741,0,0,0,.548-.219.729.729,0,0,0,.218-.538,1.5,1.5,0,0,0-.48-.921l-1.271-1.409a2.079,2.079,0,0,0,1.244-.646,1.836,1.836,0,0,0,.443-1.26m-1.943.759a1.116,1.116,0,0,1-.758.23h-.741V47.172h.761a1.324,1.324,0,0,1,.549.1.725.725,0,0,1,.339.291.854.854,0,0,1,.114.45.808.808,0,0,1-.265.643" transform="translate(-1651.52 -21.616)" fill="#eabf7b" fill-rule="evenodd"/><path d="M1745.884,51.275a3.305,3.305,0,0,1-.949-.179,3.232,3.232,0,0,0-.766-.181.942.942,0,0,0-.417.09.653.653,0,0,0-.281.258.7.7,0,0,0,.2.925,2.229,2.229,0,0,0,.827.422,3.964,3.964,0,0,0,1.16.162,3.262,3.262,0,0,0,1.447-.306,2.216,2.216,0,0,0,1.292-2.07,1.951,1.951,0,0,0-.21-.93,1.974,1.974,0,0,0-.649-.7,4.39,4.39,0,0,0-1.085-.516l-.546-.179a2.911,2.911,0,0,1-.411-.165.654.654,0,0,1-.241-.2.488.488,0,0,1-.083-.294.537.537,0,0,1,.209-.435.884.884,0,0,1,.577-.17,2.676,2.676,0,0,1,.655.124,2.639,2.639,0,0,0,.606.123.736.736,0,0,0,.531-.184.659.659,0,0,0,.192-.5.87.87,0,0,0-.529-.74,2.8,2.8,0,0,0-1.4-.3,2.968,2.968,0,0,0-1.342.291,2.168,2.168,0,0,0-.9.8,2.116,2.116,0,0,0-.318,1.141,1.623,1.623,0,0,0,.468,1.239,3.775,3.775,0,0,0,1.524.761,6.653,6.653,0,0,1,.7.249,1.056,1.056,0,0,1,.393.282.671.671,0,0,1,.144.444.68.68,0,0,1-.225.517.8.8,0,0,1-.571.21" transform="translate(-1656.5 -21.446)" fill="#eabf7b" fill-rule="evenodd"/><path d="M1754.842,52.557a.69.69,0,0,0,.6.283q.8,0,.8-1.14V47.192h.6q1.143,0,1.143-.741,0-.757-1.143-.757h-2.8q-1.144,0-1.143.757,0,.741,1.143.741h.592V51.7a1.49,1.49,0,0,0,.2.857" transform="translate(-1661.01 -21.615)" fill="#eabf7b" fill-rule="evenodd"/><path d="M1764.367,52.577a.624.624,0,0,0,.24.192.791.791,0,0,0,.331.063.733.733,0,0,0,.485-.156,1.225,1.225,0,0,0,.331-.513l2.084-5.3a1.5,1.5,0,0,0,.106-.557.711.711,0,0,0-.21-.543.8.8,0,0,0-.571-.2.643.643,0,0,0-.476.17,1.513,1.513,0,0,0-.317.581l-1.382,3.951-1.489-4.009a1.372,1.372,0,0,0-.3-.531.61.61,0,0,0-.437-.162.822.822,0,0,0-.6.228.759.759,0,0,0-.238.571,1.207,1.207,0,0,0,.093.462l2.153,5.4a1.459,1.459,0,0,0,.194.351" transform="translate(-1665.277 -21.554)" fill="#eabf7b" fill-rule="evenodd"/><path d="M1773.4,52.665a.808.808,0,0,0,.392.094q.538,0,.771-.711l.241-.71h2.609l.2.652a1.338,1.338,0,0,0,.329.588.721.721,0,0,0,.515.195.808.808,0,0,0,.564-.21.707.707,0,0,0,.23-.546,1.648,1.648,0,0,0-.106-.51l-1.79-5.069a1.476,1.476,0,0,0-.465-.694,1.12,1.12,0,0,0-.716-.24,1.094,1.094,0,0,0-.739.257,1.866,1.866,0,0,0-.493.786l-1.837,4.988a1.274,1.274,0,0,0-.077.465.791.791,0,0,0,.1.4.676.676,0,0,0,.275.269m2.733-5.431.814,2.617h-1.686Z" transform="translate(-1670.53 -21.524)" fill="#eabf7b" fill-rule="evenodd"/><path d="M1663.579,72.808a.626.626,0,0,0,.24.191.786.786,0,0,0,.331.063.73.73,0,0,0,.485-.155,1.231,1.231,0,0,0,.331-.513l2.084-5.3a1.5,1.5,0,0,0,.106-.558.709.709,0,0,0-.21-.542.8.8,0,0,0-.571-.2.644.644,0,0,0-.477.171,1.517,1.517,0,0,0-.318.581L1664.2,70.5l-1.489-4.009a1.372,1.372,0,0,0-.3-.531.61.61,0,0,0-.437-.163.82.82,0,0,0-.6.229.758.758,0,0,0-.239.571,1.2,1.2,0,0,0,.093.462l2.153,5.4a1.48,1.48,0,0,0,.193.351" transform="translate(-1617.601 -31.124)" fill="#eabf7b" fill-rule="evenodd"/><path d="M1674.234,72.989q.8,0,.8-1.14V68.6l2.908,3.845a1.2,1.2,0,0,0,.922.585.643.643,0,0,0,.559-.247,1.305,1.305,0,0,0,.177-.756V66.9q0-1.144-.8-1.143t-.8,1.143V70.2l-2.967-3.921a1.579,1.579,0,0,0-.4-.392.829.829,0,0,0-.456-.125q-.747,0-.746,1.076v5.012a1.507,1.507,0,0,0,.2.86.693.693,0,0,0,.609.278" transform="translate(-1623.414 -31.104)" fill="#eabf7b" fill-rule="evenodd"/><path d="M1688.4,72.989q.8,0,.8-1.138V66.9q0-1.144-.8-1.143t-.806,1.143v4.955a1.51,1.51,0,0,0,.2.86.691.691,0,0,0,.608.278" transform="translate(-1630.113 -31.104)" fill="#eabf7b" fill-rule="evenodd"/><path d="M1693.464,72.788a.692.692,0,0,0,.6.283q.8,0,.8-1.14V67.422h.6q1.145,0,1.144-.741,0-.756-1.144-.756h-2.8q-1.145,0-1.143.756t1.143.741h.592v4.509a1.489,1.489,0,0,0,.2.857" transform="translate(-1631.976 -31.186)" fill="#eabf7b" fill-rule="evenodd"/><path d="M1707.035,68.131a2.007,2.007,0,0,0-.7-1.6,2.957,2.957,0,0,0-1.987-.6h-1.251a1.587,1.587,0,0,0-.681.119.644.644,0,0,0-.336.36,1.883,1.883,0,0,0-.093.65v4.876a1.514,1.514,0,0,0,.2.862.7.7,0,0,0,.609.278q.8,0,.8-1.14V70.2l1.875,2.351a2.34,2.34,0,0,0,.445.438.709.709,0,0,0,.418.139.741.741,0,0,0,.548-.219.73.73,0,0,0,.218-.537,1.5,1.5,0,0,0-.479-.922l-1.271-1.409a2.075,2.075,0,0,0,1.244-.646,1.835,1.835,0,0,0,.443-1.26m-1.942.759a1.116,1.116,0,0,1-.758.23h-.741V67.4h.761a1.328,1.328,0,0,1,.549.1.722.722,0,0,1,.339.291.853.853,0,0,1,.115.45.808.808,0,0,1-.265.643" transform="translate(-1636.923 -31.185)" fill="#eabf7b" fill-rule="evenodd"/><path d="M1712.421,72.9a.812.812,0,0,0,.392.094q.538,0,.771-.712l.241-.709h2.61l.2.651a1.325,1.325,0,0,0,.329.588.719.719,0,0,0,.514.2.807.807,0,0,0,.564-.21.7.7,0,0,0,.23-.546,1.643,1.643,0,0,0-.106-.51l-1.79-5.069a1.48,1.48,0,0,0-.465-.695,1.119,1.119,0,0,0-.716-.24,1.1,1.1,0,0,0-.74.257,1.862,1.862,0,0,0-.493.786l-1.837,4.988a1.265,1.265,0,0,0-.078.465.786.786,0,0,0,.1.4.68.68,0,0,0,.274.27m2.733-5.431.814,2.617h-1.686Z" transform="translate(-1641.682 -31.094)" fill="#eabf7b" fill-rule="evenodd"/><path d="M1733.039,62.075l1.08.849a.655.655,0,0,0,.407.145.665.665,0,0,0,.405-.145l1.081-.849a.828.828,0,0,0,.228-.241.591.591,0,0,0,.066-.291.529.529,0,0,0-.13-.372.42.42,0,0,0-.332-.145.981.981,0,0,0-.455.16l-.862.518-.862-.518a.99.99,0,0,0-.46-.16.439.439,0,0,0-.333.142.534.534,0,0,0-.132.375.558.558,0,0,0,.068.289.959.959,0,0,0,.231.243" transform="translate(-1651.471 -28.868)" fill="#eabf7b" fill-rule="evenodd"/><path d="M1730.909,67.328a4.061,4.061,0,0,0-.458,1.954,4.464,4.464,0,0,0,.249,1.531,3.445,3.445,0,0,0,.71,1.183,3.1,3.1,0,0,0,1.1.756,3.675,3.675,0,0,0,1.4.261,3.59,3.59,0,0,0,1.138-.17,2.028,2.028,0,0,0,.8-.45.832.832,0,0,0,.287-.6.691.691,0,0,0-.2-.491.6.6,0,0,0-.445-.212,2.62,2.62,0,0,0-.64.182,2.576,2.576,0,0,1-.86.182,1.711,1.711,0,0,1-.938-.257,1.681,1.681,0,0,1-.622-.74,2.708,2.708,0,0,1-.22-1.138,2.885,2.885,0,0,1,.218-1.165,1.706,1.706,0,0,1,.609-.762,1.573,1.573,0,0,1,.9-.265,2.9,2.9,0,0,1,.8.137,2.755,2.755,0,0,0,.617.139.63.63,0,0,0,.479-.223.723.723,0,0,0,.2-.5.767.767,0,0,0-.27-.54,1.923,1.923,0,0,0-.758-.427,3.647,3.647,0,0,0-2.852.3,3.268,3.268,0,0,0-1.25,1.316" transform="translate(-1650.388 -31.008)" fill="#eabf7b" fill-rule="evenodd"/><path d="M1747.5,68.131a2.006,2.006,0,0,0-.7-1.6,2.958,2.958,0,0,0-1.987-.6h-1.251a1.584,1.584,0,0,0-.681.119.644.644,0,0,0-.336.36,1.883,1.883,0,0,0-.093.65v4.876a1.514,1.514,0,0,0,.2.862.693.693,0,0,0,.609.278q.8,0,.8-1.14V70.2l1.874,2.351a2.322,2.322,0,0,0,.445.438.708.708,0,0,0,.418.139.74.74,0,0,0,.547-.219.73.73,0,0,0,.218-.537,1.5,1.5,0,0,0-.479-.922l-1.27-1.409a2.074,2.074,0,0,0,1.244-.646,1.833,1.833,0,0,0,.444-1.26m-1.942.759a1.116,1.116,0,0,1-.758.23h-.741V67.4h.761a1.326,1.326,0,0,1,.549.1.726.726,0,0,1,.34.291.858.858,0,0,1,.114.45.807.807,0,0,1-.265.643" transform="translate(-1656.066 -31.185)" fill="#eabf7b" fill-rule="evenodd"/><path d="M1582.419,44.151h31.168a3.9,3.9,0,0,0,3.9-3.9V9.083a3.9,3.9,0,0,0-3.9-3.9h-31.171a3.9,3.9,0,0,0-3.9,3.9V40.255a3.9,3.9,0,0,0,3.9,3.9Zm7.738-25.977h-5.144a2.6,2.6,0,0,1,0-5.2H1603.2a10.391,10.391,0,0,1,0,20.781h-1.949a.636.636,0,0,0-.649.649v3.248a2.6,2.6,0,0,1-5.2,0V34.41a.636.636,0,0,0-.649-.649h-9.741a2.6,2.6,0,0,1-1.969-4.289l7.7-10.291a.642.642,0,0,0-.589-1.006" transform="translate(-1578.519 -2.454)" fill="#eabf7b" fill-rule="evenodd"/><path d="M1611.687,40.225h2.6a5.2,5.2,0,1,0,0-10.391H1609.4a.636.636,0,0,0-.492.231l-6.851,9.154a.655.655,0,0,0,.594,1.005Zm-2.6-6.494a2.6,2.6,0,1,1-2.6,2.6,2.6,2.6,0,0,1,2.6-2.6" transform="translate(-1589.607 -14.113)" fill="#eabf7b" fill-rule="evenodd"/></svg>