<svg xmlns="http://www.w3.org/2000/svg" width="126.621" height="53.118" viewBox="0 0 126.621 53.118"><g transform="translate(-570.457 -8785)"><path d="M624.862,45.831a.631.631,0,1,1,.71.541.493.493,0,0,1-.086.007.634.634,0,0,1-.624-.548m3.047.179a.63.63,0,1,1,.177.026.6.6,0,0,1-.177-.026m2.012-1.043a.625.625,0,1,1,.31.083.631.631,0,0,1-.31-.083m-7.186-.134a.634.634,0,1,1,.394.136.621.621,0,0,1-.394-.136m29.473-.714a.631.631,0,0,1,.124-1.256h0a.631.631,0,0,1-.058,1.258c-.02,0-.043,0-.063,0m-8.439-1.171a.632.632,0,1,1,.7.554.646.646,0,0,1-.073,0,.632.632,0,0,1-.627-.559m5.6.4a.628.628,0,1,1,.227.043.6.6,0,0,1-.227-.043m-17.674-.389a.632.632,0,1,1,.887.109.645.645,0,0,1-.39.134.629.629,0,0,1-.5-.243m14.791-.593a.631.631,0,1,1,.823.344.617.617,0,0,1-.24.047.628.628,0,0,1-.583-.391m7.4-.179a.632.632,0,1,1,.892-.071v0a.635.635,0,0,1-.892.069m2.2-1.347a.632.632,0,1,1,.639.627h0a.635.635,0,0,1-.634-.627m2.786-.071a.632.632,0,1,1,.824.351.659.659,0,0,1-.235.045.634.634,0,0,1-.589-.4m-39.767.083h0a.631.631,0,1,1,.862-.238.629.629,0,0,1-.862.238m20.39-.026a.629.629,0,1,1,.306.081.617.617,0,0,1-.306-.081m-7.666-.8h0a.633.633,0,1,1,.68.579.4.4,0,0,1-.05,0,.632.632,0,0,1-.629-.581m5.177.351a.635.635,0,1,1,.114.01.574.574,0,0,1-.114-.01m24.117-1.16a.633.633,0,1,1,.879-.15.621.621,0,0,1-.513.266.633.633,0,0,1-.367-.116m-44.348-.137a.635.635,0,1,1,.435.172.625.625,0,0,1-.435-.172m46.215-1.8a.633.633,0,1,1,.87.2.642.642,0,0,1-.331.1.633.633,0,0,1-.538-.3m.586-2.709h0a.632.632,0,1,1,1.255-.144v0a.632.632,0,0,1-.559.7.586.586,0,0,1-.07,0,.631.631,0,0,1-.627-.561m-50.417.129h0a.631.631,0,1,1,1.034-.725h0a.632.632,0,0,1-1.036.725m-2.286-.935h0a.628.628,0,1,1,.3.079.623.623,0,0,1-.3-.079m54.214-.785a.633.633,0,0,1,.442-.776v0a.631.631,0,1,1,.333,1.218.638.638,0,0,1-.166.023.631.631,0,0,1-.609-.467m-56.427-1.322v0a.632.632,0,1,1,1.066-.677h0a.632.632,0,1,1-1.068.675m58.436-.354a.632.632,0,1,1,.861-.24h0a.624.624,0,0,1-.859.24m2.274-.978a.632.632,0,1,1,.862-.239h0a.625.625,0,0,1-.859.239m.758-2.274a.632.632,0,1,1,.861-.24h0a.624.624,0,0,1-.859.24m-62.858,1.178h0a.633.633,0,1,1,.546.313.634.634,0,0,1-.546-.313m.6-2.271a.639.639,0,1,1,.28.063.653.653,0,0,1-.28-.063m60.3-.369a.633.633,0,0,1,.761-1.011h0a.632.632,0,1,1-.758,1.011m-60.889-2.1a.635.635,0,1,1,.447.184.633.633,0,0,1-.447-.184m59.273-.4a.632.632,0,1,1,.839.311.647.647,0,0,1-.263.058.636.636,0,0,1-.576-.369m-2.047.106a.643.643,0,1,1,.088,0c-.027,0-.058,0-.088,0m-2.587-.748h0a.632.632,0,0,1,.035-1.263h0a.632.632,0,0,1-.015,1.263ZM659,22.987a.633.633,0,1,1,.463.2.629.629,0,0,1-.463-.2m-53.728-.449a.633.633,0,1,1,.894.01.624.624,0,0,1-.44.179.632.632,0,0,1-.454-.189M647.036,22a.631.631,0,1,1,.885.119.633.633,0,0,1-.885-.119m2.512-.864a.633.633,0,0,1-.091-.889h0a.633.633,0,1,1,.088.889m7.643-.381h0a.632.632,0,1,1,.523.278.632.632,0,0,1-.523-.278m-52.508-.746a.631.631,0,1,1,.424.164.622.622,0,0,1-.424-.164m2.193.031a.63.63,0,0,1-.162-.879h0a.632.632,0,1,1,.52.99.622.622,0,0,1-.356-.111m44.36-.579h0a.631.631,0,1,1,1.255-.134.634.634,0,0,1-.561.695.567.567,0,0,1-.068,0,.629.629,0,0,1-.627-.563m-5.483.086a.634.634,0,1,1,.508.255.633.633,0,0,1-.508-.255m10.215-.634a.632.632,0,1,1,.721.528.677.677,0,0,1-.1.008.633.633,0,0,1-.625-.536m-2.249-.311v0a.631.631,0,1,1,.894.015.621.621,0,0,1-.44.177.632.632,0,0,1-.455-.189M608.745,18a.632.632,0,1,1,.783.432.6.6,0,0,1-.175.026.636.636,0,0,1-.609-.458m35.254-.5h0a.63.63,0,1,1,.455.194.632.632,0,0,1-.455-.194m7.2-.6a.631.631,0,1,1,.692.563.508.508,0,0,1-.065,0,.63.63,0,0,1-.627-.566m-37.21-.232a.633.633,0,1,1,.5.25.632.632,0,0,1-.5-.25m30.282-1.243a.631.631,0,1,1,.447.187.623.623,0,0,1-.447-.187m-28.018-.374a.631.631,0,1,1,.87.2.641.641,0,0,1-.334.094.632.632,0,0,1-.536-.3m24.125-.7a.631.631,0,1,1,.39.134.63.63,0,0,1-.39-.134M621.343,12.78a.632.632,0,1,1,.892.023.625.625,0,0,1-.435.172.635.635,0,0,1-.458-.195m16.906.02a.633.633,0,1,1,.271.061.638.638,0,0,1-.271-.061M623.3,11.128a.631.631,0,1,1,.728.518.5.5,0,0,1-.106.01.632.632,0,0,1-.622-.528m6.3-.111a.632.632,0,1,1,.842.3.622.622,0,0,1-.273.063.629.629,0,0,1-.569-.358m-1.875-.958a.632.632,0,1,1,.89.093.646.646,0,0,1-.4.142.627.627,0,0,1-.49-.235M625.1,9.627a.625.625,0,1,1,.611.478.631.631,0,0,1-.611-.478m9,.1h0a.634.634,0,1,1,.525.278.63.63,0,0,1-.525-.278m-2.077-.045a.632.632,0,1,1,.849-.273h0a.635.635,0,0,1-.563.343.62.62,0,0,1-.288-.07" transform="translate(-34.018 8782.416)" fill="#e52532"/><path d="M616.957,48.117a3.274,3.274,0,0,1-1.927-5.923l16.162-11.741L615.03,18.71a3.274,3.274,0,0,1,3.85-5.3L638.686,27.8a3.274,3.274,0,0,1,0,5.3L618.88,47.492a3.264,3.264,0,0,1-1.923.625" transform="translate(-36.82 8781.107)" fill="#213973"/><path d="M654.315,67.371a3.274,3.274,0,0,1-3.112-2.263l-4.551-14a3.274,3.274,0,0,1,6.227-2.023l4.55,14a3.279,3.279,0,0,1-3.114,4.286" transform="translate(-46.809 8770.747)" fill="#e52532"/><path d="M674.184,40.024H659.462a3.273,3.273,0,1,1,0-6.546h14.722a3.273,3.273,0,1,1,0,6.546" transform="translate(-49.76 8774.809)" fill="#e52532"/><path d="M649.766,20.551a3.32,3.32,0,0,1-1.011-.16,3.274,3.274,0,0,1-2.1-4.126l4.551-14a3.273,3.273,0,0,1,6.226,2.023l-4.55,14a3.274,3.274,0,0,1-3.112,2.263" transform="translate(-46.809 8785)" fill="#e52532"/><path d="M711.19,13.579v5.738h-2.663V9.076h2.54l4.215,5.766V9.076h2.663V19.318h-2.54Z" transform="translate(-65.695 8782.237)" fill="#213973"/><path d="M728.072,18.814a2.548,2.548,0,0,1-2.032.906,2.127,2.127,0,0,1-2.334-2.156,2.183,2.183,0,0,1,2.444-2.142,2.915,2.915,0,0,1,1.73.481v-.275c0-.974-.536-1.249-1.482-1.249a8.758,8.758,0,0,0-1.689.234l-.028-1.95a10.6,10.6,0,0,1,2.279-.22c2.183,0,3.35,1.016,3.35,2.608v4.435h-2.238Zm0-7.167h-1.963l1.029-2.018h2.828Zm-.178,5.876a.793.793,0,0,0-.837-.81.821.821,0,0,0-.879.81.85.85,0,0,0,.879.879.819.819,0,0,0,.837-.879" transform="translate(-70.316 8782.068)" fill="#213973"/><path d="M737.5,20.765h-2.444V13.9h2.32v1.538c.205-.508.947-1.607,1.991-1.607h.247v2.677a1.431,1.431,0,0,0-.44-.055c-1.029,0-1.675.577-1.675,1Z" transform="translate(-73.77 8780.789)" fill="#213973"/><path d="M750.651,17.226a4.122,4.122,0,0,1-8.21,0,4.122,4.122,0,0,1,8.21,0m-5.684,0a1.587,1.587,0,1,0,3.171,0,1.587,1.587,0,1,0-3.171,0" transform="translate(-76.02 8780.896)" fill="#213973"/><path d="M761.007,18.084a3.017,3.017,0,0,1-2.54,1.249,3.336,3.336,0,0,1-3.213-3.6,3.428,3.428,0,0,1,3.213-3.707,3.058,3.058,0,0,1,2.375,1.1V8.4h2.444V19.113h-2.279Zm-1.689-3.954a1.513,1.513,0,0,0-1.537,1.552,1.529,1.529,0,0,0,1.537,1.551,1.552,1.552,0,1,0,0-3.1" transform="translate(-79.92 8782.441)" fill="#213973"/><path d="M771.126,20.723h-2.444V13.859h2.307v.892a2.894,2.894,0,0,1,2.266-1.057,2.38,2.38,0,0,1,2.43,2.54v4.489h-2.43V16.976c0-.81-.44-1.126-1.044-1.126a1.053,1.053,0,0,0-1.084,1Z" transform="translate(-84.008 8780.831)" fill="#213973"/><path d="M783.008,19.486h-2.416V12.621h2.416Zm-.192-7.839h-1.964l1.03-2.018h2.828Z" transform="translate(-87.633 8782.068)" fill="#213973"/><path d="M710.734,39.8v3.8H708.29V33.814h2.279V34.83a3.025,3.025,0,0,1,2.54-1.236,3.345,3.345,0,0,1,3.213,3.6,3.437,3.437,0,0,1-3.213,3.707,3.058,3.058,0,0,1-2.375-1.1m1.51-1a1.516,1.516,0,0,0,1.551-1.551,1.533,1.533,0,0,0-1.551-1.552,1.552,1.552,0,1,0,0,3.1" transform="translate(-65.623 8774.773)" fill="#213973"/><rect width="2.416" height="10.708" transform="translate(651.752 8804.743)" fill="#213973"/><path d="M730.52,38.792a2.548,2.548,0,0,1-2.032.906,2.127,2.127,0,0,1-2.334-2.156A2.183,2.183,0,0,1,728.6,35.4a2.915,2.915,0,0,1,1.73.481v-.275c0-.974-.536-1.249-1.482-1.249a8.758,8.758,0,0,0-1.689.234l-.028-1.95a10.6,10.6,0,0,1,2.279-.22c2.183,0,3.35,1.016,3.35,2.608v4.435H730.52Zm0-7.167h-1.963l1.029-2.018h2.828Zm-.178,5.876a.793.793,0,0,0-.837-.81.821.821,0,0,0-.878.81.85.85,0,0,0,.878.879.819.819,0,0,0,.837-.879" transform="translate(-71.061 8775.987)" fill="#213973"/><path d="M739.947,40.7H737.5V33.838h2.307v.892a2.894,2.894,0,0,1,2.266-1.057,2.38,2.38,0,0,1,2.43,2.54V40.7h-2.43V36.955c0-.81-.44-1.126-1.044-1.126a1.053,1.053,0,0,0-1.084,1Z" transform="translate(-74.516 8774.749)" fill="#213973"/><path d="M716.125,57.183a4.122,4.122,0,1,1-4.1-3.748,3.853,3.853,0,0,1,4.1,3.748m-5.684,0a1.587,1.587,0,1,0,3.171,0,1.587,1.587,0,1,0-3.171,0" transform="translate(-65.508 8768.733)" fill="#213973"/><path d="M725.939,59.29a3.025,3.025,0,0,1-2.54-1.235V59.07H721.12V48.362h2.444v4.723a3.056,3.056,0,0,1,2.375-1.1,3.438,3.438,0,0,1,3.213,3.707,3.344,3.344,0,0,1-3.213,3.6m-.865-2.1a1.532,1.532,0,0,0,1.551-1.551,1.516,1.516,0,0,0-1.551-1.552,1.552,1.552,0,1,0,0,3.1" transform="translate(-69.527 8770.277)" fill="#213973"/><path d="M736.584,60.68H734.14V53.816h2.307v.892a2.894,2.894,0,0,1,2.266-1.057,2.38,2.38,0,0,1,2.43,2.54V60.68h-2.43V56.933c0-.81-.44-1.126-1.044-1.126a1.053,1.053,0,0,0-1.084,1Z" transform="translate(-73.492 8768.667)" fill="#213973"/><path d="M753.75,57.183a4.122,4.122,0,1,1-4.1-3.748,3.852,3.852,0,0,1,4.1,3.748m-5.684,0a1.587,1.587,0,1,0,3.172,0,1.587,1.587,0,1,0-3.172,0" transform="translate(-76.963 8768.733)" fill="#213973"/><path d="M762.972,60.753h-2.951l-2.664-6.865h2.718l1.442,4.366,1.551-4.366h2.54Z" transform="translate(-80.559 8768.595)" fill="#213973"/><path d="M774.476,63.677H771.95L772.911,61,769.8,53.888h2.759l1.579,4.324,1.441-4.324h2.54Z" transform="translate(-84.346 8768.595)" fill="#213973"/></g></svg>