<svg xmlns="http://www.w3.org/2000/svg" xmlns:xlink="http://www.w3.org/1999/xlink" width="121.351" height="113.824" viewBox="0 0 121.351 113.824"><defs><clipPath id="a"><path d="M596.651-550C558.158-550,539-530.658,539-493.088s20.9,56.912,59.4,56.912,61.954-22.454,61.954-60.024S635.144-550,596.651-550Z" transform="translate(-539 549.999)" fill="#eaded2" clip-rule="evenodd"/></clipPath><clipPath id="b"><path d="M-706,32546.6H6088.614V-728H-706Z" transform="translate(706 728)" fill="#eaded2"/></clipPath></defs><g transform="translate(-375.649 -7504.149)"><g transform="translate(375.649 7504.15)" clip-path="url(#a)"><g transform="translate(-5874.511 -844.197)" clip-path="url(#b)"><path d="M702.535-393.749H534V-555H702.535Z" transform="translate(5316.917 1375.483)" fill="#eaded2"/></g></g><path d="M47.438,34.969H7.7a4.248,4.248,0,0,1-4.159-5.1v-.006L9.269,2.394A4.263,4.263,0,0,1,13.43-1H53.149A4.245,4.245,0,0,1,57.3,4.1L51.6,31.576a4.252,4.252,0,0,1-4.158,3.393ZM6.484,30.474a1.251,1.251,0,0,0,.259,1.038,1.238,1.238,0,0,0,.962.456H47.432a1.259,1.259,0,0,0,1.226-1l5.71-27.476a1.236,1.236,0,0,0-.257-1.035A1.251,1.251,0,0,0,53.149,2H13.43a1.252,1.252,0,0,0-1.223,1V3Z" transform="translate(409.712 7543.738)" fill="#160eaa"/><path d="M25.511,19.108a6.995,6.995,0,0,1-5.125-2.235L6.327,1.733a1.5,1.5,0,1,1,2.2-2.041L22.584,14.832a3.994,3.994,0,0,0,5.219.553L50.046-.182a1.5,1.5,0,1,1,1.72,2.458L29.523,17.843A6.994,6.994,0,0,1,25.511,19.108Z" transform="translate(414.021 7544.108)" fill="#160eaa"/><path d="M10.99,1.5H0A1.5,1.5,0,0,1-1.5,0,1.5,1.5,0,0,1,0-1.5H10.99A1.5,1.5,0,0,1,12.49,0,1.5,1.5,0,0,1,10.99,1.5Z" transform="translate(402.419 7546.985)" fill="#160eaa"/><path d="M8.242,1.5H0A1.5,1.5,0,0,1-1.5,0,1.5,1.5,0,0,1,0-1.5H8.242A1.5,1.5,0,0,1,9.742,0,1.5,1.5,0,0,1,8.242,1.5Z" transform="translate(402.419 7555.228)" fill="#160eaa"/><path d="M5.495,1.5H0A1.5,1.5,0,0,1-1.5,0,1.5,1.5,0,0,1,0-1.5H5.495A1.5,1.5,0,0,1,6.995,0,1.5,1.5,0,0,1,5.495,1.5Z" transform="translate(402.419 7563.47)" fill="#160eaa"/></g></svg>