<svg xmlns="http://www.w3.org/2000/svg" xmlns:xlink="http://www.w3.org/1999/xlink" width="135.74" height="126.674" viewBox="0 0 135.74 126.674"><defs><clipPath id="a"><path d="M603.487-550C560.429-550,539-528.475,539-486.663s23.382,63.337,66.44,63.337,69.3-24.988,69.3-66.8S646.545-550,603.487-550Z" transform="translate(-539 550)" fill="#eaded2" clip-rule="evenodd"/></clipPath><clipPath id="b"><path d="M-706,36302.891H6894.315V-728H-706Z" transform="translate(706 728)" fill="#eaded2"/></clipPath></defs><g transform="translate(-375.26 -7020.832)"><g transform="translate(375.26 7020.832)" clip-path="url(#a)"><g transform="translate(-6571.106 -939.495)" clip-path="url(#b)"><path d="M722.52-375.546H534V-555H722.52Z" transform="translate(6010.717 1468.105)" fill="#eaded2"/></g></g><path d="M11.393-1a7.771,7.771,0,0,1,5.515,2.271L23.594,7.9a7.736,7.736,0,0,1,0,10.981l-1.255,1.251a148.394,148.394,0,0,0,18.346,18.22L41.952,37.1a7.868,7.868,0,0,1,5.513-2.269A7.776,7.776,0,0,1,52.981,37.1l6.685,6.642a7.733,7.733,0,0,1,0,10.982L56,58.363A11,11,0,0,1,42.22,59.735a148.187,148.187,0,0,1-22.763-18.5A147.588,147.588,0,0,1,.827,18.626,10.822,10.822,0,0,1,2.214,4.912L5.878,1.271A7.771,7.771,0,0,1,11.393-1ZM40.78,41.878a1.5,1.5,0,0,1-.949-.339A151.337,151.337,0,0,1,19.153,21a1.5,1.5,0,0,1,.1-2.019l2.229-2.222a4.736,4.736,0,0,0,0-6.728L14.793,3.4a4.831,4.831,0,0,0-6.8,0L4.327,7.042a7.822,7.822,0,0,0-1.007,9.917A144.58,144.58,0,0,0,21.571,39.1a145.178,145.178,0,0,0,22.3,18.126,8,8,0,0,0,10.017-1l3.664-3.641a4.733,4.733,0,0,0,0-6.724l-6.687-6.643a4.794,4.794,0,0,0-3.4-1.4,4.847,4.847,0,0,0-3.4,1.4l-2.23,2.217A1.5,1.5,0,0,1,40.78,41.878Z" transform="translate(413.496 7054.245)" fill="#160eaa"/></g></svg>