<?xml version="1.0" encoding="utf-8"?>
<!-- Generator: Adobe Illustrator 27.0.1, SVG Export Plug-In . SVG Version: 6.00 Build 0)  -->
<svg version="1.1" id="Layer_1" xmlns="http://www.w3.org/2000/svg" xmlns:xlink="http://www.w3.org/1999/xlink" x="0px" y="0px"
	 viewBox="0 0 182.01 114.49" style="enable-background:new 0 0 182.01 114.49;" xml:space="preserve">
<style type="text/css">
	.st0{fill:none;stroke:#000000;stroke-width:0.25;stroke-miterlimit:10;}
</style>
<g id="Group_811">
	<path id="Path_998" class="st0" d="M181.87,42.83l-32.21-7.68c-1.87-5.15-7.24-19.08-13.09-26.42c-1.73-2.18-5.79-5.28-20.98-7.1
		c-10.01-1.06-20.08-1.56-30.15-1.5c-8.9,0-17.88,0.32-22.88,0.82c-6.7,0.67-12.83,6.93-18.22,18.59
		c-2.03,4.47-3.76,9.08-5.17,13.78C32.2,34.6,13.03,38.57,5.61,44.82c-2.62,2.2-4.25,5.96-5,11.47c-0.54,4.74-0.63,9.53-0.26,14.29
		c0.42,6.55,1.28,13.07,2.55,19.51c0.8,3.22,4.66,3.58,8.07,3.9c2.85,0.27,6.58,0.42,10.23,0.42c2.29,0,5.63-0.06,8.48-0.35
		c0.49-0.05,0.95-0.1,1.39-0.17c0.16,11.02,9.99,19.94,22.05,19.94c12.16,0,22.05-9.07,22.05-20.22c0-0.31-0.01-0.62-0.03-0.93
		c2.93-0.02,9.56-0.08,16.16-0.23c5.18-0.12,9.33-0.27,12.35-0.45c0.6-0.04,1.14-0.07,1.65-0.11c0.9,12.55,11.09,22.47,23.49,22.47
		c12.99,0,23.55-10.89,23.55-24.28c0-0.54-0.02-1.07-0.05-1.61l22.43-1.03L181.87,42.83z M53.12,105.75
		c-7.81,0.5-15.67-5.31-15.67-12.12c0.02-1.86,0.48-3.69,1.35-5.34c4.15-5.16,8.56-7.88,13.14-8.09
		C70.77,81.52,67.61,104.83,53.12,105.75 M128.8,107.06c-8.04,0.72-14.65-8.5-14.65-16.98s6.57-15.38,14.65-15.38
		C149.58,78.67,144.37,105.67,128.8,107.06 M167.57,80.28l-16.71,0.8c-0.26-0.53-0.54-1.05-0.86-1.57
		c-3.81-8.3-12.07-13.64-21.2-13.71c-11.36,0.15-21.02,8.3-23.08,19.46c-5.2,0.45-20.03,0.76-32.12,0.84
		c-3.26-7.43-11.21-12.69-20.47-12.69c-3.57-0.01-7.09,0.79-10.3,2.34c-4.88,1.92-9.04,5.3-11.9,9.69
		c-1.32,0.27-19.01,0.29-21.16-0.02C8.56,78.58,7.81,71.65,7.54,64.7c1.47,0.67,3.08,0.98,4.7,0.92c4.95,0,5.19-14.39,5.14-19.07
		c7.79-3.26,15.9-5.7,24.19-7.28l2.39-0.39c0,0,13.55-28.86,19.35-30.51c8.07-2.3,62.61-2.83,67.69,3.4
		c6.4,7.83,12.24,27.56,12.3,27.74l0.66,1.94l26.92,7.03L167.57,80.28z"/>
	<path id="Path_999" class="st0" d="M126.57,17.88c-7.98-2.23-23.31-7.61-22.99,7.85s-2.87,16.68,5.11,18.55s22.66,2.15,22.99-1.64
		C131.68,42.65,134.55,20.12,126.57,17.88"/>
	<path id="Path_1000" class="st0" d="M93.81,15.95c-7.98-2.24-24.27-4.63-29.38,1.76c-7.55,9.44-17.03,23.51-9.05,25.38
		s39.91,2.3,40.24-1.49C95.62,41.6,101.8,18.19,93.81,15.95"/>
</g>
</svg>
