<svg xmlns="http://www.w3.org/2000/svg" xmlns:xlink="http://www.w3.org/1999/xlink" width="181.733" height="114.236" viewBox="0 0 181.733 114.236">
  <defs>
    <clipPath id="clip-path">
      <rect id="Rectangle_132" data-name="Rectangle 132" width="181.733" height="114.237" fill="#c6e5cd"/>
    </clipPath>
  </defs>
  <g id="Group_1144" data-name="Group 1144" transform="translate(-1358.896 -8240.181)">
    <g id="Group_859" data-name="Group 859" transform="translate(1358.896 8240.181)">
      <g id="Group_811" data-name="Group 811" clip-path="url(#clip-path)">
        <path id="Path_998" data-name="Path 998" d="M181.733,42.7l-32.208-7.683c-1.872-5.15-7.245-19.082-13.089-26.42-1.732-2.176-5.792-5.279-20.98-7.1A269.471,269.471,0,0,0,85.306,0c-8.9,0-17.877.324-22.876.824-6.7.67-12.833,6.926-18.215,18.594A109.8,109.8,0,0,0,39.04,33.2C32.059,34.474,12.889,38.44,5.47,44.689c-2.616,2.2-4.251,5.956-5,11.472A74.5,74.5,0,0,0,.212,70.448,150.331,150.331,0,0,0,2.764,89.96c.8,3.22,4.663,3.582,8.067,3.9,2.845.267,6.575.42,10.233.42,2.294,0,5.626-.06,8.478-.348.489-.049.951-.1,1.391-.165.16,11.023,9.989,19.945,22.049,19.945,12.16,0,22.053-9.07,22.053-20.218,0-.313-.009-.625-.025-.934,2.926-.019,9.563-.077,16.162-.228,5.182-.119,9.335-.272,12.346-.454.6-.036,1.144-.074,1.651-.112.9,12.546,11.091,22.469,23.486,22.469,12.986,0,23.551-10.893,23.551-24.284,0-.54-.019-1.075-.053-1.606l22.434-1.029ZM52.983,105.62c-7.81.5-15.672-5.31-15.672-12.124a11.77,11.77,0,0,1,1.348-5.343c4.154-5.159,8.561-7.877,13.142-8.094,18.825,1.327,15.667,24.64,1.182,25.562m75.673,1.312c-8.044.72-14.647-8.5-14.647-16.98s6.571-15.379,14.647-15.379c20.78,3.961,15.575,30.964,0,32.359m38.771-26.781-16.709.8c-.255-.526-.544-1.049-.861-1.569a23.534,23.534,0,0,0-21.2-13.715,23.785,23.785,0,0,0-23.085,19.465c-5.2.452-20.029.763-32.12.838-3.262-7.433-11.207-12.694-20.468-12.694a23.519,23.519,0,0,0-10.3,2.343,25.228,25.228,0,0,0-11.9,9.693c-1.321.273-19.01.288-21.16-.016A154.206,154.206,0,0,1,7.4,64.573a10.456,10.456,0,0,0,4.7.923c4.952,0,5.194-14.389,5.141-19.074a122.219,122.219,0,0,1,24.188-7.28l2.388-.391S57.368,9.89,63.172,8.237c8.074-2.3,62.608-2.828,67.694,3.4,6.4,7.827,12.235,27.559,12.3,27.739l.663,1.945,26.917,7.027Z" transform="translate(0 0.001)" fill="#c6e5cd"/>
        <path id="Path_999" data-name="Path 999" d="M468.42,67.556c-7.984-2.235-23.313-7.607-22.993,7.853s-2.874,16.684,5.109,18.554S473.2,96.111,473.53,92.32c0,0,2.874-22.529-5.109-24.765" transform="translate(-341.989 -49.803)" fill="#c6e5cd"/>
        <path id="Path_1000" data-name="Path 1000" d="M266.92,60.493c-7.984-2.235-24.274-4.631-29.384,1.756-7.555,9.444-17.031,23.513-9.047,25.382s39.906,2.3,40.241-1.493c0,0,6.175-23.41-1.81-25.646" transform="translate(-173.246 -44.67)" fill="#c6e5cd"/>
      </g>
    </g>
  </g>
</svg>
