<svg xmlns="http://www.w3.org/2000/svg" xmlns:xlink="http://www.w3.org/1999/xlink" width="734.419" height="511.348" viewBox="0 0 734.419 511.348">
  <defs>
    <clipPath id="clip-path">
      <path id="Rectangle_133" data-name="Rectangle 133" d="M.054,0h31.7l.03,30.546H0Z" fill="#f0c7e6"/>
    </clipPath>
    <clipPath id="clip-path-2">
      <path id="Rectangle_133-2" data-name="Rectangle 133" d="M40.517,11.985,28.129,41.17,0,29.263,12.421,0Z" fill="#f0c7e6"/>
    </clipPath>
    <clipPath id="clip-path-3">
      <path id="Rectangle_133-3" data-name="Rectangle 133" d="M0,23.707,29.276,0,52.154,28.183,22.785,51.966Z" fill="#f0c7e6"/>
    </clipPath>
    <clipPath id="clip-path-5">
      <rect id="Rectangle_133-5" data-name="Rectangle 133" width="42.98" height="41.469" fill="#f0c7e6"/>
    </clipPath>
    <clipPath id="clip-path-8">
      <rect id="Rectangle_133-8" data-name="Rectangle 133" width="48.001" height="46.315" fill="#f0c7e6"/>
    </clipPath>
    <clipPath id="clip-path-9">
      <rect id="Rectangle_133-9" data-name="Rectangle 133" width="42.128" height="40.041" fill="#f0c7e6"/>
    </clipPath>
    <clipPath id="clip-path-10">
      <rect id="Rectangle_138" data-name="Rectangle 138" width="33.101" height="44.271" fill="#f0c7e6"/>
    </clipPath>
    <clipPath id="clip-path-12">
      <rect id="Rectangle_139" data-name="Rectangle 139" width="44.793" height="47.168" fill="#f0c7e6"/>
    </clipPath>
    <clipPath id="clip-path-13">
      <rect id="Rectangle_139-2" data-name="Rectangle 139" width="42.63" height="44.89" fill="#f0c7e6"/>
    </clipPath>
  </defs>
  <g id="Group_1143" data-name="Group 1143" transform="translate(-1237 -7069.013)">
    <g id="Group_994" data-name="Group 994" transform="translate(-0.342 28.887)">
      <g id="Group_852" data-name="Group 852" transform="translate(154.898 101.016)">
        <g id="Group_817" data-name="Group 817" transform="translate(1281.469 7158.097)">
          <g id="Group_815" data-name="Group 815" clip-path="url(#clip-path)">
            <path id="Path_1003" data-name="Path 1003" d="M11.764,15.256c-1.014.288-2.188.635-3.392,1.019s-2.44.807-3.577,1.246a24.816,24.816,0,0,0-2.989,1.345A4.217,4.217,0,0,0,.177,20.183c-.4.726-.022,1.716.788,2.8a20.816,20.816,0,0,0,3.4,3.352A43.187,43.187,0,0,0,8.331,29.2a11.854,11.854,0,0,0,2.5,1.341c.269.057.674-.4,1.157-1.19A32.275,32.275,0,0,0,13.614,26.2c.578-1.253,1.173-2.646,1.727-3.989s1.065-2.637,1.475-3.694l3.762-3.64c1.057-.439,2.317-.983,3.6-1.591s2.6-1.277,3.764-1.964a15.4,15.4,0,0,0,2.871-2.072c.691-.679,1.058-1.332.924-1.915a6.228,6.228,0,0,0-2.364-3.146,20.741,20.741,0,0,0-4.28-2.548A21.733,21.733,0,0,0,20.865.174c-1.184-.253-2.031-.243-2.216.11A11.663,11.663,0,0,0,18.1,1.89c-.232.788-.5,1.787-.789,2.877s-.583,2.27-.868,3.418-.556,2.265-.788,3.227Z" fill="#f0c7e6"/>
          </g>
        </g>
        <g id="Group_836" data-name="Group 836" transform="translate(1378.836 7231.847)">
          <g id="Group_815-2" data-name="Group 815" clip-path="url(#clip-path-2)">
            <path id="Path_1003-2" data-name="Path 1003" d="M21.9,16.8c.131-1.046.271-2.262.387-3.521s.21-2.561.251-3.78a24.816,24.816,0,0,0-.07-3.277,4.217,4.217,0,0,0-.575-2.013c-.513-.65-1.571-.691-2.884-.368a20.816,20.816,0,0,0-4.412,1.817A43.188,43.188,0,0,0,10.4,8.195,11.855,11.855,0,0,0,8.192,9.977c-.157.225.107.778.643,1.53a32.275,32.275,0,0,0,2.271,2.725c.928,1.022,1.977,2.114,3,3.148s2.011,2.01,2.824,2.8l1.881,4.885c-.009,1.144,0,2.517.056,3.938s.159,2.892.337,4.232a15.4,15.4,0,0,0,.786,3.452c.355.9.813,1.494,1.4,1.6a6.228,6.228,0,0,0,3.82-.947A20.741,20.741,0,0,0,29.226,34.4a21.733,21.733,0,0,0,3-3.322c.695-.991,1.018-1.775.765-2.083a11.663,11.663,0,0,0-1.263-1.136c-.634-.522-1.448-1.162-2.34-1.85s-1.861-1.423-2.807-2.134-1.867-1.4-2.663-1.986Z" transform="translate(0)" fill="#f0c7e6"/>
          </g>
        </g>
        <g id="Group_840" data-name="Group 840" transform="translate(1482.141 7389.538)">
          <g id="Group_815-3" data-name="Group 815" clip-path="url(#clip-path-3)">
            <path id="Path_1003-3" data-name="Path 1003" d="M22.218,29.039c-.722,1.024-1.546,2.223-2.371,3.479s-1.65,2.571-2.372,3.827a29.5,29.5,0,0,0-1.755,3.479,5.014,5.014,0,0,0-.52,2.434c.175.968,1.263,1.6,2.821,2a24.733,24.733,0,0,0,5.644.556,51.32,51.32,0,0,0,5.811-.321,14.089,14.089,0,0,0,3.317-.635c.291-.148.322-.876.179-1.965a38.377,38.377,0,0,0-.863-4.128c-.4-1.59-.9-3.322-1.389-4.977s-.989-3.232-1.4-4.515l.753-6.176c.648-1.2,1.4-2.641,2.138-4.164s1.446-3.123,2.008-4.629a18.294,18.294,0,0,0,1.1-4.06,2.657,2.657,0,0,0-.579-2.459A7.4,7.4,0,0,0,30.2,5.646a24.65,24.65,0,0,0-5.858.849,25.829,25.829,0,0,0-5,1.813c-1.282.652-2.058,1.295-1.964,1.759a13.852,13.852,0,0,0,.691,1.9c.374.9.871,2.027,1.422,3.246s1.158,2.531,1.754,3.8,1.179,2.507,1.685,3.569Z" transform="translate(0)" fill="#f0c7e6"/>
          </g>
        </g>
        <g id="Group_842" data-name="Group 842" transform="translate(1696.102 7392.743)">
          <g id="Group_815-4" data-name="Group 815" clip-path="url(#clip-path-3)">
            <path id="Path_1003-4" data-name="Path 1003" d="M22.218,29.039c-.722,1.024-1.546,2.223-2.371,3.479s-1.65,2.571-2.372,3.827a29.5,29.5,0,0,0-1.755,3.479,5.014,5.014,0,0,0-.52,2.434c.175.968,1.263,1.6,2.821,2a24.733,24.733,0,0,0,5.644.556,51.321,51.321,0,0,0,5.811-.321,14.088,14.088,0,0,0,3.317-.635c.291-.148.322-.876.179-1.965a38.377,38.377,0,0,0-.863-4.128c-.4-1.59-.9-3.322-1.389-4.977s-.989-3.232-1.4-4.515l.753-6.176c.648-1.2,1.4-2.641,2.138-4.164s1.446-3.123,2.008-4.629a18.294,18.294,0,0,0,1.1-4.06,2.657,2.657,0,0,0-.579-2.459A7.4,7.4,0,0,0,30.2,5.646a24.65,24.65,0,0,0-5.858.849,25.829,25.829,0,0,0-5,1.813c-1.282.652-2.058,1.295-1.964,1.759a13.852,13.852,0,0,0,.691,1.9c.374.9.871,2.027,1.422,3.246s1.158,2.531,1.754,3.8,1.179,2.507,1.685,3.569Z" fill="#f0c7e6"/>
          </g>
        </g>
        <g id="Group_579" data-name="Group 579" transform="matrix(0.995, -0.105, 0.105, 0.995, 1082.443, 6954.23)">
          <path id="Path_352" data-name="Path 352" d="M9.034,4.87C9.329,2.768,6.909.337,4.717.029A4.5,4.5,0,0,0,0,4.009C-.01,9.781,6.018,8.563,6.992,8A4.334,4.334,0,0,0,9.034,4.87" transform="translate(34.626 42.094)" fill="#f0c7e6"/>
          <path id="Path_353" data-name="Path 353" d="M2.147.7C-1.212,3.019.216,6.756.843,7.759A4.8,4.8,0,0,0,7.492,8.97,4.742,4.742,0,0,0,9,2.428C7.566.14,4.245-.742,2.147.7" transform="translate(63.002 37.202)" fill="#f0c7e6"/>
          <path id="Path_354" data-name="Path 354" d="M24.07.844C15.02,10.221,3.934,2.66,2.549,2.324-.119,1.673-1.044,5.437,1.493,7.183c11.1,7.637,23.482,1.891,25.98-3.408,1.016-2.153-1.117-5.3-3.4-2.931" transform="translate(41.803 55.444)" fill="#f0c7e6"/>
          <path id="Path_355" data-name="Path 355" d="M144.615,122.2c-1.294-5.707-16.049-11.037-17.01-9.194-.66,1.267-2.687,9.5-3.889,14.512a44.747,44.747,0,0,0-9.411-3.883A67.36,67.36,0,0,0,91.356,121.5c3.654-3.336,7.829-7.7,7.113-9.66-1.652-4.52-15.176-3.723-15.641-2.078-.3,1.062-.149,7.021,0,11.109-8.027-1.763-15.651-6.713-12.9-14.152C75.4,91.9,95.463,53.682,100.972,43.039c2.875,4.13,6.936,9.107,9.877,9.225,5.044.2,9.5-11.912,8.132-13.064-1.236-1.037-14.059-2.192-16.611-2.413-.04-.107-.085-.215-.133-.325,1.763-1.643,10.481-9.879,10.092-11.814-.731-3.636-16.75-4.241-17.44-2.725-.308.677.175,3.872.8,7.2-5.792-5.142-13.9-11.13-18.079-14.145-5.2-3.754-10.353-7.272-14.5-9.908C56.174.661,54.11-.223,52.6.043,46.24,1.166,26.23,27.839,16.231,41.666c.365-2.932.408-5.545-.546-5.772-4.274-1.019-16.617,6.718-15.629,8s11.326,7.837,11.326,7.837S1.335,60.282,1.638,62.385c.285,1.98,14.543,4.192,15.4,2.818.45-.726-.242-4.871-.995-8.618l44.91,54.129c1.032,4.325,2.539,7.4,4.221,9.325a22.944,22.944,0,0,0,9.68,6.433,29.861,29.861,0,0,0,3.158.932c-3.531,1.931-7.746,4.412-8.33,5.547C68.06,136.1,80.7,142,83.012,141.316c1.124-.33,2.374-8.593,2.953-12.913q2.545.074,5.3-.114a61.078,61.078,0,0,1,21.158,1.853,39.371,39.371,0,0,1,6.251,2.383c-5.266,1.5-13.844,4.229-15.033,6.412C101.58,142.713,115.593,152,117.482,152.4c1.393.3,5.621-10.133,7.747-15.634.363.308.718.621,1.061.945a25.144,25.144,0,0,1,7.931,19.077,3.387,3.387,0,0,0,3.349,3.426h.038A3.388,3.388,0,0,0,141,156.862a33.122,33.122,0,0,0-2.457-13.111,31.629,31.629,0,0,0-7.6-10.97q-.406-.383-.827-.754c5.489-2.284,15.192-6.787,14.5-9.826M63.436,103.779,18.828,49.735C21.734,46.043,47.683,10.174,52.86,6.254c3.187,1.683,12.208,8.566,22.187,15.851C87.054,30.87,94.3,36.427,96.159,38.672c-4,8.2-25.539,50.406-32.724,65.108" transform="translate(0 0)" fill="#f0c7e6"/>
        </g>
        <path id="Path_893" data-name="Path 893" d="M-6628.241-22192.727c-272.039-55.34-602.442,42.795-590.774-86.541,14.668-123.25,255.4-58.32,231.183-137.74s-202.509,34.426-221.009-113.676" transform="translate(8444.406 29625.842)" fill="none" stroke="#f0c7e6" stroke-width="7"/>
        <g id="Group_816" data-name="Group 816" transform="matrix(0.966, 0.259, -0.259, 0.966, 1232.138, 7107.976)">
          <g id="Group_815-5" data-name="Group 815" clip-path="url(#clip-path-5)">
            <path id="Path_1003-5" data-name="Path 1003" d="M15.89,20.74C10.4,22.3,1.455,25.15.215,27.426-1.932,31.363,12.68,41.045,14.65,41.463c1.452.308,5.861-10.567,8.079-16.3l5.092-4.94c5.724-2.382,15.841-7.077,15.122-10.246C41.594,4.023,26.209-1.535,25.206.387c-.689,1.321-2.8,9.9-4.056,15.132Z" transform="translate(0 0)" fill="#f0c7e6"/>
          </g>
        </g>
        <g id="Group_839" data-name="Group 839" transform="matrix(0.966, 0.259, -0.259, 0.966, 1228.082, 7367.947)">
          <g id="Group_815-6" data-name="Group 815" clip-path="url(#clip-path-5)">
            <path id="Path_1003-6" data-name="Path 1003" d="M15.89,20.74C10.4,22.3,1.455,25.15.215,27.426-1.932,31.363,12.68,41.045,14.65,41.463c1.452.308,5.861-10.567,8.079-16.3l5.092-4.94c5.724-2.382,15.841-7.077,15.122-10.246C41.594,4.023,26.209-1.535,25.206.387c-.689,1.321-2.8,9.9-4.056,15.132Z" transform="translate(0 0)" fill="#f0c7e6"/>
          </g>
        </g>
        <g id="Group_818" data-name="Group 818" transform="translate(1346.401 7168.227) rotate(-25)">
          <g id="Group_815-7" data-name="Group 815" clip-path="url(#clip-path-5)">
            <path id="Path_1003-7" data-name="Path 1003" d="M15.89,20.74C10.4,22.3,1.455,25.15.215,27.426-1.932,31.363,12.68,41.045,14.65,41.463c1.452.308,5.861-10.567,8.079-16.3l5.092-4.94c5.724-2.382,15.841-7.077,15.122-10.246C41.594,4.023,26.209-1.535,25.206.387c-.689,1.321-2.8,9.9-4.056,15.132Z" transform="translate(0 0)" fill="#f0c7e6"/>
          </g>
        </g>
        <g id="Group_838" data-name="Group 838" transform="translate(1401.109 7413.47) rotate(-37)">
          <g id="Group_815-8" data-name="Group 815" clip-path="url(#clip-path-8)">
            <path id="Path_1003-8" data-name="Path 1003" d="M17.747,23.163C11.614,24.909,1.625,28.089.24,30.63c-2.4,4.4,13.922,15.21,16.122,15.677,1.622.344,6.546-11.8,9.023-18.207l5.687-5.518c6.393-2.66,17.692-7.9,16.889-11.443C46.453,4.493,29.271-1.714,28.151.432c-.769,1.475-3.13,11.058-4.53,16.9Z" transform="translate(0 0)" fill="#f0c7e6"/>
          </g>
        </g>
        <g id="Group_837" data-name="Group 837" transform="matrix(0.545, -0.839, 0.839, 0.545, 1288.091, 7273.821)">
          <g id="Group_815-9" data-name="Group 815" clip-path="url(#clip-path-9)">
            <path id="Path_1003-9" data-name="Path 1003" d="M15.575,20.026C10.193,21.535,1.426,24.284.21,26.481c-2.1,3.8,12.219,13.15,14.149,13.553,1.424.3,5.745-10.2,7.919-15.741l4.991-4.77c5.611-2.3,15.527-6.833,14.822-9.893C40.769,3.885,25.689-1.482,24.707.374c-.675,1.275-2.747,9.56-3.975,14.611Z" transform="translate(0 0)" fill="#f0c7e6"/>
          </g>
        </g>
        <g id="Group_835" data-name="Group 835" transform="translate(1438.747 7222.217) rotate(-101)">
          <g id="Group_834" data-name="Group 834" clip-path="url(#clip-path-10)">
            <path id="Path_1030" data-name="Path 1030" d="M5.168,22.877c2.1,7.111,8.956,21.243,12.648,21.391,6.331.253,16.819-14.291,15.1-15.737-1.551-1.3-18.857-7.131-22.061-7.408-.05-.134-.106-.27-.167-.407,2.213-2.062,9.31-15.868,8.822-18.3C18.589-2.146.9.806.039,2.71c-.386.85,2.152,10.076,5.129,20.167" transform="translate(0 0)" fill="#f0c7e6"/>
          </g>
        </g>
        <g id="Group_841" data-name="Group 841" transform="translate(1330.201 7440.116) rotate(-144)">
          <g id="Group_834-2" data-name="Group 834" clip-path="url(#clip-path-10)">
            <path id="Path_1030-2" data-name="Path 1030" d="M5.168,22.877c2.1,7.111,8.956,21.243,12.648,21.391,6.331.253,16.819-14.291,15.1-15.737-1.551-1.3-18.857-7.131-22.061-7.408-.05-.134-.106-.27-.167-.407,2.213-2.062,9.31-15.868,8.822-18.3C18.589-2.146.9.806.039,2.71c-.386.85,2.152,10.076,5.129,20.167" transform="translate(0 0)" fill="#f0c7e6"/>
          </g>
        </g>
        <g id="Group_844" data-name="Group 844" transform="translate(1252.745 7285.398) rotate(76)">
          <g id="Group_843" data-name="Group 843" transform="translate(0 0)" clip-path="url(#clip-path-12)">
            <path id="Path_1031" data-name="Path 1031" d="M16.527,22.763c-5.849,1.665-14.981,3.566-16.3,5.991C-2.061,32.948,13.765,47.168,18.1,47.168c3.25,0,3.353-13.586,5.715-19.7l4.795-4.533c6.1-2.537,16.913-5.476,16.147-8.852C43.317,7.747,28.609-2.084,24.9.391c-1.32.88-2.059,11.967-3.394,17.539Z" transform="translate(0 0)" fill="#f0c7e6"/>
          </g>
        </g>
        <g id="Group_845" data-name="Group 845" transform="matrix(-0.839, 0.545, -0.545, -0.839, 1643.329, 7421.492)">
          <g id="Group_843-2" data-name="Group 843" clip-path="url(#clip-path-13)">
            <path id="Path_1031-2" data-name="Path 1031" d="M15.729,21.664c-5.567,1.584-14.258,3.394-15.515,5.7C-1.962,31.357,13.1,44.89,17.223,44.89c3.093,0,3.191-12.93,5.439-18.745l4.563-4.315c5.8-2.414,16.1-5.211,15.368-8.424C41.225,7.373,27.228-1.984,23.693.373c-1.256.838-1.959,11.389-3.23,16.692Z" transform="translate(0 0)" fill="#f0c7e6"/>
          </g>
        </g>
      </g>
    </g>
  </g>
</svg>
