<svg xmlns="http://www.w3.org/2000/svg" width="163.362" height="50.278" viewBox="0 0 163.362 50.278"><g transform="translate(-301.139 -8984.729)"><g transform="translate(-60 198.309)"><path d="M390.242,18.889h3.277l2.428,7.74h.031l2.428-7.74h3.277V29.1h-1.96V20.674h-.031L396.944,29.1h-1.961l-2.751-8.428-.03.031v8.4h-1.961Z" transform="translate(31.199 8779.25)" fill="#a9a9a9"/><rect width="2.048" height="10.212" transform="translate(436.006 8798.139)" fill="#a9a9a9"/><path d="M418.625,18.889h2.517l3.892,7.637h.026V18.889h1.962V29.1h-2.5l-3.908-7.637h-.025V29.1h-1.964Z" transform="translate(22.559 8779.25)" fill="#a9a9a9"/><rect width="2.047" height="10.212" transform="translate(452.855 8798.139)" fill="#a9a9a9"/><path d="M447.972,20.684a5.317,5.317,0,0,0-2.077-.439,1.421,1.421,0,0,0-1.61,1.42c0,1.771,4.477,1.023,4.477,4.447,0,2.238-1.769,3.086-3.834,3.086a8.928,8.928,0,0,1-2.615-.393l.189-1.843a4.925,4.925,0,0,0,2.312.629c.771,0,1.815-.4,1.815-1.316,0-1.947-4.479-1.141-4.479-4.523,0-2.281,1.772-3.116,3.569-3.116a7.73,7.73,0,0,1,2.445.367Z" transform="translate(15.398 8779.327)" fill="#a9a9a9"/><path d="M454.607,20.5H451.78v-1.61h7.7V20.5h-2.828v8.6h-2.047Z" transform="translate(12.467 8779.25)" fill="#a9a9a9"/><path d="M464.721,18.889h6.032V20.5h-3.982v2.519h3.646v1.607h-3.646v2.869h4.015V29.1h-6.065Z" transform="translate(8.527 8779.25)" fill="#a9a9a9"/><path d="M476.862,18.889h2.206c2.2,0,4.815-.072,4.815,2.765a2.333,2.333,0,0,1-2.105,2.369v.031c.553.042.878.6,1.083,1.053L484.5,29.1h-2.279l-1.231-3.189c-.292-.762-.554-1.054-1.42-1.054h-.657V29.1h-2.046Zm2.046,4.361h.674c1.009,0,2.164-.147,2.164-1.42,0-1.229-1.141-1.331-2.164-1.331h-.674Z" transform="translate(4.83 8779.25)" fill="#a9a9a9"/><path d="M495.586,20.684a5.318,5.318,0,0,0-2.078-.439,1.42,1.42,0,0,0-1.61,1.42c0,1.771,4.479,1.023,4.479,4.447,0,2.238-1.772,3.086-3.835,3.086a8.933,8.933,0,0,1-2.618-.393l.189-1.843a4.933,4.933,0,0,0,2.311.629c.776,0,1.816-.4,1.816-1.316,0-1.947-4.477-1.141-4.477-4.523,0-2.281,1.769-3.116,3.57-3.116a7.718,7.718,0,0,1,2.442.367Z" transform="translate(0.904 8779.327)" fill="#a9a9a9"/><path d="M502.226,20.5H499.4v-1.61H507.1V20.5h-2.828v8.6h-2.047Z" transform="translate(-2.029 8779.25)" fill="#a9a9a9"/><path d="M509.078,18.889h2.191l2.621,8.017h.031l2.588-8.017h2.032L515.1,29.1h-2.515Z" transform="translate(-4.977 8779.25)" fill="#a9a9a9"/><path d="M529.019,18.635c3.206,0,5,2.169,5,5.254s-1.772,5.309-5,5.309c-3.274,0-5-2.177-5-5.309s1.755-5.254,5-5.254m0,8.956c2.094,0,2.869-1.859,2.869-3.7,0-1.8-.834-3.643-2.869-3.643s-2.865,1.845-2.865,3.643c0,1.843.773,3.7,2.865,3.7" transform="translate(-9.523 8779.327)" fill="#a9a9a9"/><path d="M390.248,38.219H392.3v4.389l3.687-4.389H398.5l-4.2,4.813,4.373,5.4H396l-3.669-4.74H392.3v4.74h-2.048Z" transform="translate(31.197 8773.365)" fill="#a9a9a9"/><path d="M404.176,38.219h2.047v5.9c0,1.74.557,2.883,2.124,2.883s2.117-1.143,2.117-2.883v-5.9h2.048v6.524c0,2.736-1.55,3.861-4.166,3.861s-4.171-1.125-4.171-3.861Z" transform="translate(26.959 8773.365)" fill="#a9a9a9"/><path d="M420.352,38.219H422.4v8.6h3.847v1.608h-5.9Z" transform="translate(22.033 8773.365)" fill="#a9a9a9"/><path d="M430.06,39.828h-2.827V38.219h7.7v1.608h-2.829v8.6H430.06Z" transform="translate(19.939 8773.365)" fill="#a9a9a9"/><path d="M440.076,38.219h2.048v5.9c0,1.74.553,2.883,2.118,2.883s2.124-1.143,2.124-2.883v-5.9h2.047v6.524c0,2.736-1.551,3.861-4.171,3.861s-4.167-1.125-4.167-3.861Z" transform="translate(16.029 8773.365)" fill="#a9a9a9"/><path d="M456.116,38.219h2.21c2.195,0,4.812-.074,4.812,2.764a2.335,2.335,0,0,1-2.107,2.369v.031c.559.042.878.6,1.083,1.053l1.639,3.994H461.47l-1.227-3.189c-.294-.762-.556-1.054-1.421-1.054h-.657v4.242h-2.048Zm2.048,4.361h.671c1.011,0,2.167-.147,2.167-1.421,0-1.228-1.141-1.331-2.167-1.331h-.671Z" transform="translate(11.146 8773.365)" fill="#a9a9a9"/><path d="M470.7,44.394l-3.73-6.174h2.4l2.419,4.285,2.457-4.285h2.167l-3.662,6.174v4.038H470.7Z" transform="translate(7.842 8773.365)" fill="#a9a9a9"/><path d="M305.239,37.158c0-.731.035-1.467.1-2.189l-1.107-.1-.577-.051c-.073.771-.108,1.56-.108,2.345a25.092,25.092,0,0,0,11.3,20.985l.933-1.41a23.412,23.412,0,0,1-10.535-19.575" transform="translate(57.594 8774.402)" fill="#a9a9a9"/><path d="M333.629,65.726a23.361,23.361,0,0,1-12.911-3.87l-.933,1.41a25.149,25.149,0,0,0,36.9-10.95l-1.554-.677a23.448,23.448,0,0,1-21.5,14.087" transform="translate(52.648 8769.279)" fill="#006eb7"/><path d="M370.813,20.954l-1.489.81A23.485,23.485,0,0,1,370.21,42.3l1.555.677a25.2,25.2,0,0,0-.952-22.02" transform="translate(37.568 8778.621)" fill="#ffd300"/><path d="M337.017,3.735a23.444,23.444,0,0,1,20.614,12.272l1.489-.81A25.172,25.172,0,0,0,330.915,2.788l.41,1.642a23.594,23.594,0,0,1,5.692-.7" transform="translate(49.26 8784.379)" fill="#5bc4f1"/><path d="M305.385,25.32A23.446,23.446,0,0,1,323.04,4.758l-.41-1.642A25.137,25.137,0,0,0,303.7,25.164h0l.578.052Z" transform="translate(57.545 8784.052)" fill="#db0814"/><path d="M333.63,46.657l-.3,4.449a13.555,13.555,0,0,0,8.6-1.388l-2.656-5.076a7.919,7.919,0,0,1-3.712.908,8.027,8.027,0,0,1-8.017-8.018l.051-.9-1.433-.161a9.321,9.321,0,0,0-.072,1.13,9.2,9.2,0,0,0,7.535,9.061" transform="translate(50.729 8773.898)" fill="#a9a9a9"/><path d="M322.785,33.3a11.652,11.652,0,0,0,.844,4.34l-2.1.666a16.207,16.207,0,0,0,1.617,2.917,13.8,13.8,0,0,0,8.789,5.451l.3-4.449a9.2,9.2,0,0,1-7.535-9.061,9.228,9.228,0,0,1,9.212-9.216V21.891A11.422,11.422,0,0,0,322.785,33.3" transform="translate(52.117 8778.336)" fill="#ffd300"/><path d="M316.262,33.182a16.6,16.6,0,0,1-.287-3.12,15.719,15.719,0,0,1,9.986-14.569L326.5,16.9a13.838,13.838,0,0,1,4.895-.89,14.06,14.06,0,0,1,11.332,5.843l4.222-2.98a19.056,19.056,0,0,0-34.176,15.077l2.645-.58Z" transform="translate(54.916 8781.713)" fill="#006eb7"/><path d="M320.044,37.068a13.138,13.138,0,0,1-.967-5.094A13.935,13.935,0,0,1,328.1,18.952l-.543-1.4a15.717,15.717,0,0,0-9.985,14.568,16.536,16.536,0,0,0,.287,3.12,14.211,14.211,0,0,0,2.452,5.656l1.772-.8c-.047-.065-.09-.131-.136-.195a16.207,16.207,0,0,1-1.617-2.917Z" transform="translate(53.324 8779.658)" fill="#fffcf0"/><path d="M333.652,18.288A13.917,13.917,0,0,0,319.738,32.2a13.125,13.125,0,0,0,.968,5.094l.282-.088,2.094-.666a11.652,11.652,0,0,1-.844-4.34,11.421,11.421,0,0,1,11.133-11.405c.094,0,.185-.008.28-.008a11.449,11.449,0,0,1,9.273,4.762l2.066-1.412-.006-.006a14.063,14.063,0,0,0-11.333-5.843" transform="translate(52.664 8779.433)" fill="#5bc4f1"/><path d="M320.687,47.83a13.64,13.64,0,0,0,10.889,5.448,13.665,13.665,0,0,0,11.2-5.853l4.443,3.095a19.054,19.054,0,0,1-34.246-6.776l2.645-.58.841-.185a14.207,14.207,0,0,0,2.452,5.656l1.772-.8Z" transform="translate(54.725 8771.916)" fill="#db0814"/></g></g></svg>