<svg xmlns="http://www.w3.org/2000/svg" width="158.021" height="42.449" viewBox="0 0 158.021 42.449"><g transform="translate(-70 -8988.729)"><g transform="translate(-80 199.518)"><rect width="62.458" height="42.413" transform="translate(150 8789.212)" fill="#fffcf0"/><rect width="60.056" height="40.038" transform="translate(151.201 8790.375)" fill="#039"/><path d="M42.705,18.548l1.267-.924,1.267.924-.483-1.5,1.288-.925H44.458l-.486-1.514-.486,1.516-1.586,0,1.286.925Z" transform="translate(137.244 8780.551)" fill="#fc0"/><path d="M33.277,21.08l1.267-.924,1.267.924-.482-1.5,1.287-.925H35.029l-.486-1.515-.486,1.517-1.586,0,1.286.925Z" transform="translate(140.115 8779.78)" fill="#fc0"/><path d="M27.645,24.058l-.486,1.517H25.574l1.286.924-.482,1.5,1.267-.924,1.267.924-.482-1.5,1.286-.924H28.131Z" transform="translate(142.215 8777.676)" fill="#fc0"/><path d="M25.115,36.486l1.267.924L25.9,35.915l1.286-.925H25.6l-.486-1.516-.486,1.519-1.587,0,1.287.925-.482,1.495Z" transform="translate(142.984 8774.81)" fill="#fc0"/><path d="M28.131,44.435l-.486-1.516-.486,1.517H25.574l1.286.924-.482,1.5,1.267-.927,1.267.927-.483-1.5,1.287-.924Z" transform="translate(142.215 8771.935)" fill="#fc0"/><path d="M35.043,51.347l-.486-1.514-.485,1.515H32.486l1.286.924-.481,1.5,1.267-.925,1.267.925-.481-1.5,1.286-.924Z" transform="translate(140.111 8769.829)" fill="#fc0"/><path d="M44.459,53.851l-.486-1.516-.485,1.517H41.9l1.286.924-.481,1.5,1.267-.925,1.267.925-.483-1.5,1.288-.924Z" transform="translate(137.244 8769.067)" fill="#fc0"/><path d="M53.876,51.347l-.485-1.514L52.9,51.349H51.32l1.285.924-.481,1.5,1.267-.925,1.267.925-.483-1.5,1.288-.924Z" transform="translate(134.377 8769.829)" fill="#fc0"/><path d="M60.789,44.435,60.3,42.919l-.487,1.517H58.232l1.287.924-.483,1.5,1.267-.927,1.267.927-.483-1.5,1.287-.924Z" transform="translate(132.273 8771.935)" fill="#fc0"/><path d="M64.878,34.964H63.292l-.486-1.516-.485,1.517H60.734l1.287.924-.481,1.5,1.266-.927,1.267.927-.481-1.5Z" transform="translate(131.512 8774.817)" fill="#fc0"/><path d="M59.035,27.966l1.267-.924,1.267.924-.483-1.5,1.288-.923H60.789L60.3,24.032l-.486,1.517H58.231l1.287.923Z" transform="translate(132.273 8777.684)" fill="#fc0"/><path d="M53.417,17.147l-.485,1.517-1.587,0,1.285.927-.481,1.5,1.269-.927,1.266.927-.481-1.5,1.287-.927H53.9Z" transform="translate(134.369 8779.78)" fill="#fc0"/><text transform="translate(217.859 8829.661)" fill="#58595b" font-size="10" font-family="ArialMT, Arial"><tspan x="0" y="0">NextGenerationEU</tspan></text><path d="M98.674,16.622V7.678h6.131V9.191H100.48v2.117h3.734v1.513H100.48v3.8Z" transform="translate(119.961 8782.662)" fill="#039"/><path d="M109.61,7.678h1.715V9.264H109.61Zm0,2.465h1.715v6.479H109.61Z" transform="translate(116.631 8782.663)" fill="#039"/><path d="M120.489,17.636h-1.715V14.33a5.085,5.085,0,0,0-.11-1.357.953.953,0,0,0-.357-.479,1.021,1.021,0,0,0-.595-.17,1.374,1.374,0,0,0-.8.244,1.23,1.23,0,0,0-.485.646A5.589,5.589,0,0,0,116.3,14.7v2.935h-1.715V11.158h1.592v.952a2.655,2.655,0,0,1,3.173-.894,1.741,1.741,0,0,1,.711.522,1.9,1.9,0,0,1,.335.72,5.334,5.334,0,0,1,.095,1.153Z" transform="translate(115.117 8781.648)" fill="#039"/><path d="M126.657,13.134l-1.555-.28a2.421,2.421,0,0,1,.9-1.391,3.307,3.307,0,0,1,1.9-.451,4.093,4.093,0,0,1,1.708.272,1.706,1.706,0,0,1,.79.689,3.539,3.539,0,0,1,.229,1.534l-.019,2a6.932,6.932,0,0,0,.083,1.26,3.653,3.653,0,0,0,.308.869h-1.7c-.045-.114-.1-.282-.164-.506-.029-.1-.049-.169-.061-.2a3.08,3.08,0,0,1-.94.64,2.685,2.685,0,0,1-1.068.214,2.209,2.209,0,0,1-1.577-.543,1.805,1.805,0,0,1-.577-1.372,1.844,1.844,0,0,1,.262-.979,1.717,1.717,0,0,1,.735-.659,5.732,5.732,0,0,1,1.363-.4,9.327,9.327,0,0,0,1.666-.421v-.171a.888.888,0,0,0-.244-.7,1.465,1.465,0,0,0-.921-.21,1.222,1.222,0,0,0-.714.18,1.248,1.248,0,0,0-.415.631m2.294,1.391q-.33.11-1.043.262a3.149,3.149,0,0,0-.933.3.715.715,0,0,0-.335.6.84.84,0,0,0,.268.623.937.937,0,0,0,.683.262,1.484,1.484,0,0,0,.885-.305,1.072,1.072,0,0,0,.408-.567,3.359,3.359,0,0,0,.067-.836Z" transform="translate(111.971 8781.648)" fill="#039"/><path d="M141.45,17.636h-1.715V14.33a5.084,5.084,0,0,0-.11-1.357.953.953,0,0,0-.357-.479,1.021,1.021,0,0,0-.595-.17,1.374,1.374,0,0,0-.8.244,1.23,1.23,0,0,0-.485.646,5.589,5.589,0,0,0-.131,1.489v2.935h-1.715V11.158h1.592v.952a2.655,2.655,0,0,1,3.173-.894,1.741,1.741,0,0,1,.711.522,1.9,1.9,0,0,1,.335.72,5.333,5.333,0,0,1,.095,1.153Z" transform="translate(108.736 8781.648)" fill="#039"/><path d="M152.018,13.074l-1.69.305a1.232,1.232,0,0,0-.387-.763,1.176,1.176,0,0,0-.785-.256,1.282,1.282,0,0,0-1.022.442,2.269,2.269,0,0,0-.381,1.479,2.621,2.621,0,0,0,.387,1.628,1.272,1.272,0,0,0,1.041.476,1.153,1.153,0,0,0,.8-.278,1.67,1.67,0,0,0,.439-.954l1.683.287a2.982,2.982,0,0,1-1.006,1.751,3.118,3.118,0,0,1-1.995.592,2.969,2.969,0,0,1-2.267-.9,3.477,3.477,0,0,1-.844-2.483,3.482,3.482,0,0,1,.847-2.5,3.01,3.01,0,0,1,2.293-.894,3.133,3.133,0,0,1,1.883.509,2.828,2.828,0,0,1,1,1.553" transform="translate(105.557 8781.647)" fill="#039"/><path d="M155.954,14.305a3.507,3.507,0,0,1,.421-1.653,2.889,2.889,0,0,1,1.193-1.22,3.535,3.535,0,0,1,1.724-.422,3.235,3.235,0,0,1,2.409.955,3.3,3.3,0,0,1,.94,2.413,3.337,3.337,0,0,1-.949,2.437,3.207,3.207,0,0,1-2.389.968,3.757,3.757,0,0,1-1.7-.4,2.766,2.766,0,0,1-1.23-1.18,3.94,3.94,0,0,1-.421-1.895m1.757.092a2.144,2.144,0,0,0,.458,1.476,1.5,1.5,0,0,0,2.254,0,2.177,2.177,0,0,0,.454-1.489,2.136,2.136,0,0,0-.454-1.463,1.5,1.5,0,0,0-2.254,0,2.144,2.144,0,0,0-.458,1.476" transform="translate(102.523 8781.648)" fill="#039"/><path d="M168.914,17.7,166.3,11.222h1.8l1.22,3.306.353,1.1q.141-.422.177-.555c.057-.183.118-.367.183-.55l1.233-3.306h1.763L170.458,17.7Z" transform="translate(99.373 8781.584)" fill="#039"/><path d="M178.57,12.054l-1.556-.281a2.419,2.419,0,0,1,.9-1.39,3.3,3.3,0,0,1,1.9-.451,4.106,4.106,0,0,1,1.708.271,1.7,1.7,0,0,1,.79.689,3.539,3.539,0,0,1,.229,1.534l-.019,2a6.936,6.936,0,0,0,.083,1.26,3.649,3.649,0,0,0,.308.869h-1.7c-.045-.113-.1-.282-.165-.506-.029-.1-.049-.169-.061-.2a3.1,3.1,0,0,1-.939.641,2.69,2.69,0,0,1-1.068.214,2.207,2.207,0,0,1-1.578-.543,1.8,1.8,0,0,1-.576-1.372,1.841,1.841,0,0,1,.262-.979,1.709,1.709,0,0,1,.735-.659,5.726,5.726,0,0,1,1.363-.4,9.3,9.3,0,0,0,1.665-.422v-.17a.887.887,0,0,0-.244-.7,1.46,1.46,0,0,0-.921-.211,1.227,1.227,0,0,0-.714.18,1.245,1.245,0,0,0-.415.632m2.293,1.39a10.461,10.461,0,0,1-1.043.263,3.141,3.141,0,0,0-.933.3.715.715,0,0,0-.336.6.84.84,0,0,0,.268.622.934.934,0,0,0,.683.262,1.486,1.486,0,0,0,.885-.3,1.076,1.076,0,0,0,.409-.568,3.4,3.4,0,0,0,.067-.835Zm-1.854-4.16.842-1.824h1.922l-1.678,1.824Z" transform="translate(96.166 8782.729)" fill="#039"/><path d="M193.363,17.636h-1.715V14.33a5.084,5.084,0,0,0-.11-1.357.953.953,0,0,0-.357-.479,1.021,1.021,0,0,0-.595-.17,1.374,1.374,0,0,0-.8.244,1.23,1.23,0,0,0-.485.646,5.588,5.588,0,0,0-.131,1.489v2.935h-1.715V11.158h1.592v.952a2.655,2.655,0,0,1,3.173-.894,1.741,1.741,0,0,1,.711.522,1.9,1.9,0,0,1,.335.72,5.334,5.334,0,0,1,.095,1.153Z" transform="translate(92.934 8781.648)" fill="#039"/><path d="M197.877,14.305a3.507,3.507,0,0,1,.421-1.653,2.888,2.888,0,0,1,1.193-1.22,3.535,3.535,0,0,1,1.724-.422,3.235,3.235,0,0,1,2.409.955,3.3,3.3,0,0,1,.94,2.413,3.337,3.337,0,0,1-.949,2.437,3.207,3.207,0,0,1-2.389.968,3.757,3.757,0,0,1-1.7-.4,2.766,2.766,0,0,1-1.23-1.18,3.94,3.94,0,0,1-.421-1.895m1.757.092a2.144,2.144,0,0,0,.458,1.476,1.5,1.5,0,0,0,2.254,0,2.177,2.177,0,0,0,.454-1.489,2.136,2.136,0,0,0-.454-1.463,1.5,1.5,0,0,0-2.254,0,2.144,2.144,0,0,0-.458,1.476" transform="translate(89.762 8781.648)" fill="#039"/><path d="M98.657,38.176V29.232h6.631v1.513h-4.825v1.983h4.49v1.507h-4.49V36.67h5v1.507Z" transform="translate(119.967 8776.101)" fill="#039"/><path d="M112.037,39.255l-2.611-6.479h1.8l1.22,3.306.353,1.1q.141-.422.177-.555c.057-.183.118-.367.183-.55l1.233-3.306h1.763l-2.574,6.479Z" transform="translate(116.688 8775.022)" fill="#039"/><path d="M122.218,39.19H120.5V32.712H122.1v.921a2.76,2.76,0,0,1,.735-.86,1.353,1.353,0,0,1,.741-.207,2.174,2.174,0,0,1,1.128.323l-.53,1.495a1.508,1.508,0,0,0-.805-.281.954.954,0,0,0-.61.2,1.353,1.353,0,0,0-.394.717,10.2,10.2,0,0,0-.143,2.172Z" transform="translate(113.316 8775.086)" fill="#039"/><path d="M127.029,35.859a3.507,3.507,0,0,1,.421-1.653,2.889,2.889,0,0,1,1.193-1.22,3.535,3.535,0,0,1,1.724-.422,3.235,3.235,0,0,1,2.409.955,3.3,3.3,0,0,1,.94,2.413,3.337,3.337,0,0,1-.949,2.437,3.207,3.207,0,0,1-2.389.968,3.757,3.757,0,0,1-1.7-.4,2.766,2.766,0,0,1-1.23-1.18,3.94,3.94,0,0,1-.421-1.895m1.757.092a2.144,2.144,0,0,0,.458,1.476,1.5,1.5,0,0,0,2.254,0,2.177,2.177,0,0,0,.454-1.489,2.136,2.136,0,0,0-.454-1.463,1.5,1.5,0,0,0-2.254,0,2.144,2.144,0,0,0-.458,1.476" transform="translate(111.328 8775.086)" fill="#039"/><path d="M138.5,32.712h1.6v.952a2.384,2.384,0,0,1,.842-.793,2.317,2.317,0,0,1,1.178-.305,2.471,2.471,0,0,1,1.916.885,3.581,3.581,0,0,1,.787,2.464,3.69,3.69,0,0,1-.793,2.523,2.472,2.472,0,0,1-1.922.9,2.18,2.18,0,0,1-.973-.214,3.272,3.272,0,0,1-.918-.732v3.264H138.5Zm1.7,3.129a2.492,2.492,0,0,0,.433,1.614,1.325,1.325,0,0,0,1.055.522,1.238,1.238,0,0,0,.994-.479,2.467,2.467,0,0,0,.4-1.571,2.343,2.343,0,0,0-.409-1.513,1.264,1.264,0,0,0-1.013-.495,1.318,1.318,0,0,0-1.043.485,2.163,2.163,0,0,0-.415,1.437" transform="translate(107.838 8775.086)" fill="#039"/><path d="M148.675,37.343l1.72-.262a1.265,1.265,0,0,0,.445.76,1.5,1.5,0,0,0,.94.259,1.7,1.7,0,0,0,1-.244.545.545,0,0,0,.225-.458.45.45,0,0,0-.122-.323,1.365,1.365,0,0,0-.574-.225,9.243,9.243,0,0,1-2.629-.836,1.67,1.67,0,0,1-.769-1.458,1.8,1.8,0,0,1,.665-1.415,3.106,3.106,0,0,1,2.062-.573,3.593,3.593,0,0,1,1.977.433,2.214,2.214,0,0,1,.891,1.281l-1.617.3A1,1,0,0,0,152.5,34a1.44,1.44,0,0,0-.827-.2,1.861,1.861,0,0,0-.97.189.407.407,0,0,0-.2.348.379.379,0,0,0,.171.312,6.451,6.451,0,0,0,1.6.481,4.774,4.774,0,0,1,1.913.763,1.585,1.585,0,0,1,.536,1.275,1.956,1.956,0,0,1-.744,1.531,3.293,3.293,0,0,1-2.2.641,3.612,3.612,0,0,1-2.1-.537,2.473,2.473,0,0,1-1.009-1.458" transform="translate(104.74 8775.086)" fill="#039"/><path d="M159.445,38.176V29.232h1.714v4.747l2.007-2.281h2.111l-2.215,2.367,2.373,4.112h-1.848l-1.629-2.91-.8.836v2.074Z" transform="translate(101.461 8776.101)" fill="#039"/><path d="M168.952,35.859a3.507,3.507,0,0,1,.421-1.653,2.888,2.888,0,0,1,1.193-1.22,3.535,3.535,0,0,1,1.724-.422,3.235,3.235,0,0,1,2.409.955,3.3,3.3,0,0,1,.94,2.413,3.337,3.337,0,0,1-.949,2.437,3.207,3.207,0,0,1-2.389.968,3.757,3.757,0,0,1-1.7-.4,2.766,2.766,0,0,1-1.23-1.18,3.94,3.94,0,0,1-.421-1.895m1.757.092a2.144,2.144,0,0,0,.458,1.476,1.5,1.5,0,0,0,2.254,0,2.177,2.177,0,0,0,.454-1.489,2.136,2.136,0,0,0-.454-1.463,1.5,1.5,0,0,0-2.254,0,2.144,2.144,0,0,0-.458,1.476" transform="translate(98.566 8775.086)" fill="#039"/><path d="M184.743,39.255v-.97a2.5,2.5,0,0,1-.931.818,2.609,2.609,0,0,1-1.217.3,2.377,2.377,0,0,1-1.171-.287,1.69,1.69,0,0,1-.751-.805,3.592,3.592,0,0,1-.232-1.434v-4.1h1.714v2.977a8.232,8.232,0,0,0,.095,1.674.914.914,0,0,0,.345.488,1.061,1.061,0,0,0,.634.18,1.348,1.348,0,0,0,.787-.241,1.229,1.229,0,0,0,.477-.6,6.973,6.973,0,0,0,.128-1.748V32.776h1.714v6.479Z" transform="translate(95.068 8775.022)" fill="#039"/><path d="M200.7,39.255v-.97a2.5,2.5,0,0,1-.931.818,2.608,2.608,0,0,1-1.217.3,2.378,2.378,0,0,1-1.171-.287,1.69,1.69,0,0,1-.751-.805,3.591,3.591,0,0,1-.232-1.434v-4.1h1.714v2.977a8.232,8.232,0,0,0,.095,1.674.914.914,0,0,0,.345.488,1.061,1.061,0,0,0,.634.18,1.348,1.348,0,0,0,.787-.241,1.229,1.229,0,0,0,.476-.6,6.972,6.972,0,0,0,.128-1.748V32.776H202.3v6.479Z" transform="translate(90.209 8775.022)" fill="#039"/><path d="M213.316,39.19H211.6V35.884a5.084,5.084,0,0,0-.11-1.357.953.953,0,0,0-.357-.479,1.021,1.021,0,0,0-.595-.17,1.374,1.374,0,0,0-.8.244,1.23,1.23,0,0,0-.485.646,5.589,5.589,0,0,0-.131,1.489V39.19h-1.715V32.712H209v.952a2.655,2.655,0,0,1,3.173-.894,1.741,1.741,0,0,1,.711.522,1.9,1.9,0,0,1,.335.72,5.333,5.333,0,0,1,.095,1.153Z" transform="translate(86.859 8775.086)" fill="#039"/><path d="M218.4,29.233h1.715v1.586H218.4Zm0,2.464h1.715v6.479H218.4Z" transform="translate(83.514 8776.101)" fill="#039"/><path d="M223.207,30.838l.842-1.824h1.922l-1.678,1.824Zm.128.793h1.715v6.479h-1.715Z" transform="translate(82.051 8776.167)" fill="#039"/></g></g></svg>