<?xml version="1.0" encoding="utf-8"?>
<!-- Generator: Adobe Illustrator 27.0.1, SVG Export Plug-In . SVG Version: 6.00 Build 0)  -->
<svg version="1.1" id="Layer_1" xmlns="http://www.w3.org/2000/svg" xmlns:xlink="http://www.w3.org/1999/xlink" x="0px" y="0px"
	 viewBox="0 0 1366 768" style="enable-background:new 0 0 1366 768;" xml:space="preserve">
<style type="text/css">
	.st0{fill:none;stroke:#000000;stroke-width:0.25;stroke-miterlimit:10;}
</style>
<path class="st0" d="M1031.84,305.43c-0.28,13.93-11.52,18.84-23.86,17.71c-7.63-0.7-14.34-3.45-16.87-11.5
	c-2.12-6.75-2.26-13.66,3.07-19.19c5.69-5.9,13-7.68,20.85-5.95c6.77,1.49,12.4,5.09,15.22,11.8
	C1031.19,300.51,1031.34,303.04,1031.84,305.43z"/>
<path class="st0" d="M478.12,510.98c0.08,9.97-8.8,20.31-20.62,20.16c-10.54-0.13-19.86-9.39-19.89-19.83
	c-0.03-10.77,8.74-19,20.18-18.95C469,492.43,478.14,500.8,478.12,510.98z"/>
<path class="st0" d="M1193.54,197.17c9.13,0.13,16.66,6.35,18.56,15.34c1.97,9.35-2.78,19.96-10.68,23.31
	c-5.87,2.49-11.54,1.4-16.64-2.14c-12.82-8.91-12.43-22.54-5.11-30.49C1183.38,199.17,1187.96,196.96,1193.54,197.17z"/>
<path class="st0" d="M157.88,688.46c-0.02,10.74-8.74,19.38-19.47,19.3c-10.48-0.08-19.15-8.75-19.24-19.25
	c-0.09-10.57,8.76-19.48,19.38-19.52C149.21,668.95,157.9,677.71,157.88,688.46z"/>
<path class="st0" d="M659.62,361.62c-0.05,11.13-6.7,17.61-18.08,17.63c-11.2,0.02-19.32-6.87-19.32-16.39
	c0-11.37,7.3-19.19,17.9-19.15C652.59,343.74,659.67,350.24,659.62,361.62z"/>
<path class="st0" d="M573.68,439.79c-0.04,9.61-7.66,18.88-17.08,20.77c-10.01,2.01-20.32-7.78-18.96-17.92
	c0.99-7.38,5.01-12.84,10.84-17.02c4.93-3.54,10.33-3.91,15.74-1.01C570.24,427.84,573.68,432.77,573.68,439.79z"/>
<path class="st0" d="M1244.46,175.06c-9.55-0.05-17.32-7.79-17.36-17.29c-0.04-9.5,7.88-17.49,17.24-17.39
	c10.23,0.11,17.78,7.65,17.66,17.63C1261.88,167.57,1254.12,175.12,1244.46,175.06z"/>
<path class="st0" d="M934.88,298.03c9.58,0.07,19.65,8.6,19.45,16.49c-0.23,9.2-8.16,17.75-16.55,17.44
	c-8.65-0.33-19.24-6.78-18.57-16.31C919.85,306.38,926.83,297.97,934.88,298.03z"/>
<path class="st0" d="M1284.62,119.91c-12.77-0.03-19.57-8.94-17.4-20.79c1.16-6.31,5.01-9.85,13.45-11.18
	c5.96-0.94,11.82-0.47,16.46,4.29c5.76,5.93,5.18,12.86,2.5,19.61C1297.05,118.36,1291.13,119.99,1284.62,119.91z"/>
<path class="st0" d="M246.46,672.68c-6.03,0.17-11.51-1.28-14.59-6.9c-3.4-6.2-2.93-12.71,0.38-18.82
	c2.76-5.1,10.15-7.67,17.47-6.12c3.18,0.67,6.47,1.79,9.17,3.54c5.59,3.63,6.16,9.78,4.49,17.08c-1.51,6.58-6.88,10.8-13.19,11.21
	C248.95,672.74,247.7,672.68,246.46,672.68z"/>
<path class="st0" d="M212.34,673.16c0,8.14-7.2,14.22-16.48,14.52c-10.53,0.34-16.79-11.5-17.06-19.07
	c-0.32-8.85,10.1-15.09,17.88-15.27C204.71,653.15,212.34,662.99,212.34,673.16z"/>
<path class="st0" d="M688.59,316.47c9.6,0.15,19.85,4.98,19.84,14.61c-0.01,8.79-4.77,17.05-15.28,17.62
	c-10.37,0.56-18.7-5.89-19.16-14.53C673.45,324.26,679.62,316.78,688.59,316.47z"/>
<path class="st0" d="M1139.84,275.07c-10.73-0.3-18.6-7.27-18.14-16.41c0.35-6.91,5.32-16.77,14.8-16.58
	c10.46,0.21,19.7,8.24,19.49,16.99C1155.78,267.94,1148.34,275.31,1139.84,275.07z"/>
<path class="st0" d="M597.15,412.2c-9.95-0.01-18.43-6.69-18.11-14.8c0.38-9.47,6.45-17.23,16.64-17.24
	c10.29-0.01,18.05,6.43,18,14.82C613.62,404.97,606.67,412.21,597.15,412.2z"/>
<path class="st0" d="M827.74,295.9c0.09,9.51-6.57,17.18-15.42,16.92c-9.76-0.29-18.6-4.45-18.95-14.74
	c-0.29-8.7,5.93-17.09,12.67-17.14C818.14,280.86,828.08,286.65,827.74,295.9z"/>
<path class="st0" d="M82.56,694.59c-9.36,0.12-17.86-6.73-18.02-14.51c-0.18-8.7,6.66-17.1,14.05-17.25
	c9.65-0.19,19.49,7.67,19.52,15.59C98.15,687.38,91.32,694.48,82.56,694.59z"/>
<path class="st0" d="M422.88,566.51c-0.07,9.25-7.05,16.61-15.62,16.49c-8.5-0.13-15.23-7.44-15.2-16.51
	c0.03-9.28,6.92-16.48,15.68-16.4C416.39,550.17,422.95,557.29,422.88,566.51z"/>
<path class="st0" d="M1081.93,295.78c-9.19-0.04-17.78-7.13-17.67-14.58c0.12-8.47,6.9-16.87,13.92-16.54
	c8.44,0.39,19.08,6.48,18.83,15.44C1096.78,288.48,1089.8,295.81,1081.93,295.78z"/>
<path class="st0" d="M1341.13,52.65c-0.01,9.84-5.15,14.77-15.34,14.76c-10.19-0.01-16.16-5.61-16.2-15.21
	c-0.04-9.3,5.62-14.49,15.86-14.53C1335.8,37.62,1341.15,42.73,1341.13,52.65z"/>
<path class="st0" d="M365.38,597.83c0.01,8.35-7.75,15.89-16.23,15.76c-8.3-0.13-15.67-7.55-15.76-15.89
	c-0.08-7.78,7.37-14.47,16.02-14.38C358.11,583.41,365.36,590,365.38,597.83z"/>
<path class="st0" d="M765.61,307.93c-0.19,10.76-5.75,17.89-13.82,17.71c-9.44-0.21-15.85-6.29-15.28-15.29
	c0.75-11.79,5.86-16.52,13.39-16.4C759.73,294.1,766.2,298.43,765.61,307.93z"/>
<path class="st0" d="M873.19,290.29c8.63,0.07,15.65,6.77,15.5,14.79c-0.14,7.88-7.25,14.36-15.64,14.27
	c-8.58-0.09-15.68-6.9-15.49-14.85C857.74,296.54,864.69,290.22,873.19,290.29z"/>
<path class="st0" d="M24.93,660.63c0.04-8.5,5.35-14.09,13.38-14.07c8.86,0.03,16.48,6.41,16.49,13.82
	c0.02,7.38-7.07,14.46-14.77,14.31C32.33,674.53,24.08,668.49,24.93,660.63z"/>
<path class="st0" d="M298.2,621.88c9.03,0.09,14.29,4.4,13.93,11.77c-0.41,8.41-5.12,13.37-14.15,12.99
	c-8.74-0.37-12.56-4.21-12.48-13.32C285.57,625.6,289.79,621.79,298.2,621.88z"/>
<path class="st0" d="M519.96,480.65c0.04,7.66-5.56,13.72-12.65,13.69c-6.99-0.03-12.53-5.86-12.69-13.35
	c-0.15-7.41,5.71-13.68,12.78-13.69C514.42,467.3,519.92,473.14,519.96,480.65z"/>
</svg>
