<?xml version="1.0" encoding="utf-8"?>
<!-- Generator: Adobe Illustrator 27.0.1, SVG Export Plug-In . SVG Version: 6.00 Build 0)  -->
<svg version="1.1" id="Layer_1" xmlns="http://www.w3.org/2000/svg" xmlns:xlink="http://www.w3.org/1999/xlink" x="0px" y="0px"
	 viewBox="0 0 195.15 1187.73" style="enable-background:new 0 0 195.15 1187.73;" xml:space="preserve">
<style type="text/css">
	.st0{fill:none;stroke:#000000;stroke-miterlimit:10;}
</style>
<g>
	<path class="st0" d="M144.11,160.36c-2.06-6.71-6.06-34.26-19.11-37.21l0-0.01c-15.43-3.48-31.1,6.91-31.57,21.58
		c-0.35,11.01,15.67,32.8,29.2,41.08c6,3.67,1.8-10.16,1.8-10.16s9.29,11.06,13.06,12.85c6.12,2.9-7.21-27.84-7.21-27.84
		s5.13,8.67,10.39,8.38c1.48-0.09-4.18-14.98-4.18-14.98S145,163.26,144.11,160.36z"/>
	<path class="st0" d="M97.15,64.04c-4.15-6.9-14.65-9.81-22.18-5.28c-7.53,4.53-9.88,15-5.72,21.91c4.16,6.9,13.66,8.84,21.19,4.31
		l0,0C97.96,80.45,101.3,70.94,97.15,64.04z M87.83,80.65c-4.53,3.39-11.36,1.42-13.9-2.81s-1.66-11.24,3.19-14.16
		C89.59,55.35,99.68,71.78,87.83,80.65z"/>
	<path class="st0" d="M94.85,124.39c22.42-7.72,32.95-22.71,34.63-26.38c0.79-1.75-0.62-6.29-3.11-12.94
		c7.26,9.14,15.67,18.6,18.59,17.59c4.64-1.6,3.54-19.16-0.49-33.38c-1.79-6.31-12.16-35.8-28.04-29.39l0,0
		c-2.47,1-5.78,3.12-7.01,8.8c-0.07,0.34-0.12,0.68-0.14,1.03c-9.02-12.09-20.19-22.42-32.95-30.48c-7.14-4.59-11.62-6.04-14.3-6.38
		C59.06,8.04,55.89,2.94,55.3,2.2c-1.15-1.42-2.98-2.46-4.77-0.98c-1.42,1.17-0.95,3.95-0.12,5.6l4.19,10.73
		c-3.53,6.21-5.88,13.03-6.91,20.1c-1.38,8.95-1.67,18.03-0.85,27.05c0.56,6.71,1.61,13.37,3.16,19.93
		c-2.52-1.2-5.43-1.32-8.04-0.34c-24.59,9.78,15.89,63.52,24.59,60.48c3.44-1.2,2.08-13.18,0.66-21.34
		c2.87,2.97,5.82,4.45,9.05,4.36C82.58,127.6,88.85,126.45,94.85,124.39z M118.72,46.49c0.05-0.02,0.1-0.04,0.16-0.05
		c0.87-0.26,3.68-0.94,8,3.3c13.94,13.65,16.3,41.32,15.52,45.47l0.01,0c-3.66-1.86-23.68-30.62-23.68-30.62
		C116.93,61.92,111.55,50.39,118.72,46.49z M51.19,122.41c-6.31-9.69-9.66-19.19-9.95-25.07c-0.1-2.12,0.52-5.24,3.08-6.15
		c7.42-2.78,13.84,19.34,15.87,28l0,0c1.37,5.53,2.14,11.2,2.31,16.9C58.22,131.98,54.42,127.4,51.19,122.41z M64.31,103.41
		c-0.17-0.01-0.32-0.01-0.48-0.01C58.91,92.53,54.51,78.5,53.4,64.59l0,0c-0.55-6.19-0.64-12.42-0.25-18.62
		c4.82-0.09,21.36-1.44,28.33-15.16c4.44,3.17,8.67,6.61,12.67,10.31c6.17,5.73,16.11,19.77,22.64,34.17
		c-5.28,8.58-10.54,13.44-21.91,19.55C82.41,101.54,65.9,103.47,64.31,103.41z M66.95,109.75l-0.01-0.02
		c6.44-0.9,20.19-3.68,29.01-7.74c9.68-4.45,18.25-12.72,23.68-19.88c1.72,4.47,2.9,9.13,3.51,13.88l0,0
		c-2.03,5.14-26.94,26.56-47.13,23.64C75.63,119.59,72.13,119.48,66.95,109.75z"/>
	<path class="st0" d="M5.57,1102.6c2.11,9.9,4.91,20.13,8.3,30.39l8.54-2.83c-3.29-9.95-6-19.85-8.04-29.44L5.57,1102.6z"/>
	<path class="st0" d="M23.56,1158.61c7.36,17.28,13.59,27.99,13.85,28.43l7.77-4.55c-0.06-0.11-6.23-10.71-13.34-27.41
		L23.56,1158.61z"/>
	<path class="st0" d="M183.63,678.94l8.95-0.95c-1.09-10.29-2.63-20.72-4.58-31.02l-8.84,1.67
		C181.05,658.7,182.56,668.9,183.63,678.94z"/>
	<path class="st0" d="M181.99,620.34c-2.63-10.06-5.7-20.15-9.12-29.99l-8.5,2.95c3.34,9.62,6.34,19.48,8.92,29.31L181.99,620.34z"
		/>
	<path class="st0" d="M34.81,964.23l6.58,6.14c6.57-7.03,14.25-13.52,22.84-19.3l-5.03-7.47C50.05,949.76,41.84,956.7,34.81,964.23z
		"/>
	<path class="st0" d="M9.5,1057.34c0-4.4,0.17-8.76,0.51-12.98l-8.97-0.72c-0.36,4.45-0.54,9.06-0.54,13.7
		c0,5.85,0.29,11.93,0.86,18.04l8.96-0.83C9.78,1068.71,9.5,1062.92,9.5,1057.34z"/>
	<path class="st0" d="M25.92,991.17l-7.79-4.51c-5.28,9.12-9.43,19.08-12.34,29.58l8.68,2.4
		C17.17,1008.88,21.02,999.63,25.92,991.17z"/>
	<path class="st0" d="M125.5,893.01l6.74,5.97c6.91-7.79,13.37-16.24,19.2-25.12l-7.52-4.95
		C138.32,877.44,132.12,885.54,125.5,893.01z"/>
	<path class="st0" d="M136.5,512.86c-5.03-9.22-9.39-18.49-12.98-27.53l-8.37,3.32c3.72,9.38,8.24,18.97,13.44,28.52L136.5,512.86z"
		/>
	<path class="st0" d="M149.65,536.53l-7.98,4.16c4.69,9,9.1,18.32,13.09,27.7l8.28-3.52C158.96,555.27,154.45,545.74,149.65,536.53z
		"/>
	<path class="st0" d="M157.12,846l8.04,4.04c4.63-9.22,8.78-18.98,12.35-29.01l-8.48-3.02C165.59,827.69,161.58,837.11,157.12,846z"
		/>
	<path class="st0" d="M176.68,792.59l8.73,2.17c2.49-9.99,4.5-20.38,5.98-30.88l-8.91-1.26
		C181.04,772.81,179.09,782.9,176.68,792.59z"/>
	<path class="st0" d="M113.85,374.02l-8.83-1.76c-2.18,10.95-3.52,21.19-4.11,31.32l8.99,0.52
		C110.46,394.4,111.75,384.55,113.85,374.02z"/>
	<path class="st0" d="M194.47,705.25l-9,0.29c0.12,3.72,0.18,7.49,0.18,11.21c0,6.48-0.19,13-0.55,19.38l8.99,0.52
		c0.38-6.54,0.57-13.24,0.57-19.89C194.65,712.94,194.59,709.07,194.47,705.25z"/>
	<path class="st0" d="M129.32,318.67l-8.57-2.77c-2.94,9.12-6.28,19.46-9.22,29.78l8.66,2.46
		C123.08,337.98,126.39,327.72,129.32,318.67z"/>
	<path class="st0" d="M115.32,460.23c-2.52-9.87-4.23-19.89-5.08-29.79l-8.97,0.77c0.89,10.39,2.68,20.91,5.33,31.25L115.32,460.23z
		"/>
	<path class="st0" d="M82.44,929.64l4.81,7.61c8.92-5.63,17.46-11.98,25.4-18.87l-5.9-6.8C99.15,918.17,90.97,924.25,82.44,929.64z"
		/>
	<path class="st0" d="M147.76,232.03c0-10.06-1.02-19.61-3.12-29.19l-8.79,1.92c1.96,8.94,2.91,17.86,2.91,27.27
		c0,0.83-0.01,1.65-0.02,2.47l9,0.17C147.75,233.79,147.76,232.91,147.76,232.03z"/>
	<path class="st0" d="M144.89,262.2l-8.86-1.6c-1.6,8.86-3.9,18.28-7.23,29.64l8.64,2.54C140.86,281.1,143.23,271.39,144.89,262.2z"
		/>
</g>
</svg>
