<?xml version="1.0" encoding="utf-8"?>
<!-- Generator: Adobe Illustrator 27.0.1, SVG Export Plug-In . SVG Version: 6.00 Build 0)  -->
<svg version="1.1" id="Layer_1" xmlns="http://www.w3.org/2000/svg" xmlns:xlink="http://www.w3.org/1999/xlink" x="0px" y="0px"
	 viewBox="0 0 729.83 501.82" style="enable-background:new 0 0 729.83 501.82;" xml:space="preserve">
<style type="text/css">
	.st0{fill:none;stroke:#000000;stroke-width:0.25;stroke-miterlimit:10;}
</style>
<g>
	<path class="st0" d="M38.98,43.37c-2.38,0.12-4.25,2.07-4.28,4.46c0.6,5.74,6.47,3.9,7.38,3.24c1.04-0.8,1.67-2.02,1.7-3.33
		C43.86,45.61,41.19,43.45,38.98,43.37z"/>
	<path class="st0" d="M71.21,37.46c-1.67-2.13-5.06-2.65-7-1c-3.1,2.66-1.29,6.23-0.56,7.16c1.73,1.99,4.74,2.22,6.74,0.51
		C72.47,42.52,72.83,39.54,71.21,37.46C71.22,37.47,71.22,37.47,71.21,37.46z"/>
	<path class="st0" d="M66.87,54.68L66.87,54.68c-8.02,10.28-19.85,3.92-21.26,3.73c-2.72-0.37-3.25,3.47-0.54,4.95
		c11.85,6.43,23.56-0.58,25.49-6.12C71.34,54.99,68.89,52.09,66.87,54.68z"/>
	<path class="st0" d="M729.83,481.05c-29.88-6.08-60.32-10.3-90.89-13.2l0.2-1.65c0.65-1.2,1.4-2.64,2.14-4.16
		c0.74-1.52,1.45-3.12,2.01-4.63c0.52-1.31,0.89-2.67,1.1-4.06c0.23-0.86,0.02-1.79-0.58-2.46c-1.35-0.86-2.94-1.26-4.54-1.14
		c-1.98,0.05-3.95,0.33-5.86,0.85c-1.72,0.43-3.4,1.04-5,1.81c-1.28,0.65-2.06,1.29-1.96,1.76c0.18,0.65,0.41,1.28,0.69,1.9
		c0.37,0.9,0.87,2.03,1.42,3.25c0.55,1.22,1.16,2.53,1.75,3.8c0.6,1.27,1.18,2.51,1.69,3.57l-0.06,0.52
		c-33.36-2.94-66.83-4.32-99.9-4.8c3.83-4.29,9.36-9.94,9.17-12.39c-0.35-4.54-20.36-7.68-23.82-5.43
		c-2.46,1.6,3.68,11.5,5.41,17.72c-33.2-0.32-65.93,0.22-97.64,0.95l0.03-0.25c0.65-1.2,1.4-2.64,2.14-4.16
		c0.74-1.52,1.45-3.12,2.01-4.63c0.52-1.31,0.89-2.67,1.1-4.06c0.23-0.86,0.02-1.79-0.58-2.46c-1.35-0.86-2.94-1.26-4.54-1.14
		c-1.98,0.05-3.95,0.33-5.86,0.85c-1.72,0.43-3.4,1.04-5,1.81c-1.28,0.65-2.06,1.29-1.96,1.76c0.18,0.65,0.41,1.28,0.69,1.9
		c0.37,0.9,0.87,2.03,1.42,3.25c0.55,1.22,1.16,2.53,1.75,3.8c0.58,1.24,1.15,2.45,1.65,3.5c-8.55,0.21-17.02,0.42-25.4,0.64
		c-13.64,0.35-27.1,0.69-40.25,0.97l0.13-0.85c3.5-5.97,9.38-16.96,6.6-19.3c-5.2-4.4-22.66,0.98-22.26,3.37
		c0.27,1.64,4.16,10.72,6.55,16.22l-0.11,0.74c-32.41,0.6-62.77,0.66-89.23-0.81c1.82-7.55,3.01-17.41,0.74-19.2
		c-4.97-3.93-22.01,1.68-21.47,3.86c0.35,1.4,5.85,9.41,9.85,14.63c-0.8-0.06-1.6-0.12-2.4-0.18c-34.48-2.79-58.83-8.57-74.85-17.92
		c6.13-0.99,13.94-2.78,14.04-5.51c0.24-6.1-13.18-15.45-14.65-13.86c-1,1.09-5.24,8.78-7.81,13.51c-1.57-1.31-3.02-2.68-4.35-4.1
		c-9-9.6-12.7-21.83-11.3-37.28c1.23-10.32,4.17-19.59,8.85-27.87c3.91,5.38,9.18,14.63,12.19,13.11
		c5.8-2.93,11.78-19.58,8.48-22.58c-0.99-0.9-8.95,0.36-14.86,0.81c8.43-10.7,20.39-19.45,36.02-26.4
		c10.28-4.57,21.63-8.15,33.42-11.07c-1.63,5.37-3.64,13.04-2.55,15.08c2.04,3.83,17.69-3.09,19.08-4.48
		c0.87-0.88-3.65-7.74-7.15-12.76c16.75-3.64,34.05-6.19,50.22-8.56c8.61-1.26,16.97-2.49,24.9-3.82l0.18,0.46
		c-0.01,1.14,0,2.52,0.06,3.94c0.06,1.42,0.16,2.89,0.34,4.23c0.13,1.18,0.39,2.34,0.79,3.45c0.35,0.9,0.81,1.49,1.4,1.6
		c1.34,0.11,2.68-0.23,3.82-0.95c1.45-0.81,2.8-1.8,4.02-2.94c1.11-1,2.12-2.11,3-3.32c0.7-0.99,1.02-1.77,0.76-2.08
		c-0.39-0.41-0.81-0.79-1.26-1.14c-0.63-0.52-1.45-1.16-2.34-1.85c-0.89-0.69-1.86-1.42-2.81-2.13c-0.25-0.19-0.49-0.36-0.73-0.55
		c25.12-4.63,44.94-10.88,53.12-23.79c3.75-5.92,4.83-13,3.24-21.06c6.75-3.73,18.29-12.54,17.75-16.05
		c-0.96-6.26-17.24-13.78-18.33-11.82c-0.7,1.27-2.14,10.87-2.78,17.42c-11.81-26.38-42.24-28.87-76.38-28.37
		c4.21-4.74,10.04-12.05,8.22-14.39c-3.74-4.83-20.03-3.36-20.13-1.2c-0.07,1.49,1.65,10.16,2.72,15.43l-0.13,0.35
		c-1.76,0.04-3.52,0.09-5.29,0.14c-20.73,0.55-41.98,1.12-61.15-2.42c0.03-0.01,0.06-0.03,0.09-0.04c1.28-0.61,2.6-1.28,3.76-1.96
		c1.03-0.58,2-1.27,2.87-2.07c0.69-0.68,1.06-1.33,0.92-1.91c-0.43-1.28-1.26-2.38-2.36-3.15c-1.32-1.02-2.76-1.87-4.28-2.55
		c-1.36-0.63-2.77-1.12-4.23-1.47c-1.18-0.25-2.03-0.24-2.22,0.11c-0.22,0.52-0.41,1.06-0.55,1.61c-0.23,0.79-0.5,1.79-0.79,2.88
		c-0.29,1.09-0.58,2.27-0.87,3.42c-0.28,1.15-0.56,2.27-0.79,3.23l-0.04,0.04c-4.08-1.07-8.04-2.37-11.85-3.94
		c-14.67-6.05-25.84-15.87-33.68-29.66l2.22-1.24c6.15-0.82,17.14-2.73,17.26-5.98c0.24-6.1-13.18-15.45-14.65-13.86
		c-1.01,1.1-5.27,8.84-7.84,13.57l-0.6,0.34c-4.18-9.38-7.08-20.3-8.74-32.82c0.01-0.15,0.02-0.31,0-0.46
		c-0.39-4.48-1.69-8.83-3.82-12.79c-2.15-3.95-5.12-7.4-8.71-10.12c-0.3-0.23-0.6-0.45-0.9-0.66c5.22-2.85,14.4-8.35,13.4-11.3l0,0
		c-1.89-5.54-17.13-9.3-17.89-7.36c-0.52,1.33-1.68,9.73-2.35,14.85c-3.14-1.33-6.42-2.29-9.77-2.88
		c-7.65-1.23-15.45-1.13-23.06,0.29c3.29-3.7,6.98-8.48,6.06-10.36c-2.12-4.32-15.49-2.11-15.78-0.43c-0.19,1.09,0.59,7,1.17,11.05
		c-8.17-0.91-16.28-5.04-14.32-12.73c3.89-15.32,19.84-55.45,24.2-66.62c3.29,3.81,7.86,8.33,10.8,8.14
		c5.04-0.33,8.2-12.85,6.72-13.85c-1.34-0.9-14.22-0.7-16.78-0.66c-0.05-0.1-0.11-0.21-0.17-0.31c1.58-1.82,9.39-10.93,8.8-12.81
		c-1.11-3.54-17.11-2.46-17.64-0.88c-0.24,0.71,0.58,3.83,1.55,7.08c-6.3-4.51-15-9.61-19.47-12.18C68.64,9.16,63.14,6.2,58.74,4.01
		c-7.36-3.66-9.51-4.32-10.99-3.9C41.54,1.9,24.43,30.54,15.94,45.35c0.06-2.96-0.18-5.56-1.15-5.69
		c-4.36-0.57-15.83,8.43-14.71,9.6c1.12,1.17,12.09,6.61,12.09,6.61s-9.1,9.56-8.58,11.62c0.49,1.94,14.91,2.64,15.62,1.19
		c0.37-0.77-0.75-4.82-1.89-8.47l50.37,49.14c1.48,4.2,3.3,7.1,5.18,8.84c2.92,2.65,6.47,4.5,10.31,5.38
		c1.07,0.26,2.15,0.46,3.24,0.6c-3.31,2.29-7.24,5.2-7.71,6.39c-1.28,3.3,11.91,7.85,14.14,6.92c1.08-0.45,1.46-8.8,1.58-13.16
		c1.69-0.13,3.45-0.35,5.26-0.67c7.01-1.37,14.2-1.49,21.25-0.38c2.2,0.39,4.37,0.96,6.47,1.71c-5.08,2.05-13.33,5.66-14.28,7.96
		c-1.65,3.97,13.26,11.74,15.19,11.94c1.42,0.15,4.53-10.67,6.07-16.37c0.39,0.27,0.78,0.54,1.15,0.83
		c5.59,4.23,9.14,10.6,9.83,17.56l-0.3,0.04c1.75,13.97,4.95,26.13,9.63,36.54c-5.73,0.1-14.74,0.56-16.48,2.39
		c-3.09,3.25,8.51,16.38,10.31,17.3c1.15,0.58,6.61-6.36,10.41-11.46c8.54,14.65,20.69,25.15,36.61,31.72
		c2.2,0.91,4.45,1.73,6.73,2.47c-1.03,0.34-2.06,0.69-3.03,1.06c-1.02,0.38-2.02,0.83-2.99,1.35c-0.65,0.29-1.21,0.75-1.63,1.32
		c-0.4,0.73-0.02,1.72,0.79,2.8c1,1.24,2.14,2.37,3.4,3.35c1.27,1.03,2.59,1.99,3.97,2.86c0.78,0.55,1.62,1,2.5,1.34
		c0.27,0.06,0.67-0.4,1.16-1.19c0.6-1.02,1.14-2.07,1.63-3.15c0.58-1.25,1.17-2.65,1.73-3.99c0.49-1.18,0.93-2.31,1.32-3.28
		c21.49,5.08,45.45,4.44,68.77,3.82c0.71-0.02,1.42-0.04,2.13-0.06c-4.33,3.78-10.68,9.73-10.84,12.21
		c-0.28,4.48,17.05,7.08,19.01,6.62c1.45-0.33,0.85-12.05,0.43-18.19l0.33-0.86c34.45-0.7,63.34,0.87,73.66,24.95
		c-5.34-1.77-12.67-3.55-14.23-2.91c-4.3,1.77,1.97,18.58,4,19.06c0.72,0.17,6.24-2.46,13.14-5.96c0.73,5.41-0.15,10.01-2.64,13.94
		c-7.03,11.09-26.91,16.79-51.12,21.12l-0.04-0.11c0.13-1.05,0.27-2.26,0.39-3.52c0.12-1.26,0.21-2.56,0.25-3.78
		c0.05-1.09,0.03-2.19-0.07-3.28c-0.02-0.71-0.22-1.4-0.58-2.01c-0.51-0.65-1.57-0.69-2.88-0.37c-1.54,0.43-3.02,1.05-4.41,1.82
		c-1.44,0.76-2.85,1.61-4.19,2.53c-0.8,0.5-1.55,1.1-2.21,1.78c-0.16,0.23,0.11,0.78,0.64,1.53c0.71,0.95,1.46,1.86,2.27,2.72
		c0.93,1.02,1.98,2.11,3,3.15c0.25,0.25,0.5,0.5,0.74,0.74c-7.16,1.17-14.6,2.27-22.13,3.37c-16.69,2.45-34.46,5.06-51.72,8.87
		l-0.5-2.63c1.13-5.96,2.73-16.75-0.22-17.83c-5.54-2.02-18.26,7.71-17.24,9.54c0.7,1.26,6.52,7.51,10.09,11.3l0.28,1.39
		c-30.76,7.56-59.1,19.54-75.74,42.1l-1.84-1.15c-3.03-5.27-7.08-13.67-9.76-14.37c-4.62-1.21-14.59,17.59-13.54,21.8
		c0.79,3.15,13.99-0.03,20.5,0.78l0.03,0.02c-5.08,8.84-8.55,19.11-9.97,31.09c-1.57,17.41,2.86,31.8,13.16,42.79
		c0.97,1.03,2,2.03,3.06,3.01l-0.07,0.04c-5.71,0.09-15.09,0.52-16.87,2.4c-3.09,3.25,8.51,16.38,10.31,17.3
		c1.32,0.67,8.4-8.69,12.03-13.65l1.37-0.76c18.47,12.64,47.08,18.95,83.19,21.81c-5.09,2.35-11.55,5.99-12.24,7.5
		c-1.94,4.23,14.11,12.24,15.93,11.21c0.77-0.44,3.88-8.61,7.22-17.96c26.75,1.57,57.16,1.53,90.3,0.92l-0.06,0.43
		c-3.85,5.09-9.91,13.64-9.49,16.5c0.73,4.96,20.27,3.77,22.31,2.82c1.5-0.7-1.86-13.3-3.74-19.92c13.44-0.28,27.29-0.63,41.51-1
		c7.98-0.2,16.06-0.41,24.19-0.61c-0.63,0.91-1.32,1.92-2.02,2.97c-0.83,1.26-1.65,2.57-2.37,3.83c-0.66,1.12-1.25,2.28-1.76,3.48
		c-0.38,0.75-0.55,1.59-0.52,2.43c0.17,0.97,1.26,1.6,2.82,2c1.85,0.4,3.75,0.59,5.64,0.56c1.94,0,3.88-0.1,5.81-0.32
		c1.13-0.08,2.24-0.29,3.32-0.64c0.29-0.15,0.32-0.88,0.18-1.97c-0.21-1.39-0.5-2.77-0.86-4.13c-0.4-1.59-0.9-3.32-1.39-4.98
		c-0.36-1.21-0.72-2.39-1.05-3.43c31.45-0.73,63.9-1.27,96.8-0.97l-0.02,0.09c-3.55,5.19-10.67,13.15-8.3,15.44
		c4.44,4.32,21.28,4.54,22.96,0.63c0.6-1.39-4.56-10.62-6.39-15.76l0.07-0.31c33.34,0.45,67.1,1.81,100.71,4.74
		c-0.54,0.78-1.11,1.63-1.69,2.5c-0.83,1.26-1.65,2.57-2.37,3.83c-0.66,1.12-1.25,2.28-1.76,3.48c-0.38,0.75-0.55,1.59-0.52,2.43
		c0.17,0.97,1.26,1.6,2.82,2c1.85,0.4,3.75,0.59,5.64,0.56c1.94,0,3.88-0.1,5.81-0.32c1.13-0.08,2.24-0.29,3.32-0.64
		c0.29-0.15,0.32-0.88,0.18-1.97c-0.21-1.39-0.5-2.77-0.86-4.13c-0.4-1.59-0.9-3.32-1.39-4.98c-0.2-0.68-0.4-1.34-0.6-1.99
		c30.04,2.87,59.93,7.03,89.25,13L729.83,481.05z M69.43,102.19L19.37,53.1c2.5-3.98,24.56-42.39,29.3-46.84
		c3.35,1.34,13.05,7.24,23.74,13.44c12.87,7.46,20.66,12.23,22.75,14.27C92.03,42.55,75.03,86.81,69.43,102.19z"/>
</g>
</svg>
