<svg xmlns="http://www.w3.org/2000/svg" width="165.499" height="26.52" viewBox="0 0 165.499 26.52"><path d="M1293.268,18.794c-1.7-1.624-3.575-2.255-6.681-2.255h-13.809a.333.333,0,0,0-.332.333V41.527a.331.331,0,0,0,.332.331h6.684a.33.33,0,0,0,.333-.331v-6.8a.327.327,0,0,1,.315-.325h6.709c3.2,0,5.386-.8,6.893-2.506a9.643,9.643,0,0,0,2.171-6.481,8.643,8.643,0,0,0-2.614-6.617m-4.284,6.693a2.865,2.865,0,0,1-.392,1.635c-.453.659-1.375.954-2.983.954h-5.485a.329.329,0,0,1-.329-.329v-4.56a.328.328,0,0,1,.329-.328h5.523c1.544,0,2.481.32,2.942,1.009a2.84,2.84,0,0,1,.4,1.618Z" transform="translate(-1222.157 -15.567)" fill="#eabf7b"/><path d="M1189.9,16.109A12.887,12.887,0,1,0,1202.786,29,12.9,12.9,0,0,0,1189.9,16.109m0,18.5a5.615,5.615,0,1,1,5.615-5.617,5.615,5.615,0,0,1-5.615,5.617" transform="translate(-1177.013 -15.364)" fill="#eabf7b"/><path d="M1246.037,16.541h-18.994a.331.331,0,0,0-.332.333v5.68a.331.331,0,0,0,.332.333l8.942-.005a.326.326,0,0,1,.318.326.331.331,0,0,1-.045.165L1226.015,39.2a1.83,1.83,0,0,0-.322.981,1.679,1.679,0,0,0,1.63,1.678c.017,0,18.993,0,18.993,0a.332.332,0,0,0,.333-.332v-5.68a.332.332,0,0,0-.333-.333h-8.931a.324.324,0,0,1-.289-.481L1247.47,19a1.66,1.66,0,0,0,.2-.785,1.679,1.679,0,0,0-1.629-1.679" transform="translate(-1200.041 -15.568)" fill="#eabf7b"/><path d="M1329.9,20.283c1.2,0,1.778-.765,1.778-1.966a1.633,1.633,0,0,0-1.7-1.859,1.737,1.737,0,0,0-1.8,1.93c0,1.1.5,1.894,1.721,1.894m.066-3.16c.567,0,.9.388.9,1.24,0,.914-.383,1.257-.934,1.257-.582,0-.94-.363-.94-1.247,0-.858.378-1.25.975-1.25" transform="translate(-1248.519 -15.529)" fill="#eabf7b"/><path d="M1338.344,19.265a.845.845,0,0,0-.858-.9V18.35a.863.863,0,0,0,.7-.863c0-.505-.246-.9-1.118-.9H1335.6v3.7h1.347c.8,0,1.4-.261,1.4-1.016m-1.956-2.074h.408c.352,0,.618.026.618.424,0,.429-.367.495-.735.495h-.292Zm0,2.482v-.965h.48c.353,0,.639.072.639.485s-.286.48-.716.48Z" transform="translate(-1252.032 -15.589)" fill="#eabf7b"/><path d="M1343.052,20.283c1.2,0,1.777-.765,1.777-1.966a1.632,1.632,0,0,0-1.7-1.859,1.737,1.737,0,0,0-1.8,1.93c0,1.1.5,1.894,1.721,1.894m.066-3.16c.567,0,.9.388.9,1.24,0,.914-.383,1.257-.935,1.257-.582,0-.94-.363-.94-1.247,0-.858.378-1.25.976-1.25" transform="translate(-1254.742 -15.529)" fill="#eabf7b"/><path d="M1349.731,18.877h.505l.73,1.4h.848l-.837-1.6a1.075,1.075,0,0,0,.638-1.057c0-.547-.306-1.042-1.226-1.042h-1.44v3.7h.782Zm0-1.659h.435c.419,0,.638.132.638.485,0,.419-.3.557-.669.557h-.4Z" transform="translate(-1258.346 -15.589)" fill="#eabf7b"/><path d="M1356.342,20.283c1.2,0,1.777-.765,1.777-1.966a1.632,1.632,0,0,0-1.7-1.859,1.737,1.737,0,0,0-1.8,1.93c0,1.1.5,1.894,1.722,1.894m.066-3.16c.567,0,.9.388.9,1.24,0,.914-.383,1.257-.934,1.257-.583,0-.94-.363-.94-1.247,0-.858.377-1.25.975-1.25" transform="translate(-1261.028 -15.529)" fill="#eabf7b"/><path d="M1363.573,20.282l1.149-3.7h-.812l-.843,2.921h-.031l-.843-2.921h-.883l1.2,3.7Z" transform="translate(-1264.193 -15.589)" fill="#eabf7b"/><path d="M1370.87,14.724h-.828l-.465.715.546.041Z" transform="translate(-1268.104 -14.708)" fill="#eabf7b"/><path d="M1368.025,20.281l.285-.9h1.23l.307.9h.863l-1.307-3.7h-.98l-1.211,3.7Zm.872-2.957h.02l.46,1.429h-.935Z" transform="translate(-1266.985 -15.589)" fill="#eabf7b"/><path d="M1379.6,19.618h-1.792l1.721-2.447v-.586h-2.62v.659h1.705l-1.751,2.461v.577h2.736Z" transform="translate(-1271.553 -15.589)" fill="#eabf7b"/><path d="M1386.1,18.376a1.616,1.616,0,0,0-1.834-1.792h-1.3v3.7h1.21a1.73,1.73,0,0,0,1.921-1.905m-2.345,1.272v-2.43h.445c.736,0,1.093.28,1.093,1.2,0,.766-.3,1.23-1.15,1.23Z" transform="translate(-1274.436 -15.589)" fill="#eabf7b"/><path d="M1390.474,18.877h.5l.731,1.4h.846l-.837-1.6a1.075,1.075,0,0,0,.639-1.057c0-.547-.306-1.042-1.226-1.042h-1.439v3.7h.78Zm0-1.659h.434c.419,0,.639.132.639.485,0,.419-.3.557-.669.557h-.4Z" transform="translate(-1277.619 -15.589)" fill="#eabf7b"/><path d="M1396.335,19.382h1.231l.3.9h.864l-1.307-3.7h-.98l-1.21,3.7h.812Zm.587-2.058h.021l.459,1.429h-.935Z" transform="translate(-1280.241 -15.589)" fill="#eabf7b"/><path d="M1404.435,16.584h-.811l-.843,2.921h-.03l-.843-2.921h-.884l1.2,3.7h1.063Z" transform="translate(-1282.979 -15.589)" fill="#eabf7b"/><path d="M1409.278,20.283c1.2,0,1.778-.765,1.778-1.966a1.633,1.633,0,0,0-1.7-1.859,1.737,1.737,0,0,0-1.8,1.93c0,1.1.5,1.894,1.721,1.894m.067-3.16c.567,0,.9.388.9,1.24,0,.914-.383,1.257-.935,1.257-.582,0-.939-.363-.939-1.247,0-.858.378-1.25.975-1.25" transform="translate(-1286.069 -15.529)" fill="#eabf7b"/><path d="M1415.266,20.282h.792V17.248h1.077v-.663h-2.956v.663h1.087Z" transform="translate(-1289.202 -15.589)" fill="#eabf7b"/><path d="M1423.542,20.282v-3.7h-.715V19.2l-1.4-2.62h-.939v3.7h.719v-2.61l1.425,2.61Z" transform="translate(-1292.187 -15.589)" fill="#eabf7b"/><rect width="0.786" height="3.697" transform="translate(132.058 0.996)" fill="#eabf7b"/><path d="M1428.8,14.724h-.827l-.465.715.547.041Z" transform="translate(-1295.505 -14.708)" fill="#eabf7b"/><path d="M1435.632,17.739a1.076,1.076,0,0,0-1.231-1.154H1433v3.7h.781V19.088h.4c.961,0,1.445-.461,1.445-1.349m-1.849.715V17.218h.379c.382,0,.664.1.664.577,0,.542-.322.659-.726.659Z" transform="translate(-1298.106 -15.589)" fill="#eabf7b"/><path d="M1440.172,20.283c1.2,0,1.777-.765,1.777-1.966a1.632,1.632,0,0,0-1.7-1.859,1.737,1.737,0,0,0-1.8,1.93c0,1.1.5,1.894,1.721,1.894m.066-3.16c.567,0,.9.388.9,1.24,0,.914-.383,1.257-.935,1.257-.582,0-.939-.363-.939-1.247,0-.858.378-1.25.975-1.25" transform="translate(-1300.683 -15.529)" fill="#eabf7b"/><path d="M1446.3,20.343c.766,0,1.164-.367,1.164-1.1v-2.66h-.792v2.681c0,.327-.127.435-.362.435-.307,0-.347-.21-.377-.516l-.756.112a.974.974,0,0,0,1.123,1.047" transform="translate(-1303.866 -15.589)" fill="#eabf7b"/><rect width="0.786" height="3.697" transform="translate(144.271 0.996)" fill="#eabf7b"/><path d="M1454.461,19.66c-.542,0-.674-.3-.735-.659l-.715.107c.066.96.766,1.174,1.43,1.174.734,0,1.415-.332,1.415-1.169,0-1.36-1.92-.884-1.92-1.655,0-.235.174-.394.552-.394a.527.527,0,0,1,.608.557l.72-.081c-.057-.879-.659-1.083-1.318-1.083-.745,0-1.348.393-1.348,1.113,0,1.4,1.926.864,1.926,1.635,0,.342-.286.455-.613.455" transform="translate(-1307.571 -15.529)" fill="#eabf7b"/><path d="M1455.38,15.456l.547-.725-.521-.036-.383.373-.368-.368-.511.031.521.725Z" transform="translate(-1308.106 -14.694)" fill="#eabf7b"/><path d="M1459.624,20.282h.791V17.248h1.078v-.663h-2.957v.663h1.088Z" transform="translate(-1310.184 -15.589)" fill="#eabf7b"/><path d="M1460.9,15.456l.546-.725-.521-.036-.383.373-.367-.368-.511.031.522.725Z" transform="translate(-1310.716 -14.694)" fill="#eabf7b"/><path d="M1465.859,20.283c1.2,0,1.777-.765,1.777-1.966a1.632,1.632,0,0,0-1.7-1.859,1.737,1.737,0,0,0-1.8,1.93c0,1.1.5,1.894,1.721,1.894m.067-3.16c.566,0,.9.388.9,1.24,0,.914-.382,1.257-.935,1.257-.582,0-.939-.363-.939-1.247,0-.858.378-1.25.975-1.25" transform="translate(-1312.835 -15.529)" fill="#eabf7b"/><path d="M1473.09,20.282l1.149-3.7h-.812l-.843,2.921h-.03l-.843-2.921h-.884l1.2,3.7Z" transform="translate(-1315.998 -15.589)" fill="#eabf7b"/><path d="M1480.948,20.282v-3.7h-.715V19.2l-1.4-2.62h-.939v3.7h.72v-2.61l1.425,2.61Z" transform="translate(-1319.341 -15.589)" fill="#eabf7b"/><path d="M1485.534,19.382h1.23l.307.9h.863l-1.307-3.7h-.98l-1.21,3.7h.812Zm.588-2.058h.02l.46,1.429h-.935Z" transform="translate(-1322.436 -15.589)" fill="#eabf7b"/><path d="M1330.808,33.039h-1.792l1.72-2.447v-.587h-2.619v.659h1.705l-1.751,2.461V33.7h2.737Z" transform="translate(-1248.469 -21.937)" fill="#eabf7b"/><path d="M1336.22,33.7h.862l-1.307-3.7h-.98l-1.211,3.7h.813l.286-.9h1.23Zm-1.4-1.527.455-1.43h.02l.459,1.43Z" transform="translate(-1251.077 -21.937)" fill="#eabf7b"/><path d="M1341.663,30.8h.02l.843,2.906h.711l.873-2.9h.021v2.9h.735v-3.7h-1.17l-.776,2.7h-.02l-.782-2.7h-1.174v3.7h.72Z" transform="translate(-1254.559 -21.937)" fill="#eabf7b"/><path d="M1352.08,28.152l-.521-.035-.382.373-.368-.368-.511.03.521.726h.715Z" transform="translate(-1258.983 -21.045)" fill="#eabf7b"/><path d="M1349.716,33.7h2.437V33.04h-1.65v-.863h1.465v-.643H1350.5v-.868h1.557v-.659h-2.344Z" transform="translate(-1258.708 -21.937)" fill="#eabf7b"/><path d="M1356.051,33.7c.735,0,1.415-.332,1.415-1.169,0-1.358-1.92-.884-1.92-1.655,0-.234.174-.393.552-.393a.527.527,0,0,1,.608.558l.719-.083c-.056-.878-.659-1.083-1.317-1.083-.746,0-1.348.394-1.348,1.114,0,1.4,1.926.863,1.926,1.634,0,.342-.286.455-.614.455-.541,0-.673-.3-.735-.66l-.715.107c.066.961.766,1.174,1.43,1.174" transform="translate(-1261.029 -21.878)" fill="#eabf7b"/><path d="M1360.146,30.67h1.087V33.7h.792V30.67h1.078v-.664h-2.957Z" transform="translate(-1263.642 -21.937)" fill="#eabf7b"/><path d="M1368.8,32.626l-1.4-2.62h-.94v3.7h.72v-2.61l1.425,2.61h.909v-3.7h-.714Z" transform="translate(-1266.627 -21.937)" fill="#eabf7b"/><path d="M1373.813,33.7l.286-.9h1.23l.306.9h.863l-1.308-3.7h-.98L1373,33.7Zm.873-2.957h.021l.459,1.43h-.934Z" transform="translate(-1269.722 -21.937)" fill="#eabf7b"/><path d="M1383.411,33.7v-3.7h-.715v2.62l-1.4-2.62h-.94v3.7h.72v-2.61l1.425,2.61Z" transform="translate(-1273.202 -21.937)" fill="#eabf7b"/><path d="M1388.9,30.529c.475,0,.7.214.744.74l.722-.062a1.292,1.292,0,0,0-1.455-1.328,1.725,1.725,0,0,0-1.783,1.956c0,1.145.481,1.869,1.706,1.869a1.4,1.4,0,0,0,1.522-1.19l-.711-.122a.726.726,0,0,1-.8.664c-.581,0-.9-.353-.9-1.261,0-.879.357-1.267.96-1.267" transform="translate(-1276.407 -21.878)" fill="#eabf7b"/><path d="M1396.3,28.992a.551.551,0,1,0,0-1.1.544.544,0,0,0-.587.567.524.524,0,0,0,.587.532m0-.8a.214.214,0,0,1,.24.235.221.221,0,0,1-.24.25.243.243,0,1,1,0-.485" transform="translate(-1280.466 -20.938)" fill="#eabf7b"/><path d="M1394.034,30.006V32.35c0,.965.434,1.414,1.456,1.414.924,0,1.491-.413,1.491-1.394V30.006h-.786v2.252c0,.6-.154.848-.675.848-.547,0-.695-.286-.695-.863V30.006Z" transform="translate(-1279.672 -21.937)" fill="#eabf7b"/><path d="M1405.331,31.783v-.01a.866.866,0,0,0,.7-.863c0-.505-.246-.9-1.119-.9h-1.465v3.7h1.348c.8,0,1.394-.259,1.394-1.016a.847.847,0,0,0-.858-.9m-1.1-1.17h.41c.352,0,.617.027.617.425,0,.429-.368.5-.735.5h-.292Zm.4,2.483h-.4v-.965h.481c.352,0,.638.071.638.484s-.286.481-.715.481" transform="translate(-1284.125 -21.937)" fill="#eabf7b"/><path d="M1410.056,30.006l-1.21,3.7h.812l.286-.9h1.231l.306.9h.863l-1.307-3.7Zm.02,2.171.454-1.43h.021l.46,1.43Z" transform="translate(-1286.679 -21.937)" fill="#eabf7b"/><path d="M1418.349,32.626l-1.4-2.62h-.939v3.7h.72v-2.61l1.425,2.61h.909v-3.7h-.715Z" transform="translate(-1290.068 -21.937)" fill="#eabf7b"/><path d="M1424.835,31.543l1.353-1.537h-.838l-1.435,1.584V30.006h-.781v3.7h.781v-1.16l.357-.388.975,1.548h.92Z" transform="translate(-1293.438 -21.937)" fill="#eabf7b"/><path d="M1428.775,37.056l.629.062.5-1.374h-.807Z" transform="translate(-1296.106 -24.651)" fill="#eabf7b"/><path d="M1436.175,30.006h-1.4v3.7h.781V32.509h.4c.961,0,1.446-.46,1.446-1.349a1.075,1.075,0,0,0-1.231-1.154m-.3,1.869h-.317V30.64h.379c.383,0,.664.1.664.576,0,.542-.322.658-.726.658" transform="translate(-1298.944 -21.937)" fill="#eabf7b"/><path d="M1442.027,29.879a1.738,1.738,0,0,0-1.8,1.931c0,1.1.5,1.894,1.721,1.894,1.2,0,1.776-.766,1.776-1.966a1.632,1.632,0,0,0-1.694-1.859m-.051,3.161c-.582,0-.94-.362-.94-1.245,0-.859.378-1.252.975-1.252.567,0,.9.387.9,1.24,0,.914-.383,1.256-.935,1.256" transform="translate(-1301.522 -21.878)" fill="#eabf7b"/><path d="M1448.448,32.687c0,.327-.128.434-.363.434-.307,0-.347-.209-.378-.515l-.756.112a.975.975,0,0,0,1.124,1.047c.766,0,1.165-.367,1.165-1.1V30.006h-.792Z" transform="translate(-1304.703 -21.937)" fill="#eabf7b"/><rect width="0.786" height="3.697" transform="translate(145.205 8.068)" fill="#eabf7b"/><path d="M1455.708,30.879c0-.234.174-.392.552-.392a.526.526,0,0,1,.607.557l.72-.083c-.055-.878-.659-1.083-1.317-1.083-.746,0-1.349.395-1.349,1.115,0,1.4,1.926.863,1.926,1.634,0,.343-.286.455-.613.455-.542,0-.674-.3-.736-.66l-.715.108c.067.96.767,1.174,1.431,1.174.735,0,1.414-.332,1.414-1.168,0-1.359-1.921-.884-1.921-1.656" transform="translate(-1308.408 -21.877)" fill="#eabf7b"/><path d="M1456.8,28.49l-.367-.367-.511.03.521.726h.714l.547-.726-.521-.035Z" transform="translate(-1308.945 -21.044)" fill="#eabf7b"/><path d="M1463.266,30.006h-2.957v.664h1.087V33.7h.792V30.67h1.078Z" transform="translate(-1311.023 -21.937)" fill="#eabf7b"/><path d="M1462.313,28.49l-.368-.367-.51.03.522.726h.714l.546-.726-.52-.035Z" transform="translate(-1311.555 -21.044)" fill="#eabf7b"/><path d="M1467.715,29.879a1.738,1.738,0,0,0-1.8,1.931c0,1.1.5,1.894,1.721,1.894,1.2,0,1.777-.766,1.777-1.966a1.633,1.633,0,0,0-1.695-1.859m-.051,3.161c-.582,0-.939-.362-.939-1.245,0-.859.377-1.252.976-1.252.567,0,.9.387.9,1.24,0,.914-.382,1.256-.934,1.256" transform="translate(-1313.674 -21.878)" fill="#eabf7b"/><path d="M1474.358,32.928h-.03l-.844-2.922h-.882l1.2,3.7h1.062l1.15-3.7h-.813Z" transform="translate(-1316.837 -21.937)" fill="#eabf7b"/><path d="M1480.453,32.177h1.465v-.643h-1.465v-.868h1.558v-.659h-2.344v3.7h2.436V33.04h-1.649Z" transform="translate(-1320.179 -21.937)" fill="#eabf7b"/><path d="M1487.56,32.626l-1.4-2.62h-.94v3.7h.72v-2.61l1.425,2.61h.909v-3.7h-.716Z" transform="translate(-1322.807 -21.937)" fill="#eabf7b"/><path d="M1329.154,43.429l-1.21,3.7h.812l.286-.9h1.231l.305.9h.863l-1.307-3.7Zm.021,2.17.455-1.429h.02l.459,1.429Z" transform="translate(-1248.41 -28.287)" fill="#eabf7b"/><path d="M1338.175,44.3c0-.234.173-.393.551-.393a.525.525,0,0,1,.607.557l.72-.082c-.055-.878-.659-1.082-1.316-1.082-.746,0-1.349.394-1.349,1.113,0,1.4,1.926.863,1.926,1.634,0,.342-.286.454-.613.454-.542,0-.674-.3-.736-.659l-.715.107c.066.961.766,1.176,1.43,1.176.735,0,1.416-.333,1.416-1.169,0-1.36-1.92-.884-1.92-1.656" transform="translate(-1252.812 -28.227)" fill="#eabf7b"/><path d="M1345.733,43.429h-2.956v.664h1.086v3.033h.793V44.093h1.077Z" transform="translate(-1255.426 -28.287)" fill="#eabf7b"/><path d="M1348.9,43.429l-1.209,3.7h.812l.286-.9h1.231l.306.9h.863l-1.309-3.7Zm.021,2.17.455-1.429h.021l.459,1.429Z" transform="translate(-1257.751 -28.287)" fill="#eabf7b"/><path d="M1355.428,46.35h-.031l-.843-2.92h-.884l1.2,3.7h1.062l1.15-3.7h-.812Z" transform="translate(-1260.579 -28.287)" fill="#eabf7b"/><path d="M1361.523,45.6h1.466v-.644h-1.466v-.867h1.558v-.658h-2.344v3.7h2.436v-.663h-1.65Z" transform="translate(-1263.922 -28.287)" fill="#eabf7b"/><path d="M1368.176,45.2V45.2a.865.865,0,0,0,.7-.863c0-.505-.244-.9-1.117-.9h-1.466v3.7h1.348c.8,0,1.395-.26,1.395-1.015a.848.848,0,0,0-.858-.905m-1.1-1.169h.408c.352,0,.617.026.617.425,0,.428-.367.494-.735.494h-.291Zm.4,2.483h-.4v-.965h.48c.351,0,.638.072.638.485s-.286.48-.715.48" transform="translate(-1266.549 -28.287)" fill="#eabf7b"/><path d="M1374.709,46.048l-1.4-2.62h-.939v3.7h.72V44.516l1.425,2.609h.908v-3.7h-.714Z" transform="translate(-1269.425 -28.287)" fill="#eabf7b"/><rect width="0.786" height="3.697" transform="translate(106.7 15.142)" fill="#eabf7b"/><path d="M1383.747,43.95c.475,0,.7.214.746.74l.719-.06a1.291,1.291,0,0,0-1.455-1.329,1.725,1.725,0,0,0-1.782,1.956c0,1.144.48,1.87,1.706,1.87a1.4,1.4,0,0,0,1.522-1.19l-.71-.123a.728.728,0,0,1-.8.665c-.581,0-.9-.353-.9-1.263,0-.877.357-1.266.96-1.266" transform="translate(-1273.969 -28.226)" fill="#eabf7b"/><path d="M1392.974,46.35h-.03l-.842-2.92h-3.816v.663h1.088v3.033h.792V44.093h1.078v-.587l1.175,3.619h1.062l1.149-3.7h-.812Z" transform="translate(-1276.953 -28.287)" fill="#eabf7b"/><path d="M1400.81,42.282l.547.041.746-.756h-.828Z" transform="translate(-1282.878 -27.406)" fill="#eabf7b"/><rect width="0.786" height="3.697" transform="translate(117.989 15.142)" fill="#eabf7b"/></svg>