<svg xmlns="http://www.w3.org/2000/svg" width="217.331" height="1203.917" viewBox="0 0 217.331 1203.917">
  <g id="Group_1085" data-name="Group 1085" transform="translate(-1149.233 -258.755)">
    <g id="Group_982" data-name="Group 982">
      <g id="Group_980" data-name="Group 980" transform="translate(0 -2)">
        <g id="Group_532" data-name="Group 532" transform="translate(-327.75 -44.898) rotate(5)">
          <path id="Path_346" data-name="Path 346" d="M37.863,4.118C24.414-4.192,6.225.524,1.01,14.233c-3.915,10.29,4.132,36.1,14.222,48.328,4.478,5.426,5.011-9.011,5.011-9.011s5.177,13.471,8.164,16.394c4.838,4.734,2.25-28.655,2.25-28.655s2.025,9.862,7.094,11.3c1.427.4.928-15.52.928-15.52s5.027,11.468,5.131,8.432c.239-7.008,5.421-34.352-5.948-41.378" transform="matrix(0.914, -0.407, 0.407, 0.914, 1621.987, 317.774)" fill="#f0c7e6"/>
          <path id="Path_347" data-name="Path 347" d="M18.92,30.136c8.593-1.828,14.84-9.726,13.164-17.6S21.432-1.5,12.839.324-1.381,11.288.3,19.166s10.031,12.8,18.624,10.971M13.264,5.684c14.5-3.821,18.694,15,4.606,19.519-5.384,1.727-11.2-2.361-12.226-7.176s2.09-11.166,7.62-12.343" transform="matrix(0.914, -0.407, 0.407, 0.914, 1590.943, 251.268)" fill="#f0c7e6"/>
          <path id="Path_345" data-name="Path 345" d="M97.75,58.2c-2.661.137-6.475,1.067-9.49,6.037a7.3,7.3,0,0,0-.464.925A123.1,123.1,0,0,0,66.576,25.633c-5.256-6.667-9.012-9.493-11.435-10.682C53.913,9.445,52.577,3.585,52.258,2.7,51.636.983,50.242-.6,48.069.223c-1.722.649-2.185,3.427-1.941,5.253l.472,11.5A57.314,57.314,0,0,0,33.534,33.719a111.525,111.525,0,0,0-9.612,25.286,135.714,135.714,0,0,0-3.505,19.862,10.343,10.343,0,0,0-7.489-2.943c-26.417,1.244-5.656,65.2,3.552,65.158,3.642-.015,6.253-11.782,7.571-19.947,1.743,3.738,4.056,6.1,7.133,7.062a62.8,62.8,0,0,0,18.68,2.84c23.705,0,38.533-10.734,41.308-13.665,1.318-1.392,1.465-6.142,1.27-13.243,3.891,11,8.755,22.672,11.844,22.672,4.907,0,9.583-16.953,10.4-31.7.36-6.548.163-37.783-16.932-36.9M30.16,61.036a122.436,122.436,0,0,1,5.826-17.675c4.581,1.479,20.655,5.594,31.711-5.106a130.643,130.643,0,0,1,8.623,13.864c3.968,7.427,8.791,23.927,10.276,39.66-7.786,6.393-14.332,9.273-27.071,11.348-13.977,2.276-30.212-1.277-31.686-1.852-.154-.06-.3-.115-.45-.168-1.112-11.873-.712-26.558,2.77-40.071M18.813,114.851A80.461,80.461,0,0,1,15.5,131.571a76.578,76.578,0,0,1-6.245-16.606c-2.81-11.211-2.887-21.278-1.24-26.928.595-2.04,2.2-4.779,4.913-4.811,7.912-.212,6.781,22.783,5.886,31.624m67.021-1.434c-3.593,4.2-34.1,16.332-52.231,7.007-.339-.174-3.605-1.42-5.336-12.294l0-.025c6.378,1.249,20.272,3.094,29.928,2.129,10.6-1.058,21.387-6.077,28.843-11.077a59.725,59.725,0,0,1-1.2,14.26m18.469,5.519C101.45,115.986,91.892,82.29,91.892,82.29c-.824-3.1-2.16-15.745,5.886-17.1q.082,0,.166,0c.909.042,3.778.311,6.487,5.719,8.736,17.436,1.952,44.35-.128,48.019" transform="matrix(0.914, -0.407, 0.407, 0.914, 1529.428, 210.518)" fill="#f0c7e6"/>
        </g>
      </g>
      <path id="Path_1199" data-name="Path 1199" d="M-7278.706-21557.7s-97.48-173.232,36.967-244.355,152.909-267.719,69.765-416.041,36.663-222.7,6.385-328.8" transform="matrix(1, -0.017, 0.017, 1, 8859.011, 22887.176)" fill="none" stroke="#f0c7e6" stroke-width="9" stroke-dasharray="31 27"/>
    </g>
  </g>
</svg>
