<svg xmlns="http://www.w3.org/2000/svg" xmlns:xlink="http://www.w3.org/1999/xlink" width="131.125" height="122.384" viewBox="0 0 131.125 122.384"><defs><clipPath id="a"><path d="M598.776-550c-39.912,0-64.9,23.124-61.765,59.219s23.662,58.8,63.575,58.8,63.244-23.177,63.244-62.133S638.688-550,598.776-550Z" transform="translate(-539 549.999)" fill="#eaded2" clip-rule="evenodd"/></clipPath><clipPath id="b"><path d="M-706,33773.266H6339.1V-728H-706Z" transform="translate(706 728)" fill="#eaded2"/></clipPath></defs><g transform="translate(-375.613 -8234.624)"><g transform="translate(504.485 8352.65) rotate(178)" clip-path="url(#a)"><g transform="translate(-6091.074 -875.318)" clip-path="url(#b)"><path d="M708.748-387.8H534V-555H708.748Z" transform="translate(5532.61 1405.73)" fill="#eaded2"/></g></g><path d="M8.744-1.5A10.244,10.244,0,1,1-1.5,8.744,10.255,10.255,0,0,1,8.744-1.5Zm0,17.487A7.244,7.244,0,1,0,1.5,8.744,7.252,7.252,0,0,0,8.744,15.987Z" transform="translate(432.526 8275.794)" fill="#160eaa"/><path d="M22.27-1A18.611,18.611,0,0,1,40.9,17.625a24.468,24.468,0,0,1-2.092,8.4,101.742,101.742,0,0,1-4.721,10.019c-3.519,6.648-7.459,12.981-9.494,16.164l-.006.01a2.75,2.75,0,0,1-4.622-.006c-2.038-3.185-5.979-9.516-9.5-16.165A101.627,101.627,0,0,1,5.737,26.024a24.471,24.471,0,0,1-2.092-8.4A18.627,18.627,0,0,1,22.27-1Zm0,51.256C29.866,38.34,37.9,23.613,37.9,17.625a15.625,15.625,0,1,0-31.25,0C6.645,23.619,14.677,38.344,22.273,50.256Z" transform="translate(419 8267.8)" fill="#160eaa"/><path d="M29.229,30.693A126.283,126.283,0,0,1,8.657,29.207a32.337,32.337,0,0,1-6.47-1.679A7.714,7.714,0,0,1,.112,26.346,2.789,2.789,0,0,1-1,24.2,3.227,3.227,0,0,1,.918,21.482,15.549,15.549,0,0,1,4.59,20.066a70.559,70.559,0,0,1,11.918-1.86,1.5,1.5,0,0,1,.255,2.989A73.353,73.353,0,0,0,6.235,22.74a12.817,12.817,0,0,0-4,1.456c.649.441,2.6,1.391,8.066,2.242a128.857,128.857,0,0,0,18.926,1.255,128.857,128.857,0,0,0,18.926-1.255c5.459-.85,7.413-1.8,8.064-2.241a12.925,12.925,0,0,0-4.028-1.46,73.814,73.814,0,0,0-10.6-1.542,1.5,1.5,0,0,1,.251-2.989,71.012,71.012,0,0,1,11.991,1.856,15.676,15.676,0,0,1,3.694,1.417A3.23,3.23,0,0,1,59.458,24.2a2.789,2.789,0,0,1-1.112,2.15,7.715,7.715,0,0,1-2.075,1.182,32.337,32.337,0,0,1-6.47,1.679A126.283,126.283,0,0,1,29.229,30.693Z" transform="translate(412.041 8296.565)" fill="#160eaa"/></g></svg>